<svg width="32" height="31" viewBox="0 0 32 31" fill="none" xmlns="http://www.w3.org/2000/svg">
<path d="M26.9935 10.1938L18.6574 3.52492C17.0283 2.22677 14.4829 2.21405 12.8666 3.51219L4.53049 10.1938C3.33416 11.1483 2.60872 13.0574 2.86326 14.5591L4.46685 24.1552C4.83593 26.3061 6.83406 27.9988 9.01036 27.9988H22.5009C24.6517 27.9988 26.688 26.2679 27.0571 24.1425L28.6607 14.5464C28.8898 13.0574 28.1644 11.1483 26.9935 10.1938ZM16.7101 22.908C16.7101 23.4298 16.2774 23.8625 15.7556 23.8625C15.2338 23.8625 14.8011 23.4298 14.8011 22.908V19.0899C14.8011 18.5681 15.2338 18.1354 15.7556 18.1354C16.2774 18.1354 16.7101 18.5681 16.7101 19.0899V22.908Z" fill="#0040D8"/>
</svg>
