<svg width="186" height="29" viewBox="0 0 186 29" fill="none" xmlns="http://www.w3.org/2000/svg">
<path d="M20.5469 24.2734H10.4688L9.08203 29H0.0390625L10.8008 0.367188H20.4492L31.2109 29H21.9531L20.5469 24.2734ZM18.6914 18.082L15.5273 7.78906L12.3828 18.082H18.6914ZM34.2125 0.367188H43.0602V21.9492H56.8687V29H34.2125V0.367188ZM59.0305 0.367188H85.925V7.4375H76.9016V29H68.0539V7.4375H59.0305V0.367188ZM90.45 0.367188H99.3172V29H90.45V0.367188ZM103.002 0.367188H112.26L118.705 20.9727L125.053 0.367188H134.037L123.412 29H113.823L103.002 0.367188Z" fill="#2A4DD0"/>
<path d="M136.609 21.0312H145.105V29H136.609V21.0312Z" fill="#03FF88"/>
<path d="M176.388 29H170.099L167.599 22.4961H156.154L153.791 29H147.658L158.81 0.367188H164.923L176.388 29ZM165.744 17.6719L161.798 7.04688L157.931 17.6719H165.744ZM179.448 29V0.367188H185.23V29H179.448Z" fill="#01A2FF"/>
</svg>
