<svg width="159" height="60" viewBox="0 0 159 60" fill="none" xmlns="http://www.w3.org/2000/svg">
<path d="M28.7305 44H22.4414L19.9414 37.4961H8.49609L6.13281 44H0L11.1523 15.3672H17.2656L28.7305 44ZM18.0859 32.6719L14.1406 22.0469L10.2734 32.6719H18.0859ZM32.1227 44V15.6016H37.9039V39.1758H52.2789V44H32.1227ZM60.0461 44V20.2109H51.55V15.3672H74.3039V20.2109H65.8273V44H60.0461ZM78.0281 44V15.3672H83.8094V44H78.0281ZM96.7914 44L86.557 15.3672H92.8266L100.073 36.5586L107.084 15.3672H113.217L102.963 44H96.7914ZM112.605 44V38.5117H118.094V44H112.605ZM120.959 44L131.955 15.3672H136.037L147.755 44H143.439L140.099 35.3281H128.127L124.982 44H120.959ZM129.22 32.2422H138.927L135.939 24.3125C135.028 21.9036 134.351 19.9245 133.908 18.375C133.543 20.2109 133.029 22.0339 132.365 23.8438L129.22 32.2422ZM151.577 44V15.3672H155.366V44H151.577Z" fill="black"/>
</svg>
