<svg width="102" height="261" viewBox="0 0 102 261" fill="none" xmlns="http://www.w3.org/2000/svg">
<path d="M19.4682 260.42C17.9232 260.42 16.0776 259.62 13.6201 257.808C7.098 252.893 0.409988 238.133 -6.6513 222.523C-10.5397 213.951 -14.5525 205.085 -18.586 197.819C-24.4756 184.692 -34.4609 175.646 -44.1248 166.878C-51.1861 160.478 -57.8534 154.42 -63.0172 146.942L-63.0275 146.925C-66.9055 141.113 -68.7201 135.496 -68.5749 129.765C-68.295 118.58 -60.5493 108.62 -51.5698 97.0929L-50.7092 95.9826C-44.0523 87.3941 -35.6949 75.8993 -23.5942 58.7387L-22.5677 57.3345C-11.7425 42.5089 1.73723 24.0584 19.1986 12.8738C54.1733 -13.0385 84.7825 7.02844 94.4464 28.7771C104.525 54.1996 103.654 81.1895 91.1284 131.985C78.0116 184.937 48.9576 225.871 37.0748 241.007C32.2117 246.003 29.1632 250.428 26.9443 253.661C24.1239 257.743 22.2886 260.42 19.4682 260.42ZM-62.1047 145.374C-57.055 152.689 -50.4499 158.682 -43.4612 165.033C-33.6833 173.899 -23.5631 183.075 -17.5491 196.497C-13.5052 203.763 -9.47166 212.678 -5.57291 221.283C1.39506 236.663 7.97937 251.195 14.18 255.881C20.3081 260.371 21.7494 258.281 26.0318 252.077C28.2922 248.795 31.3926 244.288 36.2867 239.259C48.0244 224.287 76.871 183.663 89.8737 131.185C102.223 81.1242 103.125 54.6241 93.3266 29.9201C83.9427 8.8245 54.0488 -10.6383 19.7378 14.7842C2.4527 25.8708 -10.9337 44.1906 -21.6863 58.902L-22.7025 60.3062C-34.8135 77.4831 -43.1813 88.9942 -49.8589 97.599L-50.7195 98.7093C-59.4502 109.91 -66.9781 119.593 -67.2373 129.814C-67.3618 134.924 -65.682 140.002 -62.1047 145.374Z" fill="#CCCCCC"/>
<path d="M17.3636 245.627C15.2276 245.627 12.9672 244.549 9.85647 242.639L9.79426 242.606C3.82171 237.888 -0.906551 226.507 -5.90441 214.474C-9.31581 206.244 -12.8516 197.754 -17.1029 190.357C-23.0962 178.356 -30.6345 169.017 -37.9135 159.987C-42.8077 153.93 -47.4322 148.199 -51.4658 141.864L-51.5384 141.733C-59.7506 124.115 -53.861 116.343 -43.181 102.22C-42.0196 100.685 -40.7961 99.0683 -39.5207 97.3375C-37.0114 94.4148 -34.3362 91.1493 -31.4951 87.6878C-18.876 72.2906 -1.58054 51.2114 22.8177 34.0998C52.639 16.1228 75.6789 29.1198 85.3013 49.9705C94.9445 71.7028 91.2013 97.86 80.3656 141.553C68.4931 185.736 46.822 214.343 35.1776 229.707L33.8814 231.422C25.2233 241.545 21.5112 245.627 17.3636 245.627ZM10.3749 240.68C18.8671 245.872 20.3084 244.631 33.0519 229.773L34.3169 228.107C45.868 212.857 67.3733 184.463 79.1214 140.786C89.7807 97.8274 93.5032 72.16 84.2126 51.2277C74.9012 31.0465 52.4627 18.523 23.3362 36.0755C-0.885815 53.0564 -18.0983 74.054 -30.6759 89.3695C-33.517 92.831 -36.1923 96.0966 -38.6808 99.003C-39.9251 100.685 -41.1486 102.301 -42.31 103.852C-53.0004 117.992 -57.8946 124.458 -50.4807 140.427C-46.5094 146.648 -41.9263 152.313 -37.084 158.322C-29.7324 167.417 -22.1423 176.838 -16.0764 188.986C-11.7836 196.448 -8.2167 205.02 -4.77419 213.314C0.109608 225.07 4.73418 236.19 10.3749 240.68Z" fill="#CCCCCC"/>
<path d="M15.5412 233.284C12.8141 233.284 10.2841 231.749 7.13192 229.137C1.86447 224.14 -2.36609 213.805 -6.8455 202.881C-9.49996 196.383 -12.2581 189.672 -15.4103 183.517C-19.8171 173.85 -25.0431 165.589 -30.0824 157.588C-34.2196 151.024 -38.1288 144.836 -41.2083 138.452L-41.2498 138.354C-47.492 121.797 -41.0424 114.074 -29.3255 100.049L-29.1907 99.8853L-27.0236 97.5504C-14.6845 84.3085 2.21701 66.1683 25.371 53.0244C52.7037 39.2926 70.1028 53.2856 76.7079 69.4175C83.7692 86.6271 82.0375 109.731 70.7353 149.163C62.5024 176.643 49.0641 201.347 30.8043 222.589C23.7431 230.133 19.4399 233.284 15.5412 233.284ZM-40.1196 137.194C-37.0919 143.448 -33.2242 149.587 -29.1285 156.069C-24.0476 164.119 -18.7906 172.463 -14.3423 182.21C-11.159 188.399 -8.39046 195.175 -5.71526 201.722C-1.32918 212.449 2.81842 222.573 7.79554 227.291C14.9709 233.267 18.5482 233.153 30.0267 220.858C48.0895 199.828 61.3825 175.402 69.5118 148.265C80.5963 109.584 82.359 87.0679 75.5777 70.5441C68.7237 53.8081 50.6817 42.5092 25.7961 55C2.82879 68.046 -13.9897 86.0883 -26.2666 99.2812L-28.5167 101.714C-40.3166 115.838 -45.7189 122.303 -40.1196 137.194Z" fill="#CCCCCC"/>
<path d="M14.5606 222.05C11.5121 222.05 8.65029 220.401 5.45664 217.168L5.4359 217.151C0.624683 211.959 -3.25332 202.195 -7.35944 191.876C-9.25697 187.092 -11.2271 182.161 -13.3631 177.458C-16.2146 170.568 -19.3771 164.2 -22.436 158.061C-26.1895 150.517 -29.7461 143.382 -32.0688 136.459C-36.123 121.846 -30.192 114.204 -19.9474 103.314C-9.39176 93.0271 6.91867 78.3646 26.9101 69.7109C45.9994 63.5226 60.2983 68.4863 67.2144 83.6712C74.6801 100.032 72.824 125.977 62.1232 154.861C50.9143 188.855 33.1937 208.792 28.03 214.082C22.5344 219.437 18.3971 222.05 14.5606 222.05ZM6.18247 215.388C12.155 221.413 16.8418 222.491 27.3041 212.286C32.3849 207.077 49.8774 187.402 60.9411 153.832C71.3724 125.666 73.2595 100.554 66.1153 84.9121C59.5206 70.4456 45.7091 65.7922 27.2108 71.7845C7.42675 80.3566 -8.76962 94.9048 -19.2319 105.11C-29.7772 116.311 -34.3707 122.972 -30.8763 135.561C-28.6263 142.239 -25.1112 149.293 -21.3887 156.771C-18.3091 162.959 -15.1258 169.343 -12.264 176.283C-10.1176 180.985 -8.14748 185.965 -6.23959 190.766C-2.19568 200.872 1.60974 210.441 6.18247 215.388Z" fill="#CCCCCC"/>
<path d="M14.0147 211.797C10.7795 211.797 7.80365 210.05 4.71368 206.555L4.63073 206.441C-7.2003 187.582 -21.1881 144.395 -23.8737 135.937L-23.9151 135.742C-26.0097 123.626 -21.2814 116.507 -11.8352 107.609C-2.93864 99.7386 11.1114 89.3541 27.5773 84.5047C42.7368 80.7493 54.0909 85.8109 59.5657 98.7589C65.6419 113.144 63.7859 135.007 54.4849 158.747C46.2934 181.639 34.2239 198.114 25.6591 205.886C21.1796 209.837 17.4468 211.797 14.0147 211.797ZM5.54321 204.89C11.4639 211.535 16.7417 211.307 24.9851 204.041C33.3943 196.416 45.2461 180.219 53.3236 157.67C62.2202 134.958 64.128 113.389 58.4458 99.9345C53.2821 87.7049 42.3946 82.9535 27.8054 86.5947C11.5365 91.395 -2.35797 101.682 -11.1613 109.454C-20.203 117.96 -24.4647 124.279 -22.6397 135.105C-14.9252 159.401 -3.48819 190.456 5.54321 204.89Z" fill="#CCCCCC"/>
<path d="M13.4557 202.343C9.99243 202.343 6.99579 200.531 4.72498 197.02C-4.35826 183.158 -13.8148 153.915 -16.604 136.33C-17.0603 132.264 -16.407 128.296 -14.6858 124.508C-9.37686 112.834 6.35293 102.759 27.402 97.5672C39.2745 95.7548 48.1296 100.768 52.3602 111.691C57.1507 124.067 55.4294 142.077 47.6423 161.083C37.5118 185.134 25.3904 200.482 15.2184 202.18C14.617 202.294 14.026 202.343 13.4557 202.343ZM32.0266 99.3143C30.5956 99.3143 29.1129 99.4286 27.5783 99.6735C6.92322 104.768 -8.48512 114.516 -13.5763 125.749C-15.0902 129.08 -15.6605 132.493 -15.2768 135.905C-12.5394 153.131 -3.24878 181.901 5.67893 195.518C8.03269 199.143 11.2886 200.727 15.0836 200.09C24.8616 198.457 36.62 183.452 46.5224 159.94C53.9052 141.914 55.6679 124.296 51.2196 112.801C47.8082 104 41.0787 99.3143 32.0266 99.3143Z" fill="#CCCCCC"/>
<path d="M13.776 193.362C10.5616 193.362 7.73083 191.729 5.52223 188.562C-2.35821 177.312 -9.64761 153.522 -10.0624 137.668V137.635C-10.1142 123.022 5.31485 111.021 26.6128 109.127C35.6856 108.784 42.4151 113.552 45.5777 122.597C49.2068 132.965 47.7137 147.35 41.4819 162.078C33.7777 179.973 24.1346 191.599 15.6735 193.182C15.0202 193.297 14.3877 193.362 13.776 193.362ZM-8.7144 137.602C-8.29964 152.983 -1.22798 176.071 6.43471 186.994C8.76773 190.341 11.8992 191.746 15.5076 191.076C23.585 189.558 32.8757 178.275 40.3621 160.886C46.3035 146.844 47.7759 133.243 44.3956 123.593C41.4819 115.282 35.1983 110.874 26.6646 111.217C6.46581 113.029 -8.75587 124.377 -8.7144 137.602Z" fill="#CCCCCC"/>
<path d="M14.2433 184.854C11.4333 184.854 8.92404 183.499 6.90209 180.838C-0.20068 171.547 -5.25039 152.738 -4.14091 139.741C-2.93811 127.266 9.99205 118.318 25.2552 119.347C31.9536 119.951 36.8892 124.294 39.1704 131.56C41.7834 139.888 40.591 150.941 35.8834 161.865C30.3257 174.65 22.9948 183.156 16.2757 184.626C15.5809 184.789 14.907 184.854 14.2433 184.854ZM22.8392 121.388C9.29732 121.388 -1.7664 129.274 -2.8033 140.051C-3.8402 152.182 1.09545 170.486 7.76271 179.221C9.96094 182.095 12.8332 183.238 16.089 182.536C22.4452 181.148 29.4236 172.968 34.774 160.673C39.2015 150.403 40.3628 140.132 37.9676 132.491C35.9145 125.944 31.3729 122.025 25.193 121.453C24.405 121.421 23.6169 121.388 22.8392 121.388Z" fill="#CCCCCC"/>
<path d="M14.7802 176.725C12.5198 176.725 10.4667 175.696 8.74548 173.688C2.7833 166.716 -0.56588 152.69 1.2798 142.42C3.15659 132.264 12.9034 126.157 23.4487 128.509C28.1251 129.603 31.5573 133.26 33.1126 138.811C34.8754 145.098 34.0044 153.066 30.7278 160.674C26.9638 169.361 21.9141 175.108 16.8748 176.431C16.1697 176.627 15.4646 176.725 14.7802 176.725ZM2.57593 143.008C0.896149 152.331 4.0898 165.605 9.5439 171.99C11.4829 174.259 13.9404 175.076 16.657 174.357C21.2712 173.133 26.1239 167.581 29.6286 159.499C32.6357 152.511 33.4548 145.294 31.8891 139.677C30.5307 134.811 27.4615 131.595 23.2621 130.615C13.5256 128.427 4.24534 133.995 2.57593 143.008Z" fill="#CCCCCC"/>
<path d="M15.3516 168.853C13.7859 168.853 12.272 168.216 10.9448 166.845C6.50682 162.322 4.43302 152.721 6.30981 145.455C8.19697 138.222 14.9265 134.32 21.3241 136.769C24.2793 137.895 26.4361 140.655 27.4004 144.508C28.458 148.753 27.9188 153.913 25.928 158.648C23.1802 165.147 19.1052 168.853 15.3516 168.853ZM11.6706 165.081C15.4967 168.984 21.3863 165.587 24.8081 157.489C26.5501 153.341 27.0478 148.884 26.1457 145.292C25.3473 142.092 23.5224 139.789 21.0027 138.826C15.2271 136.622 9.1924 139.953 7.5541 146.255C5.90543 152.639 7.7511 161.081 11.6706 165.081Z" fill="#CCCCCC"/>
<path d="M15.8306 161.131C14.9803 161.131 14.1508 160.821 13.3939 160.167C10.8016 157.93 9.75435 152.787 11.0712 148.689C12.3673 144.64 15.9239 142.697 18.9827 144.362C20.4551 145.162 21.5335 146.762 22.0001 148.885C22.4978 151.122 22.2593 153.734 21.3365 156.036C20.0196 159.286 17.894 161.131 15.8306 161.131ZM16.6601 145.881C14.7833 145.881 13.0102 147.301 12.2533 149.652C11.2682 152.738 12.0563 156.624 14.0264 158.306C15.9861 160.004 18.7546 158.469 20.1855 154.894C20.901 153.114 21.0876 151.236 20.7144 149.571C20.3826 148.068 19.6049 146.926 18.5265 146.338C17.9147 146.028 17.2822 145.881 16.6601 145.881Z" fill="#CCCCCC"/>
</svg>
