<svg width="313" height="32" viewBox="0 0 313 32" fill="none" xmlns="http://www.w3.org/2000/svg">
<path d="M293.764 16.6101C293.336 16.6363 292.903 16.6544 292.484 16.6938C292.211 16.7184 292.095 16.6462 291.913 16.6084C291.852 16.5953 291.787 16.569 291.731 16.5723C291.307 16.5986 290.883 16.6281 290.459 16.6577C290.33 16.7217 290.247 16.807 290.048 16.8382C289.854 16.8678 289.625 16.8678 289.408 16.8825C289.123 16.9006 288.837 16.9187 288.552 16.9351C288.409 16.9433 288.292 16.9745 288.245 17.0335C288.236 17.0434 288.331 17.068 288.383 17.0828C288.556 17.132 288.725 17.1878 288.915 17.2256C289.097 17.2617 289.322 17.2026 289.516 17.2485C289.953 17.3519 289.958 17.3503 290.291 17.3306C290.576 17.3125 290.862 17.2929 291.147 17.2797C291.203 17.2765 291.268 17.3011 291.329 17.3142C291.51 17.3503 291.627 17.4324 291.896 17.4012C292.099 17.3766 292.324 17.3716 292.536 17.3585C292.713 17.4061 292.877 17.4603 293.068 17.498C293.245 17.5341 293.297 17.562 293.202 17.6096C293.115 17.654 292.994 17.672 292.834 17.6753C292.691 17.6769 292.549 17.6917 292.406 17.6999C292.332 17.7048 292.263 17.7081 292.194 17.713C291.921 17.7311 291.921 17.7311 291.424 17.626C291.229 17.585 291.009 17.6425 290.823 17.6031C290.697 17.5768 290.589 17.5374 290.468 17.5095C290.416 17.498 290.334 17.4964 290.269 17.4997C290.053 17.5112 289.836 17.5194 289.629 17.5407C289.482 17.5555 289.395 17.6014 289.413 17.6474C289.417 17.6654 289.521 17.6917 289.581 17.6933C289.72 17.6966 289.867 17.6736 290.001 17.6851C290.131 17.6966 290.265 17.7294 290.36 17.7656C290.555 17.8411 290.775 17.7738 290.961 17.7935C291.156 17.8148 291.316 17.8805 291.502 17.9198C291.549 17.9297 291.64 17.9133 291.714 17.9083C291.926 17.8969 292.138 17.887 292.35 17.8755C292.527 17.9231 292.717 17.9658 292.877 18.02C293.167 18.1184 293.479 18.1562 293.855 18.1086C294.067 18.0823 294.275 18.0922 294.443 18.1562C294.616 18.2218 294.815 18.2153 295.036 18.2021C295.239 18.189 295.447 18.1529 295.654 18.1989C296.104 18.3006 296.109 18.3055 296.641 18.2662C296.801 18.2547 296.922 18.2514 297.043 18.2891C297.155 18.3236 297.277 18.3531 297.393 18.386C297.605 18.3745 297.822 18.363 298.034 18.3499C298.306 18.3318 298.457 18.3548 298.522 18.4467C298.561 18.5025 298.579 18.5534 298.674 18.5911C298.786 18.6371 298.907 18.6354 299.072 18.6223C299.227 18.6108 299.34 18.5928 299.405 18.5337C299.431 18.5091 299.483 18.4861 299.53 18.4664C299.569 18.4516 299.63 18.4286 299.664 18.4319C299.729 18.4385 299.816 18.4565 299.837 18.4779C300.049 18.6765 300.049 18.6781 300.266 18.7356C300.504 18.7996 300.75 18.857 300.966 18.9292C301.161 18.9932 301.356 18.9653 301.568 18.9653C301.728 18.9653 301.832 19.008 301.819 19.0507C301.81 19.0753 301.749 19.1114 301.697 19.1147C301.273 19.1475 300.845 19.1754 300.417 19.1984C300.365 19.2017 300.3 19.1721 300.24 19.1574C300.119 19.1278 300.01 19.0819 299.881 19.072C299.751 19.0622 299.599 19.0868 299.457 19.095C299.314 19.1032 299.163 19.1246 299.033 19.1114C298.903 19.0983 298.799 19.0507 298.678 19.0195C298.622 19.0047 298.544 18.9834 298.496 18.9883C298.181 19.0277 297.947 18.9736 297.722 18.9013C297.675 18.8866 297.592 18.8767 297.532 18.88C297.03 18.9079 296.533 18.9407 296.031 18.9719C295.828 18.985 295.663 18.9276 295.62 18.8307C295.598 18.7766 295.555 18.7224 295.555 18.6683C295.555 18.5698 295.317 18.5156 295.144 18.5271C294.859 18.5435 294.569 18.5567 294.288 18.5813C294.058 18.601 293.864 18.5813 293.708 18.5222C293.526 18.4549 293.319 18.468 293.111 18.4861C292.955 18.4992 292.912 18.5534 292.921 18.6896C292.929 18.7996 292.856 18.834 292.575 18.8521C292.22 18.8751 291.861 18.898 291.502 18.9161C291.446 18.9194 291.381 18.8915 291.324 18.8767C291.203 18.8472 291.095 18.7996 290.965 18.7897C290.836 18.7782 290.684 18.8029 290.542 18.8127C290.399 18.8209 290.247 18.8439 290.118 18.8324C289.988 18.8209 289.88 18.7717 289.763 18.7405C289.707 18.7257 289.637 18.7044 289.581 18.7077C289.296 18.7208 289.01 18.7405 288.725 18.7585C288.405 18.7782 288.405 18.7782 287.95 18.6765C287.743 18.6305 287.535 18.6666 287.332 18.6798C287.116 18.6929 286.912 18.6995 286.744 18.6338C286.631 18.5911 286.506 18.5649 286.372 18.5731C286.013 18.5928 285.658 18.6174 285.299 18.6371C285.238 18.6404 285.156 18.6322 285.109 18.6174C284.879 18.5485 284.654 18.4943 284.334 18.5288C284.057 18.5583 283.759 18.5599 283.482 18.5878C283.331 18.6026 283.261 18.6551 283.292 18.6962C283.309 18.7175 283.4 18.7421 283.46 18.7421C283.599 18.7438 283.75 18.7191 283.88 18.729C284.148 18.7487 284.282 18.8866 284.633 18.8488C284.84 18.8258 285.057 18.8176 285.273 18.8111C285.329 18.8094 285.39 18.8406 285.45 18.857C285.623 18.9013 285.775 18.9588 286.026 18.9292C286.233 18.9062 286.454 18.8997 286.666 18.8866C287.003 18.8652 287.003 18.8669 287.44 18.967C287.648 19.0146 287.855 18.9768 288.059 18.9653C288.21 18.9571 288.353 18.9407 288.474 18.9637C288.66 18.9982 288.794 19.0769 289.023 19.072C289.24 19.0671 289.451 19.0441 289.668 19.0359C289.802 19.031 289.927 19.0573 290.035 19.1016C290.148 19.1459 290.269 19.1656 290.416 19.1557C290.628 19.1426 290.844 19.1262 291.061 19.118C291.121 19.1163 291.19 19.1311 291.247 19.1442C291.368 19.1738 291.484 19.2082 291.601 19.2394C291.813 19.2296 292.03 19.2263 292.237 19.2066C292.397 19.1918 292.51 19.1984 292.639 19.2312C292.804 19.2756 292.938 19.3543 293.206 19.3166C293.34 19.2985 293.496 19.3034 293.63 19.287C293.794 19.2657 293.907 19.2739 294.024 19.3231C294.244 19.4167 294.521 19.4183 294.807 19.3822C295.118 19.3428 295.352 19.3888 295.585 19.461C295.832 19.5365 295.832 19.5349 296.022 19.7171C296.078 19.7696 296.238 19.7942 296.372 19.7844C296.597 19.7679 296.792 19.7761 296.957 19.8385C297.13 19.9058 297.337 19.8976 297.549 19.8795C297.83 19.8549 298.111 19.8336 298.341 19.9288C298.453 19.9747 298.574 19.9862 298.726 19.9747C299.154 19.9452 299.587 19.9271 300.006 19.891C300.261 19.8681 300.408 19.9206 300.581 19.9649C300.815 20.0256 301.07 20.0798 301.07 20.2094C301.07 20.2308 301.131 20.2554 301.183 20.2718C301.295 20.3063 301.416 20.3358 301.533 20.3686C301.706 20.4179 301.875 20.4589 302.113 20.4327C302.32 20.4113 302.541 20.4048 302.753 20.39C302.965 20.3752 303.16 20.367 303.35 20.4294C303.57 20.4999 303.804 20.5672 304.055 20.6198C304.232 20.6575 304.466 20.5935 304.656 20.6444C304.773 20.6756 304.885 20.7117 305.011 20.7379C305.063 20.7494 305.145 20.7412 305.214 20.7379C305.357 20.7314 305.504 20.7265 305.642 20.71C305.803 20.692 305.924 20.6953 306.045 20.733C306.157 20.7675 306.27 20.8151 306.399 20.8249C306.594 20.8397 306.81 20.7741 307.005 20.8496C307.104 20.8873 307.23 20.9234 307.36 20.9349C307.49 20.9464 307.641 20.9218 307.779 20.9234C307.84 20.9234 307.913 20.9497 307.948 20.971C307.97 20.9825 307.939 21.0137 307.909 21.0301C307.87 21.0498 307.814 21.0761 307.758 21.0793C307.329 21.1089 306.901 21.1335 306.473 21.1614C306.218 21.1778 306.218 21.1778 305.703 21.0744C305.582 21.0498 305.448 21.0547 305.296 21.0662C305.093 21.081 304.885 21.1089 304.674 21.0793C304.397 20.9677 304.055 20.9579 303.692 21.0005C303.54 21.0186 303.402 21.0186 303.289 20.9874C303.051 20.925 302.8 20.8676 302.589 20.7938C302.424 20.7363 302.346 20.7314 302.277 20.8102C302.255 20.8348 302.234 20.861 302.238 20.884C302.264 20.9661 302.312 21.0465 302.338 21.1286C302.346 21.1515 302.312 21.1778 302.29 21.2024C302.221 21.2714 302.13 21.2664 301.979 21.209C301.827 21.1515 301.646 21.1138 301.403 21.1401C301.196 21.163 300.971 21.1598 300.763 21.1844C300.443 21.2205 300.218 21.168 299.989 21.0974C299.941 21.0826 299.859 21.0744 299.798 21.0777C299.154 21.1154 298.514 21.1581 297.869 21.1959C297.731 21.2041 297.605 21.1794 297.497 21.1351C297.385 21.0908 297.259 21.0678 297.121 21.076C296.55 21.1105 295.979 21.1417 295.408 21.1844C295.174 21.2024 294.988 21.1811 294.828 21.1236C294.707 21.081 294.595 21.0678 294.443 21.0728C294.279 21.0777 294.162 21.0941 294.08 21.1417C294.002 21.1877 294.058 21.2156 294.231 21.2517C294.417 21.2911 294.59 21.3419 294.768 21.3879C294.91 21.3813 295.053 21.3682 295.192 21.3698C295.252 21.3698 295.308 21.3994 295.369 21.4158C295.542 21.4634 295.702 21.511 295.949 21.4847C296.156 21.4618 296.377 21.4568 296.589 21.4421C296.883 21.424 296.883 21.424 297.359 21.5274C297.48 21.5537 297.61 21.552 297.765 21.5372C297.899 21.5258 298.038 21.5487 298.133 21.598C298.172 21.6177 298.159 21.6505 298.077 21.7588C298.077 21.8393 298.168 21.8031 298.198 21.7506C298.246 21.6751 298.155 21.6505 297.982 21.6915C297.861 21.7211 297.8 21.7638 297.83 21.7982C297.848 21.8163 297.93 21.8393 298.077 21.7588C298.458 21.6604 298.747 21.6489 299.024 21.6226C299.189 21.6078 299.292 21.6144 299.422 21.6571C299.578 21.7079 299.734 21.7621 299.989 21.7359C300.266 21.7063 300.56 21.703 300.841 21.6784C301.1 21.6554 301.235 21.7276 301.399 21.7703C301.598 21.8212 301.819 21.7638 302 21.7933C302.191 21.8228 302.325 21.895 302.545 21.9082C302.865 21.8639 303.069 21.9459 303.311 22.0001C303.501 22.0411 303.726 22.005 303.929 21.987C304.159 21.9673 304.349 21.9853 304.509 22.0444C304.691 22.1117 304.894 22.0969 305.102 22.0822C305.586 22.0493 305.603 22.0444 305.885 22.1347C306.088 22.2003 306.283 22.1708 306.486 22.1626C306.663 22.2069 306.836 22.2545 307.022 22.2939C307.07 22.3037 307.161 22.2873 307.234 22.2824C307.446 22.2693 307.663 22.2561 307.874 22.243C308.017 22.2348 308.169 22.2102 308.298 22.22C308.428 22.2315 308.536 22.2791 308.653 22.3103C308.77 22.3415 308.891 22.3727 309.004 22.4055C309.177 22.4547 309.341 22.4958 309.583 22.4712C309.791 22.4498 310.007 22.4432 310.223 22.4285C310.496 22.4104 310.487 22.4153 310.993 22.5138C311.266 22.568 311.547 22.5023 311.824 22.4958C311.962 22.4925 312.096 22.5105 312.191 22.5581C312.23 22.5778 312.217 22.6107 312.23 22.6386C311.517 22.6829 310.799 22.7206 310.093 22.7748C309.821 22.7961 309.678 22.737 309.531 22.6878C309.289 22.609 308.969 22.7239 308.74 22.6221C308.601 22.5614 308.402 22.527 308.164 22.5565C308.026 22.5729 307.879 22.5713 307.736 22.586C307.373 22.6221 307.04 22.6238 306.75 22.5105C306.65 22.4711 306.508 22.4498 306.404 22.4121C306.283 22.371 306.166 22.348 306.023 22.3562C305.379 22.3956 304.738 22.435 304.098 22.4777C304.042 22.481 303.986 22.5056 303.938 22.5237C303.817 22.5696 303.856 22.6057 304.051 22.6353C304.115 22.6451 304.167 22.6665 304.228 22.6829C304.345 22.714 304.453 22.7633 304.583 22.7748C304.712 22.7863 304.864 22.7633 305.007 22.7551C305.149 22.7469 305.301 22.7223 305.431 22.7321C305.56 22.7436 305.668 22.7912 305.789 22.8207C305.846 22.8355 305.915 22.8601 305.971 22.8585C306.257 22.8486 306.538 22.8306 306.823 22.8158C307.001 22.8601 307.152 22.9241 307.364 22.9389C307.498 22.9488 307.641 22.9307 307.779 22.934C307.84 22.9356 307.918 22.9603 307.948 22.9816C307.965 22.9947 307.909 23.0275 307.866 23.044C307.701 23.1063 307.477 23.0948 307.273 23.1145C307.053 23.1359 306.854 23.1293 306.685 23.0653C306.572 23.0226 306.447 22.9997 306.309 23.0079C305.949 23.0292 305.595 23.0538 305.236 23.0719C305.175 23.0752 305.102 23.0604 305.045 23.0489C304.591 22.9488 304.591 22.9455 304.271 22.9668C303.8 22.998 303.8 22.998 303.484 22.911C303.423 22.8946 303.358 22.8634 303.307 22.8651C302.805 22.8913 302.307 22.9176 301.81 22.9553C301.646 22.9668 301.533 22.9668 301.412 22.9242C301.308 22.888 301.187 22.847 301.057 22.8372C300.923 22.8273 300.776 22.8519 300.633 22.8601C300.491 22.8683 300.339 22.8897 300.214 22.8765C300.084 22.8634 299.971 22.8175 299.859 22.7846C299.742 22.7502 299.617 22.7518 299.457 22.7649C298.964 22.8027 298.959 22.7978 298.47 22.696C298.414 22.6845 298.341 22.6714 298.28 22.6747C297.921 22.6944 297.566 22.719 297.207 22.7387C297.069 22.7469 296.935 22.7256 296.84 22.678C296.801 22.6583 296.814 22.6254 296.788 22.5614C296.758 22.5466 296.792 22.5729 296.801 22.5975C296.866 22.5943 296.944 22.5975 296.991 22.5844C297.112 22.5532 297.173 22.5122 297.142 22.4777C297.125 22.4596 297.043 22.4367 296.991 22.4367C296.896 22.4367 296.814 22.4728 296.788 22.5614C296.515 22.6156 296.225 22.6271 295.944 22.6533C295.78 22.6697 295.676 22.6615 295.546 22.6189C295.391 22.5663 295.231 22.5155 294.975 22.5417C294.698 22.5713 294.404 22.5762 294.119 22.5992C293.79 22.6254 293.647 22.4777 293.371 22.481C293.085 22.4843 292.8 22.5122 292.514 22.5319C292.263 22.5483 292.263 22.5483 291.744 22.4416C291.554 22.4022 291.329 22.4597 291.143 22.4186C291.017 22.3924 290.909 22.353 290.788 22.3251C290.736 22.3136 290.654 22.3136 290.589 22.3169C290.23 22.3366 289.867 22.3497 289.521 22.3858C289.127 22.4285 288.829 22.3825 288.547 22.2857C288.193 22.3037 287.834 22.3136 287.483 22.3448C287.228 22.3677 287.081 22.3136 286.908 22.2693C286.847 22.2545 286.796 22.2299 286.731 22.2233C286.666 22.2167 286.588 22.2299 286.519 22.2348C286.233 22.2528 285.939 22.2611 285.662 22.2906C285.32 22.3284 285.191 22.1938 284.927 22.1774C284.749 22.2578 284.654 22.3677 284.304 22.3759C284.018 22.3825 283.733 22.4088 283.447 22.4268C283.305 22.435 283.162 22.4449 283.019 22.4531C282.79 22.4679 282.682 22.5319 282.729 22.6304C282.755 22.6845 282.777 22.7387 282.799 22.7928C282.842 22.8897 282.734 22.9717 282.552 22.9832C282.05 23.0144 281.553 23.0472 281.051 23.0751C280.917 23.0833 280.787 23.0554 280.679 23.0111C280.567 22.9668 280.441 22.9471 280.303 22.9553C279.801 22.9865 279.303 23.0193 278.802 23.0472C278.745 23.0505 278.672 23.0341 278.616 23.021C278.495 22.9914 278.378 22.957 278.261 22.9258C277.976 22.9406 277.694 22.9504 277.413 22.9701C276.959 22.9996 276.959 23.0013 276.626 22.911C276.565 22.8946 276.505 22.8634 276.449 22.8651C276.232 22.8716 276.02 22.888 275.804 22.9028C275.168 22.9455 275.168 22.9455 274.982 22.8962C274.813 22.8503 274.662 22.7945 274.407 22.8207C274.13 22.8503 273.836 22.8601 273.55 22.8765C273.338 22.888 273.126 22.9012 272.914 22.9045C272.858 22.9061 272.798 22.8749 272.737 22.8585C272.564 22.8076 272.395 22.7666 272.157 22.7945C272.019 22.8109 271.872 22.8142 271.729 22.8224C271.357 22.8454 271.357 22.8454 270.747 22.7469C270.687 22.737 270.613 22.7255 270.553 22.7305C270.051 22.76 269.553 22.7928 269.052 22.8207C268.991 22.824 268.918 22.8142 268.857 22.806C268.174 22.7108 268.174 22.7108 267.447 22.7567C267.17 22.7731 267.161 22.7797 266.872 22.6927C266.742 22.655 266.634 22.6369 266.482 22.6484C265.911 22.6878 265.336 22.7141 264.769 22.76C264.514 22.7797 264.367 22.7305 264.194 22.6861C264.133 22.6714 264.069 22.6386 264.017 22.6402C263.446 22.6714 262.875 22.7091 262.304 22.7403C262.252 22.7436 262.187 22.7108 262.126 22.696C262.009 22.6665 261.897 22.6221 261.767 22.6123C261.633 22.6025 261.486 22.6271 261.339 22.6353C260.98 22.6566 260.98 22.655 260.565 22.5581C260.508 22.545 260.435 22.527 260.379 22.5302C259.808 22.5631 259.232 22.591 258.666 22.6386C258.341 22.6648 258.121 22.6172 257.891 22.5483C257.844 22.5335 257.762 22.527 257.701 22.5302C257.057 22.568 256.416 22.6107 255.772 22.6484C255.638 22.6566 255.508 22.6287 255.4 22.586C255.227 22.5187 255.024 22.5269 254.807 22.5417C254.31 22.5762 254.305 22.5746 254.011 22.4958C253.951 22.4794 253.899 22.458 253.834 22.4498C253.773 22.4416 253.696 22.4465 253.631 22.4498C253.345 22.4662 253.06 22.4843 252.774 22.5023C252.489 22.5204 252.199 22.5302 251.918 22.5581C251.572 22.5926 251.407 22.4859 251.165 22.4367C250.81 22.458 250.447 22.4711 250.097 22.5056C249.828 22.5319 249.703 22.4597 249.526 22.4219C249.465 22.4088 249.4 22.3809 249.344 22.3842C248.699 22.4203 248.055 22.4597 247.415 22.504C247.259 22.5138 247.155 22.5007 247.025 22.4613C246.736 22.3727 246.723 22.376 246.238 22.4088C246.026 22.4236 245.823 22.4367 245.641 22.3694C245.481 22.3087 245.287 22.2939 245.057 22.3136C244.776 22.3382 244.486 22.3513 244.201 22.3677C243.915 22.3858 243.63 22.4104 243.344 22.4186C243.115 22.4268 242.977 22.3497 242.795 22.3103C242.739 22.2988 242.661 22.2972 242.596 22.3004C242.31 22.3152 242.016 22.3267 241.74 22.3546C241.402 22.3891 241.216 22.2988 240.978 22.2463C240.926 22.2348 240.84 22.2414 240.775 22.2463C240.273 22.2758 239.776 22.3087 239.274 22.3398C239.096 22.2955 238.915 22.2529 238.737 22.2085C238.452 22.225 238.166 22.243 237.881 22.2594C237.665 22.2725 237.444 22.2775 237.241 22.3021C236.977 22.3349 236.847 22.2578 236.67 22.22C236.609 22.2069 236.544 22.179 236.488 22.1823C236.129 22.2003 235.77 22.22 235.415 22.2479C235.078 22.2758 234.944 22.1281 234.667 22.1297C234.382 22.1314 234.087 22.1527 233.811 22.1823C233.49 22.2167 233.265 22.1642 233.036 22.0936C232.989 22.0789 232.906 22.0707 232.846 22.0739C232.487 22.0936 232.132 22.1183 231.773 22.138C231.713 22.1412 231.639 22.133 231.579 22.1232C230.895 22.0264 230.895 22.0247 230.597 22.0444C230.385 22.0575 230.168 22.074 229.952 22.0822C229.892 22.0854 229.818 22.0707 229.762 22.0575C229.312 21.9574 229.312 21.9558 228.987 21.9755C228.702 21.9935 228.416 22.0116 228.131 22.0296C227.954 21.9853 227.772 21.9427 227.595 21.8983C227.24 21.9197 226.876 21.9361 226.526 21.9656C226.362 21.9788 226.254 21.9738 226.128 21.9328C225.972 21.8836 225.817 21.8261 225.557 21.854C225.28 21.8836 224.986 21.8868 224.705 21.9115C224.368 21.941 224.229 21.7917 223.957 21.7933C223.671 21.7949 223.377 21.8163 223.1 21.8458C222.78 21.8803 222.555 21.8278 222.326 21.7572C222.278 21.7424 222.196 21.7342 222.136 21.7375C221.348 21.7851 220.565 21.8327 219.778 21.8836C219.294 21.9147 219.294 21.9164 218.372 21.8261C218.307 21.8195 218.238 21.813 218.173 21.8163C217.888 21.831 217.594 21.8425 217.317 21.8704C216.979 21.9049 216.793 21.8163 216.555 21.7621C216.504 21.7506 216.421 21.7572 216.352 21.7605C216.136 21.7719 215.924 21.7867 215.708 21.7999C215.422 21.8179 215.137 21.836 214.851 21.854C214.674 21.8113 214.492 21.767 214.315 21.7244C213.96 21.7457 213.597 21.7572 213.246 21.7917C212.978 21.8179 212.853 21.749 212.675 21.7096C212.615 21.6965 212.55 21.6686 212.494 21.6702C211.849 21.7063 211.205 21.7441 210.564 21.79C210.301 21.8097 210.179 21.7358 210.002 21.6981C209.942 21.6866 209.872 21.6653 209.816 21.6686C209.388 21.6915 208.96 21.7194 208.531 21.7473C208.289 21.7637 208.289 21.7637 207.761 21.662C207.701 21.6505 207.632 21.639 207.571 21.6423C206.213 21.7244 204.859 21.8113 203.501 21.8934C203.362 21.9016 203.237 21.877 203.129 21.8327C203.016 21.7884 202.891 21.7654 202.752 21.7736C202.181 21.8081 201.606 21.8393 201.039 21.8819C200.806 21.9 200.62 21.8786 200.46 21.8212C200.339 21.7785 200.226 21.7621 200.075 21.772C199.789 21.7917 199.504 21.8081 199.218 21.8261C198.933 21.8442 198.647 21.8622 198.362 21.8803C198.076 21.8983 197.786 21.9082 197.505 21.9361C197.159 21.9706 196.991 21.8688 196.753 21.8179C196.324 21.8425 195.896 21.8672 195.472 21.8934C194.901 21.9279 194.33 21.9656 193.759 21.9985C193.707 22.0017 193.642 21.9722 193.582 21.9574C193.405 21.9164 193.275 21.8589 193.011 21.877C191.73 21.964 190.441 22.0378 189.157 22.1232C188.889 22.1413 188.772 22.0707 188.59 22.0329C188.53 22.0214 188.46 21.9985 188.404 22.0017C187.69 22.0428 186.977 22.0887 186.263 22.133C185.973 22.1511 185.973 22.1511 185.489 22.0493C185.432 22.0378 185.359 22.0231 185.298 22.0263C184.368 22.0821 183.443 22.1412 182.513 22.1987C182.374 22.2069 182.249 22.1839 182.136 22.1396C182.028 22.0953 181.898 22.0707 181.764 22.0789C180.908 22.1314 180.047 22.1823 179.195 22.2397C178.965 22.2561 178.775 22.2414 178.611 22.1823C178.494 22.1396 178.377 22.1215 178.23 22.1314C176.945 22.2118 175.661 22.289 174.376 22.3743C174.129 22.3907 173.956 22.3595 173.801 22.3054C173.675 22.2627 173.567 22.2545 173.411 22.2611C173.247 22.2693 173.148 22.2873 173.057 22.3366C172.94 22.4006 172.866 22.481 172.589 22.4859C172.304 22.4908 172.014 22.5105 171.733 22.5385C171.465 22.5664 171.339 22.4925 171.171 22.4482C171.045 22.417 170.928 22.4121 170.768 22.4268C170.621 22.44 170.53 22.4679 170.444 22.5204C170.254 22.632 170.236 22.632 170.003 22.5614C169.877 22.5237 169.765 22.4941 169.626 22.5007C169.055 22.5335 168.484 22.5696 167.913 22.6074C167.585 22.6287 167.58 22.632 167.334 22.5499C167.213 22.5089 167.096 22.4892 166.953 22.499C165.383 22.5975 163.813 22.6927 162.243 22.7961C162 22.8125 161.836 22.7781 161.663 22.7288C161.607 22.7124 161.55 22.6894 161.486 22.6829C161.421 22.6763 161.347 22.6829 161.278 22.6861C160.136 22.7567 158.99 22.824 157.852 22.9028C157.592 22.9209 157.454 22.8683 157.277 22.8257C157.216 22.8109 157.164 22.7879 157.099 22.7814C157.034 22.7764 156.957 22.7879 156.887 22.7928C155.745 22.8634 154.599 22.9307 153.461 23.0095C153.189 23.0276 153.072 22.9586 152.895 22.9225C152.834 22.9094 152.769 22.8847 152.713 22.888C152.354 22.9061 151.999 22.9307 151.64 22.952C150.784 23.0062 149.927 23.0571 149.071 23.1129C148.742 23.1342 148.599 22.9881 148.322 22.9947C147.963 23.0029 147.609 23.0357 147.25 23.0587C146.964 23.0768 146.679 23.0932 146.393 23.1129C146.112 23.131 146.112 23.1309 145.411 23.0357C145.351 23.0275 145.277 23.0161 145.217 23.0193C144.217 23.0801 143.214 23.1408 142.219 23.2064C141.99 23.2212 141.799 23.213 141.635 23.1523C141.518 23.1096 141.397 23.0883 141.254 23.0981C139.753 23.1917 138.257 23.2852 136.756 23.3771C136.699 23.3804 136.626 23.364 136.57 23.3509C136.449 23.3213 136.332 23.2869 136.215 23.2557C136.128 23.2934 136.016 23.3279 135.96 23.3706C135.882 23.428 135.778 23.4444 135.614 23.4543C135.449 23.4641 135.346 23.4609 135.216 23.4182C135.06 23.3657 134.9 23.3246 134.645 23.341C133.075 23.4444 131.504 23.538 129.934 23.6398C129.675 23.6562 129.554 23.5839 129.372 23.5462C129.311 23.5347 129.242 23.5167 129.186 23.5199C128.541 23.5577 127.901 23.5987 127.257 23.6381C125.47 23.7497 123.684 23.8564 121.901 23.9746C121.577 23.9959 121.356 23.9549 121.127 23.8843C121.08 23.8695 120.997 23.8613 120.937 23.8646C118.437 24.0189 115.936 24.1748 113.44 24.3307C113.306 24.3389 113.177 24.3127 113.068 24.27C112.956 24.2257 112.831 24.2044 112.692 24.2126C111.55 24.2831 110.408 24.3537 109.266 24.4259C108.981 24.444 108.976 24.4456 108.682 24.3668C108.622 24.3504 108.557 24.3193 108.509 24.3225C108.41 24.3307 108.315 24.3718 108.245 24.4276C108.176 24.4866 108.068 24.5031 107.908 24.5146C107.744 24.526 107.635 24.5211 107.51 24.4817C107.35 24.4325 107.203 24.3849 106.943 24.4013C103.66 24.6114 100.377 24.8133 97.0937 25.0217C96.8299 25.0381 96.7087 24.9692 96.527 24.9314C96.4665 24.92 96.406 24.9035 96.3411 24.9003C96.2719 24.897 96.1983 24.9068 96.1291 24.9118C90.7739 25.2449 85.4188 25.5798 80.0637 25.9129C79.7436 25.9326 79.7479 25.9326 79.3975 26.0836C79.3542 26.1017 79.298 26.1263 79.2374 26.1296C77.598 26.2346 75.9543 26.3364 74.3105 26.4381C73.5968 26.4825 72.8831 26.5284 72.1693 26.5711C71.9141 26.5859 71.9141 26.5859 71.3042 26.7631C71.2523 26.7779 71.1917 26.7976 71.1311 26.8009C68.2762 26.9798 65.4212 27.1587 62.562 27.3343C62.337 27.3474 62.1554 27.377 62.0516 27.4558C61.978 27.5116 61.8829 27.5444 61.7401 27.5542C59.7417 27.679 57.7433 27.8054 55.7405 27.9268C55.5026 27.9416 55.3598 27.9875 55.243 28.0565C55.204 28.0795 55.1694 28.1057 55.1132 28.1221C55.0613 28.1369 54.9834 28.1418 54.9186 28.1467C53.2056 28.2534 51.4927 28.3634 49.7754 28.4652C49.5202 28.4799 49.4163 28.5407 49.2909 28.6047C49.2476 28.626 49.2173 28.6556 49.1611 28.6703C49.1048 28.6835 49.0227 28.6835 48.9535 28.6867C47.526 28.7754 46.0986 28.8656 44.6711 28.9543C44.3942 28.9461 44.3337 29.0413 44.1996 29.0987C44.152 29.1184 44.1174 29.1447 44.0612 29.1578C44.0007 29.1709 43.9227 29.1693 43.8492 29.1726C42.7072 29.2431 41.5652 29.3186 40.4189 29.3843C40.1551 29.3991 40.1031 29.4828 39.9604 29.5402C39.9128 29.5583 39.8653 29.5862 39.8091 29.5911C39.0953 29.6387 38.3816 29.683 37.6679 29.7257C37.43 29.7404 37.43 29.7388 37.0104 29.9013C36.9628 29.9193 36.9065 29.939 36.8459 29.944C35.7775 30.0129 34.7048 30.0786 33.632 30.1458C33.4936 30.1541 33.3984 30.1934 33.3292 30.2493C33.26 30.3051 33.1605 30.3412 33.0221 30.3494C32.1656 30.4035 31.3091 30.4593 30.4526 30.5086C30.2147 30.5217 30.059 30.5627 29.9552 30.6366C29.8773 30.6924 29.7822 30.7203 29.6308 30.7301C28.7743 30.7827 27.9178 30.8401 27.057 30.8861C26.8061 30.8992 26.6763 30.955 26.5725 31.0239C26.4903 31.0797 26.3951 31.0994 26.2351 31.1093C24.6649 31.2045 23.0904 31.2997 21.5245 31.4047C21.2606 31.4228 21.1265 31.3653 20.9535 31.3243C20.7069 31.2668 20.4777 31.2045 20.4777 31.0764C20.4777 31.0568 20.4042 31.0338 20.3522 31.0174C19.9673 30.8943 19.9673 30.8943 19.9067 30.763C19.8721 30.6826 19.8332 30.6005 19.8029 30.5184C19.7466 30.3838 19.6082 30.3494 19.2102 30.374C19.0675 30.3822 18.9247 30.3937 18.782 30.4002C18.57 30.4117 18.41 30.3576 18.3711 30.2591C18.3494 30.2049 18.3235 30.1508 18.3019 30.0966C18.5182 30.0835 18.5138 30.0818 18.8944 29.8832C19.0545 29.7995 19.0546 29.7995 18.7474 29.7158C18.6307 29.6846 18.5182 29.6502 18.3927 29.6206C18.3365 29.6075 18.263 29.5993 18.2024 29.6026C17.8434 29.6223 17.4887 29.6452 17.134 29.6682C16.563 29.7043 16.5629 29.7043 15.9833 29.5369C15.9357 29.5238 15.8622 29.4992 15.8708 29.486C15.9184 29.4253 16.0352 29.399 16.1823 29.3925C16.3985 29.3826 16.6105 29.3662 16.8224 29.3531C16.9652 29.3449 17.1079 29.335 17.2507 29.3268C17.3848 29.2645 17.5233 29.2037 17.6487 29.1397C17.8477 29.0413 17.8476 29.038 17.5751 28.969C17.4021 28.9231 17.2161 28.882 17.0387 28.8394C16.8268 28.8525 16.6105 28.8673 16.3985 28.8788C16.1303 28.8935 16.0222 28.8623 15.953 28.7557C15.8924 28.6621 15.966 28.5817 16.1736 28.562C16.3856 28.5423 16.5846 28.5292 16.6928 28.4455C16.7966 28.365 16.9782 28.3338 17.2032 28.3273C17.3459 28.3224 17.4886 28.3109 17.6314 28.301C17.8174 28.2879 17.9169 28.2042 17.878 28.1106C17.8564 28.0499 17.8131 27.999 17.6444 27.9859C16.896 27.9285 16.8873 27.9301 16.5153 27.8185C16.4807 27.8086 16.4548 27.7791 16.4678 27.7643C16.4894 27.7397 16.537 27.7036 16.5889 27.6987C17.0864 27.6626 17.5838 27.6297 18.0813 27.6051C18.2457 27.5969 18.3668 27.5854 18.423 27.5247C18.5009 27.441 18.4663 27.3638 18.3149 27.3064C18.2673 27.2883 18.1894 27.2654 18.1375 27.267C17.5665 27.2966 16.9998 27.3343 16.4288 27.3638C16.3769 27.3671 16.2818 27.3392 16.2602 27.3179C16.2169 27.2785 16.2818 27.226 16.4332 27.2079C16.6322 27.1833 16.8355 27.1817 16.9696 27.0996C17.1556 26.9831 17.3848 26.8764 17.5924 26.7648C17.627 26.7451 17.6833 26.7073 17.6704 26.704C17.5622 26.6679 17.4368 26.64 17.3243 26.6056C17.134 26.5481 17.1339 26.4677 17.1772 26.3906C17.2118 26.3282 17.3416 26.3036 17.5016 26.3036C17.5708 26.3036 17.6573 26.3036 17.7136 26.2888C17.8606 26.2527 17.9082 26.2067 17.8347 26.1723C17.7914 26.1526 17.7136 26.1247 17.6617 26.128C16.736 26.1821 15.8059 26.2346 14.8846 26.3019C14.612 26.3216 14.4867 26.2592 14.3223 26.2149C14.1969 26.1805 14.08 26.1673 13.9243 26.192C13.7772 26.2149 13.6345 26.2018 13.5437 26.1477C13.4701 26.1033 13.5999 26.0656 13.9503 26.0229C14.0151 26.0147 14.0886 26.0098 14.1362 25.9934C14.638 25.8161 14.638 25.8145 14.984 25.7915C15.3214 25.7702 15.3215 25.7685 15.4989 25.6733C15.5811 25.629 15.6718 25.5847 15.7497 25.5387C15.78 25.5207 15.8319 25.4878 15.8146 25.478C15.7195 25.4271 15.5897 25.4156 15.4383 25.4271C15.1009 25.455 14.7029 25.432 14.5256 25.588C14.4564 25.6471 14.3482 25.6635 14.1925 25.6733C12.6266 25.7685 11.0607 25.8703 9.49047 25.9622C9.23526 25.977 9.11853 26.0377 9.01904 26.105C8.93253 26.1608 8.83734 26.1772 8.67297 26.187C8.50859 26.1969 8.37876 26.2018 8.2836 26.1477C8.22736 26.1148 8.27496 26.0689 8.40473 26.0229C8.59073 25.9573 8.55611 25.8752 8.49555 25.7981C8.45229 25.7472 8.3182 25.7111 8.17545 25.7144C7.9635 25.7209 7.76025 25.739 7.58289 25.6733C7.47908 25.6356 7.34928 25.6093 7.23249 25.5765C7.00756 25.5092 6.78261 25.4403 6.46684 25.4846C6.25056 25.4682 6.09916 25.4091 5.92613 25.3631C5.63631 25.2876 5.61036 25.2761 5.81799 25.1957C6.05158 25.1054 5.86986 24.9872 5.99963 24.8986C6.13806 24.8034 6.32845 24.7197 6.49715 24.6311C6.54041 24.6081 6.57935 24.5868 6.62261 24.5638C6.52312 24.531 6.4323 24.49 6.3155 24.467C6.16411 24.4374 6.08624 24.4013 6.09489 24.2996C6.06461 24.2848 6.0775 24.3225 6.11211 24.3324C6.15104 24.3422 6.24627 24.334 6.29386 24.3225C6.41497 24.2914 6.47547 24.2503 6.44519 24.2158C6.42789 24.1978 6.34576 24.1748 6.29386 24.1748C6.19869 24.1748 6.11652 24.2109 6.09056 24.2996C5.60609 24.3668 5.10423 24.3997 4.60246 24.4259C4.55055 24.4292 4.4857 24.3964 4.42514 24.38C4.22616 24.3242 4.22614 24.3258 3.64217 24.3094C3.58161 24.3078 3.49947 24.2848 3.46919 24.2618C3.34374 24.1617 3.3481 24.0517 3.28754 23.945C3.40001 23.8761 3.51239 23.8088 3.62918 23.7415C3.86277 23.6053 4.16563 23.4855 4.34731 23.3361C4.30838 23.2557 4.25646 23.1753 4.44679 23.1096C4.9875 23.0276 4.98321 23.0276 5.13028 22.9488C5.54987 22.7256 5.96511 22.5007 6.402 22.2808C6.51879 22.2233 6.51881 22.1921 6.31117 22.1675C6.24629 22.1609 6.17699 22.1593 6.10778 22.1626C5.89149 22.1741 5.67521 22.2036 5.46326 22.197C5.2513 22.1921 5.09558 22.1199 4.92255 22.0756C4.7452 22.0296 4.56785 21.982 4.3905 21.9344C4.1872 21.9394 3.98393 21.9853 3.78062 21.9115C3.6249 21.854 3.43026 21.813 3.2529 21.7654C3.387 21.6406 3.63793 21.5455 3.83258 21.4355C4.00993 21.3354 4.01416 21.337 4.48998 21.2599C4.71492 21.2238 4.79278 21.0383 4.60246 20.9841C4.3732 20.9185 4.13101 20.8577 3.89742 20.7954C3.69412 20.8003 3.48653 20.8446 3.29187 20.7708C3.14048 20.715 2.96741 20.6772 2.71653 20.6985C2.29261 20.7347 1.86006 20.7527 1.43182 20.7823C1.28475 20.7921 1.12465 20.7855 1.05977 20.7297C1.01651 20.6903 1.14196 20.6362 1.28471 20.6247C1.50099 20.6083 1.69562 20.5886 1.80377 20.5065C1.90758 20.4245 2.09789 20.3998 2.32282 20.3883C2.38338 20.3851 2.45264 20.3654 2.48292 20.3457C2.63865 20.2505 2.81169 20.1684 3.14476 20.1717C3.28318 20.1389 3.35667 20.0978 3.31342 20.0584C3.28746 20.0371 3.19667 20.0092 3.14476 20.0125C2.78573 20.0289 2.42672 20.0453 2.07634 20.0749C1.91196 20.088 1.78645 20.0913 1.68263 20.042C1.6091 20.0092 1.64803 19.9649 1.78645 19.9173C1.90756 19.8763 1.94221 19.8287 1.93356 19.7729C1.91193 19.6432 1.78213 19.6054 1.36687 19.6137C1.0684 19.6202 0.994859 19.5989 0.929974 19.4873C0.912672 19.461 0.869491 19.4249 0.899771 19.4068C1.08577 19.2952 1.2069 19.1574 1.55728 19.1049C1.6957 19.0852 1.84271 19.0852 1.92923 19.0425C2.01574 18.9998 2.09364 18.9506 2.18448 18.9095C2.29695 18.8603 2.37473 18.8144 2.32282 18.7832C2.23631 18.7274 2.09794 18.7224 1.93789 18.7421C1.79947 18.7585 1.6524 18.7602 1.50965 18.77C1.25444 18.7881 1.04685 18.7454 1.01657 18.6732C0.934385 18.4828 0.847846 18.2941 0.77431 18.1037C0.765659 18.0807 0.787228 18.0511 0.821833 18.0314C0.942952 17.9625 1.07277 17.8969 1.19822 17.8296C1.34529 17.7524 1.57891 17.7672 1.77789 17.7524C2.05906 17.7311 2.05896 17.7327 2.4353 17.5752C2.58237 17.5128 2.83759 17.5374 2.98899 17.4816C3.03657 17.4636 3.11011 17.434 3.09713 17.4176C3.07983 17.3963 2.99336 17.3798 2.92848 17.37C2.86792 17.3601 2.7944 17.3552 2.72952 17.3602C1.94225 17.4078 1.15932 17.4586 0.372053 17.5046C0.237958 17.5128 0.0908811 17.4767 0.0432988 17.4258C-0.00428342 17.3782 0.00865132 17.3208 0 17.2666C0.125444 17.1993 0.268136 17.1369 0.376277 17.0647C0.458465 17.0089 0.553646 16.9843 0.718021 16.981C0.934304 16.9761 1.14628 16.9564 1.38852 16.9416C1.83839 16.702 2.27958 16.4509 2.76405 16.2113C2.9587 16.1144 2.9112 16.0159 2.95013 15.9125C2.98906 15.8173 3.27886 15.8321 3.47352 15.8042C3.62924 15.7812 3.68108 15.7287 3.62052 15.6926C3.58592 15.6713 3.5081 15.6466 3.44754 15.6466C3.30479 15.6466 3.16205 15.6614 3.0193 15.6696C2.87655 15.6778 2.71219 15.6729 2.5954 15.7008C2.48293 15.7271 2.40935 15.7829 2.33581 15.8305C2.25363 15.883 2.14556 15.901 1.98119 15.9043C1.76923 15.9076 1.55728 15.9224 1.34533 15.9339C1.11174 15.8699 0.869453 15.8075 0.644519 15.7402C0.601262 15.7271 0.592565 15.6893 0.59689 15.6647C0.605542 15.6007 0.540674 15.5613 0.397927 15.5301C0.276808 15.5038 0.17731 15.4661 0.0648426 15.4333C0.151356 15.389 0.246554 15.3463 0.315765 15.2987C0.467163 15.1986 0.657513 15.1264 0.986263 15.1296C1.11603 15.0656 1.21982 14.9868 1.38852 14.9425C1.54857 14.8999 1.8211 14.9425 1.94222 14.8457C2.00278 14.7981 2.09367 14.7439 2.21046 14.7242C2.39646 14.693 2.63869 14.7095 2.74684 14.6176C2.81172 14.565 2.90685 14.5174 3.03229 14.5043C3.17504 14.4895 3.32207 14.4863 3.42589 14.4551C3.48212 14.4387 3.54269 14.4124 3.54269 14.3894C3.54269 14.3746 3.45624 14.3517 3.39568 14.3418C3.33945 14.3303 3.26583 14.3221 3.20095 14.3254C2.98466 14.3353 2.77271 14.3533 2.55643 14.3631C2.49587 14.3664 2.42668 14.3549 2.36179 14.3451C2.17146 14.3188 2.18442 14.286 2.33581 14.2269C2.48721 14.1695 2.59541 14.0956 2.72086 14.0283C2.85928 14.0168 3.03228 14.0218 3.12744 13.9906C3.28749 13.9397 3.39993 13.8658 3.5297 13.8018C3.67245 13.792 3.81951 13.7887 3.95361 13.7706C4.00984 13.7641 4.03581 13.728 4.0834 13.7066C4.16991 13.6656 4.24351 13.6065 4.3603 13.5868C4.55063 13.5573 4.78421 13.5688 4.89668 13.4785C4.96156 13.426 5.06101 13.3702 5.18213 13.3669C5.51953 13.3603 5.66228 13.27 5.83531 13.1847C5.96508 13.1207 6.24193 13.1535 6.38468 13.0895C6.47984 13.0485 6.54909 12.9976 6.64426 12.9582C6.68319 12.9418 6.76535 12.9336 6.83023 12.9287C7.18494 12.904 7.54395 12.886 7.89866 12.8597C7.95489 12.8548 8.00684 12.8302 8.0501 12.8105C8.14094 12.7678 8.19711 12.7087 8.30957 12.6808C8.42204 12.6529 8.58207 12.6529 8.72049 12.6447C9.16603 12.6201 9.20067 12.6267 9.40398 12.4871C9.56835 12.3739 9.97069 12.4543 10.1048 12.3296C10.1826 12.2574 10.3253 12.1983 10.5805 12.1901C10.9396 12.1786 11.2943 12.1474 11.6533 12.1261C11.9734 12.1064 11.9691 12.1064 12.3151 11.9537C12.4709 11.8848 12.7002 11.8946 12.9035 11.8815C13.1198 11.8684 13.3187 11.8487 13.4225 11.7666C13.5263 11.6862 13.7167 11.6599 13.9373 11.6484C14.1406 11.637 14.3699 11.6452 14.5299 11.5795C14.9192 11.422 14.9149 11.4203 15.1874 11.4039C15.6157 11.3776 16.0439 11.3514 16.4721 11.3235C16.7576 11.3054 17.0561 11.3021 17.3243 11.266C17.5189 11.2398 17.6054 11.1479 17.7309 11.0838C18.0856 11.0592 18.4403 11.0346 18.795 11.0116C19.2924 10.9788 19.7942 10.9493 20.296 10.9181C20.5122 10.8557 20.5426 10.7178 20.9059 10.7113C21.1222 10.708 21.3342 10.6867 21.5505 10.6735C21.9095 10.6505 22.2642 10.621 22.6232 10.6095C22.8957 10.6013 22.9432 10.5127 23.086 10.4569C23.1336 10.4372 23.1769 10.4093 23.2331 10.4043C23.7954 10.3584 24.375 10.3485 24.9244 10.2813C24.9806 10.2747 25.0325 10.2402 25.0455 10.2156C25.0542 10.2025 24.9806 10.1779 24.9331 10.1664C24.8768 10.1532 24.8033 10.1401 24.7428 10.1434C22.9563 10.2534 21.1698 10.365 19.3833 10.4749C19.1324 10.4913 19.1324 10.4897 18.5225 10.6702C18.4706 10.685 18.41 10.7014 18.3451 10.7063C18.0596 10.726 17.7698 10.7375 17.4886 10.7622C17.2594 10.7819 17.0691 10.7621 16.9047 10.7031C16.7879 10.6604 16.6667 10.6473 16.5197 10.6505C16.3553 10.6555 16.2472 10.6735 16.1521 10.7178C16.0266 10.7786 15.9617 10.8573 15.6978 10.8738C14.4823 10.9443 13.2667 11.0231 12.0556 11.0986C11.8869 11.0756 11.8047 11.0412 11.8479 11.0001C11.8739 10.9755 11.9258 10.9427 11.9777 10.9394C12.4752 10.9049 12.9769 10.8754 13.4744 10.8426C13.5436 10.8377 13.6387 10.8409 13.6777 10.8245C13.868 10.7507 13.9373 10.6308 14.2963 10.6226C14.504 10.6177 14.7159 10.5931 14.9149 10.5701C14.9711 10.5636 15.023 10.5291 15.036 10.5045C15.0403 10.4913 14.9711 10.4667 14.9192 10.4552C14.7289 10.4076 14.5083 10.4651 14.318 10.4323C14.2531 10.4208 14.1622 10.4043 14.1492 10.3847C14.1406 10.3666 14.2141 10.3371 14.266 10.319C14.3136 10.3026 14.3784 10.2878 14.4433 10.2829C15.0143 10.2451 15.5854 10.2057 16.1564 10.1762C16.39 10.1647 16.5543 10.1237 16.6581 10.0482C16.736 9.99238 16.8311 9.96284 16.9782 9.95463C17.9774 9.89391 18.9766 9.82661 19.9802 9.77081C20.2311 9.75768 20.3609 9.70352 20.4647 9.63295C20.5469 9.57714 20.6421 9.55744 20.8021 9.5476C22.2339 9.46225 23.657 9.36706 25.0888 9.28499C25.3527 9.27022 25.4306 9.19964 25.5647 9.13892C25.6123 9.11758 25.6425 9.09132 25.703 9.07819C25.7636 9.06506 25.8414 9.06668 25.915 9.0634C27.057 8.99283 28.199 8.91734 29.3453 8.85169C29.6135 8.83692 29.6653 8.75484 29.8038 8.6974C29.8513 8.67934 29.8946 8.64981 29.9509 8.64488C30.8073 8.58908 31.6638 8.53656 32.5203 8.4824C33.0913 8.44629 33.6622 8.41018 34.2332 8.37571C34.5144 8.3593 34.5144 8.35765 34.8951 8.20172C34.9383 8.18367 34.9989 8.16233 35.0552 8.1574C36.6989 8.05236 38.3383 7.95226 39.982 7.84886C40.1205 7.84065 40.2199 7.80289 40.2891 7.74708C40.3584 7.69128 40.4579 7.65353 40.592 7.64532C41.8767 7.56326 43.1614 7.48284 44.4505 7.4057C44.6841 7.39257 44.8484 7.35317 44.9522 7.27932C45.0301 7.22351 45.1252 7.19398 45.2723 7.18577C46.557 7.10699 47.8418 7.02327 49.1309 6.94777C49.3774 6.933 49.4985 6.8772 49.6196 6.81155C49.6629 6.78857 49.6975 6.75082 49.7494 6.74754C50.3896 6.70158 51.0255 6.65398 51.67 6.6228C51.9382 6.60967 52.029 6.54073 52.1372 6.47508C52.2237 6.42256 52.3232 6.40451 52.4876 6.39794C52.8466 6.38317 53.2013 6.35528 53.5517 6.32738C53.6036 6.32245 53.6685 6.28634 53.6728 6.26336C53.6815 6.22069 53.5819 6.19114 53.4176 6.17637C51.7046 6.28305 49.9874 6.38973 48.2744 6.49641C47.9932 6.51447 47.9932 6.51448 47.6126 6.6704C47.5693 6.68846 47.5087 6.7098 47.4481 6.71472C45.8044 6.81812 44.165 6.91988 42.5213 7.02328C42.3828 7.03149 42.2834 7.06924 42.2141 7.12504C42.1449 7.18085 42.0454 7.2186 41.9113 7.2268C40.3411 7.32528 38.7709 7.4254 37.1963 7.51896C36.9628 7.53209 36.7984 7.56982 36.6946 7.64532C36.6167 7.70113 36.5216 7.73068 36.3745 7.73889C34.8735 7.8308 33.3768 7.92763 31.8714 8.01626C31.72 8.02446 31.6076 7.97686 31.6163 7.93255C31.6206 7.90957 31.6854 7.87184 31.7373 7.86856C32.5203 7.81439 33.2989 7.75858 34.0862 7.71755C34.3501 7.70442 34.4279 7.6322 34.562 7.57147C34.6052 7.55013 34.6399 7.52223 34.6961 7.51074C34.7567 7.49761 34.8345 7.49926 34.9081 7.49598C36.7638 7.37945 38.6195 7.26128 40.4796 7.15131C40.7477 7.1349 40.7996 7.05446 40.938 6.99702C40.9856 6.97732 41.0289 6.94779 41.0851 6.94451C41.6561 6.90511 42.2271 6.87064 42.798 6.83617C43.7973 6.77381 44.7965 6.71143 45.8 6.64906C46.0898 6.63101 46.0899 6.631 46.4619 6.47672C46.5051 6.45867 46.5657 6.4357 46.622 6.43242C49.2649 6.26665 51.908 6.10088 54.5509 5.93675C54.6894 5.92854 54.7888 5.89079 54.858 5.83499C54.9272 5.78083 55.0267 5.74143 55.1608 5.73159C58.7338 5.50837 62.3025 5.28514 65.8755 5.06521C66.1091 5.05044 66.2734 5.01597 66.3772 4.93883C66.4508 4.88302 66.5502 4.85349 66.6973 4.84364C70.625 4.59909 74.5527 4.35454 78.4847 4.10834C81.1277 3.94421 83.7707 3.7768 86.4137 3.61595C86.6559 3.60118 86.7857 3.55029 86.9068 3.483C86.9457 3.46002 86.9847 3.42227 87.0366 3.41899C87.6032 3.37795 88.1699 3.34021 88.7365 3.30246C88.9139 3.34678 89.0912 3.38946 89.2686 3.43377C89.4027 3.3714 89.5325 3.30739 89.6666 3.24502C90.5231 3.19742 91.3666 3.12356 92.2317 3.10059C92.2879 3.09894 92.3484 3.13013 92.409 3.14655C92.8113 3.24995 93.0406 3.24174 93.2958 3.10387C93.3866 3.05463 93.4645 3.01032 93.6029 3.00211C94.0311 2.97257 94.4638 2.95287 94.8877 2.9184C95.117 2.90035 95.3072 2.91676 95.4716 2.97585C95.5884 3.01852 95.7096 3.03658 95.8523 3.02673C96.6396 2.9775 97.4225 2.92989 98.2098 2.87737C98.266 2.87409 98.3179 2.84618 98.3611 2.82648C98.452 2.78381 98.5299 2.73786 98.6164 2.69355C98.7332 2.72145 98.863 2.74279 98.9581 2.7789C99.0792 2.82157 99.1917 2.82156 99.356 2.81007C102.496 2.61148 105.641 2.41781 108.782 2.21757C109.05 2.20115 109.167 2.2701 109.348 2.3062C109.409 2.31933 109.469 2.33574 109.534 2.33902C109.604 2.3423 109.677 2.33247 109.746 2.32754C112.104 2.17983 114.461 2.03374 116.819 1.88602C117.13 1.86633 117.13 1.86633 117.593 1.96809C117.649 1.98122 117.723 1.99599 117.783 1.99107C118.856 1.92706 119.929 1.85813 120.997 1.79248C121.136 1.78427 121.253 1.81053 121.378 1.84828C121.625 1.92213 121.642 1.92214 121.823 1.81382C121.91 1.76294 122.001 1.73174 122.144 1.71696C122.299 1.70055 122.425 1.70549 122.546 1.73504C122.719 1.77607 122.844 1.84499 123.108 1.82694C124.25 1.7498 125.397 1.68579 126.534 1.60701C126.794 1.58896 126.932 1.64476 127.105 1.68579C127.166 1.70056 127.222 1.72354 127.287 1.72846C127.352 1.73339 127.43 1.72189 127.499 1.71696C128.926 1.62833 130.358 1.54136 131.781 1.44617C132.049 1.42811 132.166 1.49867 132.348 1.53478C132.408 1.54791 132.478 1.5709 132.534 1.56762C133.39 1.51674 134.251 1.46256 135.108 1.4084C135.415 1.3887 135.415 1.39035 135.882 1.49047C135.938 1.5036 136.012 1.51673 136.072 1.51345C137.072 1.45272 138.075 1.39035 139.074 1.32798C139.381 1.30828 139.381 1.30829 140.268 1.39363C140.333 1.4002 140.402 1.41006 140.467 1.40678C141.609 1.3362 142.755 1.26726 143.897 1.19176C144.127 1.17699 144.317 1.19011 144.481 1.2492C144.598 1.29187 144.719 1.30994 144.862 1.30009C146.147 1.21967 147.436 1.14253 148.716 1.05718C148.963 1.04077 149.123 1.07686 149.296 1.12446C149.352 1.14087 149.408 1.16386 149.473 1.17042C149.538 1.17699 149.612 1.17042 149.681 1.16549C150.966 1.08507 152.255 1.00957 153.535 0.922584C153.794 0.904529 153.933 0.96033 154.106 1.00136C154.167 1.01613 154.231 1.04568 154.283 1.04404C154.785 1.01614 155.287 0.991525 155.784 0.950493C156.052 0.927515 156.169 1.003 156.351 1.03911C156.411 1.0506 156.481 1.07523 156.537 1.07195C157.61 1.00794 158.683 0.940648 159.751 0.871714C159.902 0.861866 160.015 0.876624 160.136 0.919298C160.296 0.976743 160.482 0.999722 160.716 0.981668C161.213 0.943918 161.715 0.917665 162.217 0.88648C162.511 0.868426 162.511 0.868431 163.41 0.953779C163.475 0.960344 163.545 0.970184 163.609 0.966902C164.466 0.91438 165.327 0.863503 166.179 0.806058C166.408 0.789645 166.598 0.804413 166.763 0.863499C166.88 0.906173 166.996 0.924237 167.143 0.914389C167.931 0.86515 168.714 0.815907 169.501 0.766669C169.786 0.748614 170.072 0.717422 170.357 0.717422C170.565 0.719063 170.717 0.797842 170.903 0.837233C170.954 0.848722 171.041 0.835607 171.11 0.832324C172.109 0.769955 173.113 0.712504 174.108 0.641928C174.367 0.623874 174.506 0.679675 174.679 0.720708C174.739 0.735479 174.804 0.765024 174.856 0.763383C175.215 0.745329 175.57 0.720707 175.929 0.69937C176.357 0.673109 176.79 0.653414 177.214 0.617305C177.56 0.587762 177.689 0.73055 177.966 0.735474C178.178 0.740397 178.394 0.7125 178.606 0.69937C179.035 0.673109 179.463 0.643569 179.891 0.620591C180.043 0.612384 180.159 0.586112 180.207 0.527026C180.216 0.515537 180.142 0.490928 180.095 0.476156C179.519 0.308744 179.519 0.308736 178.94 0.344845C178.58 0.367823 178.226 0.390805 177.867 0.4105C177.806 0.413783 177.737 0.400653 177.676 0.390806C177.503 0.362904 177.521 0.330081 177.668 0.270994C177.815 0.211908 177.927 0.139697 178.053 0.072404C178.23 0.115078 178.403 0.157736 178.581 0.20041C178.723 0.192203 178.866 0.18237 179.009 0.174163C179.723 0.13149 180.436 0.0871716 181.15 0.0477805C181.202 0.044498 181.267 0.0773287 181.327 0.0937416C181.5 0.141339 181.656 0.18236 181.907 0.164306C182.547 0.116709 183.192 0.0822413 183.832 0.041209C184.113 0.0231547 184.113 0.0231563 184.606 0.124917C184.662 0.136406 184.736 0.149537 184.796 0.146254C185.441 0.108504 186.081 0.0674769 186.726 0.0280858C186.864 0.0198793 186.998 0.0412154 187.098 0.0888129C187.137 0.108508 187.128 0.141328 187.292 0.4105C187.803 0.628793 188.153 0.605826 188.508 0.58613C188.659 0.577924 188.793 0.569709 188.893 0.536883C188.945 0.518829 189.01 0.492564 189.01 0.471227C189.01 0.454814 188.915 0.428549 188.854 0.425266C188.426 0.39244 188.019 0.461384 187.599 0.476156C187.405 0.482721 187.236 0.425275 187.202 0.331721C187.193 0.305461 187.18 0.27756 187.167 0.2513C187.154 0.225039 187.145 0.197138 187.132 0.170878C186.964 0.162671 186.864 0.19221 186.791 0.248014C186.73 0.29397 186.644 0.346491 186.527 0.371111C186.41 0.397372 186.25 0.392457 186.107 0.400663C185.969 0.408869 185.817 0.430204 185.688 0.418715C185.558 0.405584 185.454 0.357979 185.333 0.328436C185.277 0.313664 185.207 0.292335 185.151 0.295618C184.654 0.32352 184.161 0.351411 183.668 0.38752C183.408 0.407215 183.278 0.338291 183.114 0.295618C182.984 0.262792 182.854 0.270988 182.833 0.346487C182.776 0.52703 182.975 0.602525 183.417 0.568058C183.78 0.538515 184.109 0.533606 184.394 0.645214C184.433 0.659986 184.524 0.666549 184.58 0.663266C184.935 0.643571 185.285 0.618949 185.64 0.599253C185.705 0.595971 185.774 0.602525 185.835 0.609091C186.717 0.697721 186.717 0.699371 187.016 0.679675C187.158 0.669827 187.297 0.66162 187.284 0.412143C187.556 0.144612 187.989 0.126561 188.408 0.08717C188.681 0.0625506 188.798 0.134771 188.975 0.172521C189.036 0.185651 189.101 0.211907 189.157 0.208624C190.087 0.154462 191.012 0.0970082 191.938 0.0362803C192.094 0.0264325 192.206 0.0362819 192.327 0.0789555C192.483 0.133118 192.656 0.167593 192.903 0.147897C193.396 0.108506 193.898 0.0838922 194.399 0.0510663C194.655 0.0346534 194.655 0.0346366 195.169 0.136397C195.226 0.147886 195.299 0.161017 195.36 0.157734C195.861 0.129832 196.359 0.0953757 196.856 0.0658324C196.995 0.0576259 197.12 0.0806016 197.228 0.124917C197.337 0.169232 197.466 0.192207 197.6 0.184001C198.102 0.154458 198.6 0.121642 199.097 0.0920987C199.158 0.0888161 199.231 0.100304 199.287 0.111793C199.815 0.213554 199.815 0.213537 200.057 0.197124C200.412 0.172505 200.775 0.161028 201.126 0.128202C201.468 0.0953765 201.645 0.190564 201.878 0.243085C202.519 0.205335 203.163 0.174159 203.799 0.128202C204.059 0.108507 204.197 0.162665 204.37 0.205338C204.431 0.22011 204.491 0.251298 204.547 0.249657C204.764 0.243091 204.976 0.22504 205.188 0.21191C205.4 0.19878 205.616 0.185651 205.828 0.172521C206.07 0.220118 206.23 0.331725 206.576 0.293975C206.784 0.270997 207.004 0.266073 207.216 0.252942C207.428 0.239812 207.645 0.226683 207.857 0.213553C207.999 0.205346 208.146 0.200415 208.285 0.185644C208.54 0.161024 208.665 0.241457 208.847 0.277566C208.908 0.289055 208.977 0.308738 209.033 0.305455C209.461 0.282477 209.894 0.262783 210.314 0.225033C210.638 0.19549 210.859 0.244735 211.088 0.31367C211.135 0.328441 211.218 0.336647 211.278 0.333364C211.78 0.305462 212.277 0.270985 212.775 0.241442C212.909 0.233236 213.039 0.259496 213.147 0.302169C213.259 0.346484 213.385 0.367837 213.523 0.359631C214.021 0.330087 214.522 0.297252 215.02 0.267708C215.08 0.264426 215.154 0.277559 215.21 0.290689C215.695 0.392449 215.695 0.394092 215.98 0.374397C216.049 0.369473 216.123 0.366177 216.192 0.361253C216.547 0.338275 216.915 0.33008 217.261 0.290689C217.659 0.246374 217.948 0.30218 218.23 0.395734C218.584 0.376039 218.948 0.364547 219.294 0.331721C219.553 0.307102 219.692 0.369468 219.865 0.4105C219.925 0.425272 219.99 0.454815 220.042 0.451533C220.544 0.423631 221.045 0.39902 221.539 0.357988C221.807 0.33501 221.924 0.408854 222.105 0.446604C222.166 0.459734 222.231 0.482725 222.287 0.479442C222.572 0.466312 222.858 0.446606 223.144 0.428552C223.477 0.407215 223.476 0.408855 223.918 0.508974C224.125 0.556572 224.333 0.51882 224.536 0.507331C224.753 0.494201 224.956 0.484356 225.129 0.551649C225.237 0.594323 225.367 0.620584 225.501 0.614019C225.786 0.599248 226.076 0.584483 226.357 0.559864C226.582 0.540168 226.777 0.553291 226.941 0.614019C227.058 0.656693 227.179 0.678043 227.322 0.668195C227.962 0.628804 228.607 0.587756 229.247 0.550006C229.303 0.546724 229.381 0.561501 229.433 0.576273C229.554 0.605816 229.671 0.638635 229.788 0.671461C230.069 0.656689 230.359 0.650141 230.635 0.627162C230.93 0.604184 231.198 0.595976 231.427 0.686247C231.475 0.705942 231.544 0.733829 231.6 0.732188C231.816 0.725623 232.028 0.709214 232.24 0.696084C232.452 0.682954 232.669 0.669825 232.88 0.656695C233.127 0.697727 233.283 0.815899 233.629 0.778149C233.837 0.755171 234.057 0.750247 234.269 0.737116C234.481 0.723986 234.697 0.709216 234.909 0.697727C234.978 0.694444 235.056 0.686233 235.117 0.692798C235.182 0.699363 235.238 0.722346 235.294 0.738759C235.467 0.786357 235.627 0.83396 235.874 0.806058C236.082 0.78308 236.302 0.778154 236.514 0.763383C236.804 0.745329 236.804 0.745332 237.284 0.848733C237.479 0.891407 237.699 0.835605 237.885 0.871714C238.011 0.896333 238.119 0.937357 238.24 0.965259C238.292 0.976748 238.374 0.981665 238.435 0.978382C238.72 0.96361 239.01 0.948846 239.291 0.924226C239.52 0.904531 239.711 0.924224 239.871 0.983311C239.988 1.02598 240.104 1.04405 240.251 1.0342C240.965 0.988244 241.679 0.94884 242.388 0.89796C242.631 0.879906 242.825 0.907815 242.959 0.966902C243.189 1.06866 243.513 0.94885 243.751 1.03091C243.898 1.08179 244.045 1.14088 244.313 1.11627C244.806 1.07359 245.308 1.0506 245.806 1.02106C245.983 1.06537 246.16 1.1097 246.342 1.15401C246.627 1.13596 246.913 1.11789 247.198 1.10148C247.41 1.08835 247.627 1.07358 247.839 1.06209C247.908 1.05881 247.981 1.05224 248.046 1.06045C248.111 1.06865 248.163 1.08999 248.224 1.10641C248.522 1.18683 248.522 1.18848 249.015 1.15565C249.227 1.14088 249.431 1.13104 249.608 1.19669C249.772 1.25741 249.967 1.2689 250.192 1.25084C250.616 1.21802 251.044 1.1934 251.477 1.17042C251.611 1.16221 251.736 1.19012 251.849 1.23279C252.017 1.30008 252.225 1.29352 252.437 1.27547C252.718 1.25249 252.995 1.22951 253.233 1.32143C253.28 1.34112 253.354 1.36901 253.406 1.36737C253.76 1.35424 254.12 1.3444 254.466 1.31321C254.812 1.28203 254.98 1.38379 255.218 1.43302C255.573 1.41169 255.932 1.39035 256.287 1.36901C256.356 1.36409 256.438 1.34932 256.499 1.35753C256.754 1.392 256.901 1.51509 257.251 1.47734C257.455 1.45601 257.675 1.44945 257.887 1.44452C257.943 1.44288 258.017 1.47077 258.056 1.49211C258.078 1.5036 258.056 1.53478 258.03 1.55119C257.952 1.59715 257.857 1.63984 257.788 1.68743C257.779 1.694 257.861 1.72353 257.909 1.73666C258.026 1.7662 258.16 1.76129 258.315 1.74816C258.449 1.73667 258.588 1.75965 258.683 1.80889C258.722 1.82858 258.709 1.86141 258.627 1.96973C258.627 2.05015 258.718 2.01404 258.748 1.96152C258.796 1.88602 258.705 1.8614 258.532 1.90243C258.411 1.93198 258.35 1.97465 258.38 2.00912C258.398 2.02717 258.48 2.05015 258.627 1.96973C259.007 1.87125 259.293 1.85321 259.579 1.83515C259.652 1.83023 259.739 1.81381 259.79 1.82365C259.976 1.86304 260.15 1.91065 260.331 1.95496C260.539 1.94512 260.733 1.92049 260.937 1.9845C261.222 2.07477 261.235 2.06656 261.512 2.04851C261.655 2.03866 261.798 2.03047 261.94 2.02226C262.083 2.01406 262.195 2.03867 262.321 2.07642C262.576 2.15356 262.598 2.15355 262.766 2.04851C262.866 1.9845 262.935 1.96317 263.061 1.99271C263.476 2.09283 263.48 2.09939 263.835 2.06985C264.129 2.04523 264.406 2.03866 264.622 2.13222C264.769 2.19787 264.817 2.1831 264.934 2.11417C265.245 1.93198 265.388 1.93526 265.972 2.06656C266.244 2.12893 266.526 2.06164 266.802 2.05344C267.036 2.04687 267.2 2.08626 267.218 2.18966C267.231 2.25367 267.27 2.29963 267.425 2.32097C267.486 2.32918 267.559 2.34066 267.62 2.33738C267.979 2.31768 268.334 2.2947 268.693 2.27172C268.874 2.26023 268.974 2.18311 268.939 2.08135C268.9 1.97302 268.969 1.93362 269.229 1.90243C269.385 1.88438 269.51 1.88767 269.636 1.91722C269.774 1.95004 269.735 1.97959 269.614 2.03867C269.324 2.18311 269.359 2.27172 269.731 2.37184C269.861 2.40631 269.964 2.43751 269.995 2.48839C270.012 2.51465 269.995 2.54911 270.034 2.56881C270.246 2.67877 270.54 2.74936 270.868 2.80188C271.184 2.75756 271.401 2.83141 271.643 2.89049C271.833 2.93645 272.058 2.89707 272.261 2.88066C272.491 2.8626 272.681 2.87573 272.845 2.93646C272.962 2.97913 273.083 2.99882 273.226 2.99061C273.511 2.97256 273.801 2.96107 274.082 2.93481C274.325 2.91183 274.506 2.94466 274.658 3.00047C274.848 3.07104 275.06 3.02344 275.259 3.03329C275.527 3.04478 275.661 3.19085 276.012 3.15145C276.219 3.12848 276.436 3.12027 276.652 3.11371C276.708 3.11207 276.777 3.13997 276.825 3.15967C277.054 3.24994 277.322 3.24501 277.617 3.21875C277.82 3.2007 278.019 3.18429 278.218 3.24666C278.546 3.35171 278.91 3.44362 279.256 3.54046C279.304 3.61596 279.269 3.70457 279.515 3.74889C279.645 3.77187 279.766 3.80635 279.866 3.8441C279.987 3.88841 280.099 3.8999 280.255 3.88841C280.536 3.86544 280.831 3.8605 281.107 3.83095C281.363 3.80469 281.523 3.85887 281.678 3.90975C281.804 3.95078 281.921 3.97047 282.072 3.94093C282.228 3.91303 282.34 3.93107 282.466 3.97539C282.643 4.03612 282.656 4.02956 283.244 4.04762C283.305 4.04926 283.378 4.07386 283.413 4.0952C283.43 4.10669 283.391 4.13953 283.361 4.15595C283.322 4.17564 283.261 4.19861 283.205 4.20353C282.565 4.2462 281.921 4.28395 281.28 4.32663C281.215 4.33155 281.146 4.34305 281.099 4.35947C281.047 4.37752 280.982 4.40212 280.982 4.4251C280.982 4.44151 281.068 4.46122 281.129 4.47271C281.319 4.51046 281.544 4.45301 281.73 4.49569C281.856 4.52359 281.959 4.56297 282.085 4.58923C282.137 4.60072 282.219 4.59908 282.284 4.5958C282.5 4.58431 282.712 4.5679 282.928 4.55806C282.989 4.55641 283.058 4.57283 283.114 4.58597C283.53 4.68444 283.53 4.68444 283.889 4.6631C284.031 4.65489 284.183 4.63027 284.317 4.64012C284.447 4.64997 284.559 4.69428 284.676 4.72219C284.918 4.78127 285.147 4.83872 285.165 4.96674C285.173 5.01598 285.316 5.05864 285.459 5.06192C285.597 5.06521 285.744 5.04717 285.887 5.03732C286.225 5.01763 286.225 5.01762 286.661 5.11774C286.783 5.14565 286.912 5.14892 287.068 5.13251C287.129 5.12594 287.202 5.13252 287.267 5.14072C287.479 5.16534 287.479 5.19652 287.341 5.25561C287.146 5.3426 287.163 5.35081 287.708 5.42466C287.916 5.45257 288.076 5.50509 288.249 5.55105C288.53 5.62491 288.526 5.62489 288.34 5.72173C288.297 5.74307 288.258 5.76605 288.214 5.78903C288.089 5.85304 287.989 5.92197 287.73 5.92853C287.444 5.9351 287.159 5.96137 286.873 5.97942C286.597 5.99748 286.523 6.03685 286.549 6.14846C286.579 6.28305 286.635 6.29782 287.133 6.29618C287.276 6.29618 287.401 6.30931 287.509 6.35362C287.457 6.40614 287.362 6.44718 287.224 6.45703C286.869 6.48164 286.51 6.50299 286.155 6.52432C285.87 6.54238 285.584 6.56043 285.299 6.57848C285.122 6.58997 285.009 6.67532 285.057 6.77052C285.083 6.82468 285.104 6.87884 285.126 6.933C285.173 7.04133 285.264 7.06924 285.554 7.06432C285.628 7.06267 285.697 7.04953 285.766 7.05282C286.047 7.06431 286.181 7.20053 286.519 7.17263C286.8 7.14965 287.094 7.14473 287.371 7.11519C287.626 7.08893 287.769 7.14803 287.946 7.19234C288.007 7.20711 288.072 7.23828 288.124 7.23664C288.483 7.21859 288.842 7.20055 289.192 7.16936C289.356 7.15623 289.456 7.16607 289.586 7.20547C289.897 7.30066 289.906 7.29574 290.369 7.26619C290.706 7.24321 290.71 7.2465 291.143 7.34661C291.264 7.37452 291.394 7.37451 291.549 7.36138C291.753 7.34497 291.965 7.31871 292.177 7.34333C292.242 7.34989 292.324 7.3696 292.345 7.39093C292.358 7.4057 292.298 7.44181 292.246 7.4533C291.865 7.53865 291.42 7.52388 291.004 7.55835C290.875 7.5682 290.745 7.53701 290.637 7.49269C290.524 7.44838 290.403 7.43033 290.256 7.43854C289.971 7.45659 289.681 7.46807 289.4 7.49434C289.157 7.51731 288.989 7.47956 288.82 7.42868C288.764 7.41227 288.699 7.38108 288.643 7.38272C288.002 7.41554 287.358 7.44838 286.722 7.49434C286.467 7.51403 286.32 7.46151 286.147 7.4172C286.086 7.40243 286.026 7.37124 285.969 7.37288C285.753 7.37945 285.541 7.3975 285.325 7.41063C284.538 7.45987 283.755 7.50911 282.967 7.55506C282.915 7.55834 282.851 7.52387 282.79 7.5091C282.673 7.47956 282.552 7.45165 282.431 7.42375C282.215 7.43688 282.003 7.45329 281.786 7.46314C281.631 7.46971 281.492 7.49269 281.471 7.55506C281.458 7.59609 281.6 7.63384 281.752 7.63056C281.899 7.62727 282.046 7.60758 282.167 7.62891C282.768 7.73396 282.768 7.7356 283.145 7.71426C283.473 7.69457 283.439 7.67815 283.729 7.76842C283.854 7.80781 283.967 7.8308 284.109 7.82095C284.464 7.79797 284.823 7.77499 285.182 7.7553C285.238 7.75201 285.312 7.76843 285.368 7.78156C285.792 7.88004 285.792 7.88332 286.142 7.8587C286.601 7.82915 286.618 7.82095 286.925 7.92107C287.137 7.99 287.332 7.9424 287.535 7.93912C287.769 8.00313 288.024 8.06058 288.236 8.1328C288.487 8.21815 288.751 8.20336 289.036 8.17874C289.248 8.16069 289.456 8.15412 289.629 8.22142C289.793 8.28379 289.992 8.29036 290.217 8.27395C290.42 8.25918 290.628 8.22798 290.84 8.26409C290.896 8.27394 290.983 8.29857 290.978 8.31334C290.974 8.33632 290.918 8.36915 290.862 8.37899C290.464 8.44629 290.027 8.44464 289.607 8.47583C289.551 8.48075 289.477 8.46269 289.421 8.44956C289.3 8.42002 289.183 8.38556 289.066 8.35437C288.855 8.36422 288.638 8.36749 288.431 8.38719C288.271 8.40196 288.149 8.40033 288.033 8.36094C287.924 8.32483 287.808 8.28051 287.678 8.26902C287.548 8.25753 287.397 8.28215 287.254 8.292C287.111 8.30185 286.947 8.29692 286.835 8.32318C286.722 8.34944 286.653 8.40689 286.579 8.45285C286.497 8.50373 286.385 8.52015 286.22 8.52507C286.069 8.53 285.948 8.52343 285.835 8.47747C285.788 8.45777 285.723 8.443 285.658 8.42986C285.597 8.41838 285.528 8.40032 285.472 8.4036C284.827 8.44135 284.187 8.4824 283.543 8.52179C283.223 8.54148 283.227 8.54147 282.561 8.44463C282.5 8.43642 282.427 8.42494 282.366 8.42822C282.007 8.44792 281.652 8.4709 281.293 8.49388C280.93 8.51686 280.934 8.51357 280.316 8.41017C280.203 8.39048 280.039 8.41674 279.905 8.41346C279.624 8.40525 279.485 8.26738 279.156 8.29364C278.875 8.31662 278.581 8.32154 278.3 8.35109C278.045 8.37735 277.898 8.31991 277.725 8.27559C277.664 8.26082 277.599 8.22799 277.547 8.23127C276.903 8.26738 276.263 8.30842 275.406 8.31334C275.194 8.31334 275.289 8.34781 275.428 8.3593C275.627 8.37735 275.692 8.34289 275.583 8.27724C275.506 8.23128 275.393 8.20829 275.302 8.21977C275.255 8.22634 275.194 8.25754 275.406 8.31334C275.631 8.37571 275.618 8.41017 275.657 8.42986C275.752 8.47746 275.886 8.49716 276.025 8.49059C276.241 8.4791 276.453 8.46269 276.669 8.45285C276.73 8.44956 276.803 8.46105 276.86 8.47418C277.335 8.57594 277.34 8.58252 277.846 8.54313C278.006 8.53164 278.123 8.53164 278.248 8.56282C278.421 8.60549 278.547 8.6777 278.81 8.65472C279.161 8.62354 279.52 8.6055 279.879 8.58744C279.935 8.58416 279.996 8.6137 280.06 8.62683C280.238 8.66622 280.368 8.74008 280.631 8.7089C280.835 8.68428 281.055 8.6777 281.272 8.67277C281.328 8.67113 281.414 8.6974 281.44 8.71873C281.492 8.75648 281.427 8.80081 281.28 8.83199C281.22 8.84513 281.138 8.84184 281.068 8.84676C280.783 8.86481 280.497 8.8845 280.212 8.89927C280.06 8.90748 279.918 8.93211 279.9 8.99284C279.887 9.03387 280.043 9.06997 280.19 9.06669C280.407 9.06176 280.623 9.04864 280.83 9.0273C281.198 8.99119 281.518 9.00103 281.817 9.10443C282.029 9.17665 282.016 9.1504 282.241 9.36377C282.297 9.41794 282.466 9.42285 282.613 9.41957C282.967 9.41136 283.132 9.43599 283.101 9.48687C283.062 9.54924 282.937 9.56892 282.777 9.57713C282.491 9.59026 282.206 9.61161 281.921 9.62966C281.851 9.63459 281.773 9.64442 281.709 9.64114C281.644 9.63786 281.583 9.61817 281.527 9.6034C281.406 9.57221 281.302 9.5246 281.172 9.51312C281.042 9.50163 280.891 9.52625 280.748 9.5361C280.606 9.5443 280.454 9.56892 280.324 9.55743C280.195 9.54595 280.086 9.49672 279.97 9.46717C279.913 9.4524 279.844 9.42941 279.788 9.43105C279.503 9.44418 279.217 9.46553 278.932 9.48194C278.581 9.50328 278.581 9.50328 278.157 9.40152C278.036 9.37198 277.911 9.37362 277.751 9.38675C277.405 9.41301 277.4 9.40808 276.769 9.31288C276.708 9.30303 276.635 9.29155 276.574 9.29647C275.929 9.33422 275.289 9.37525 274.649 9.41464C274.1 9.44911 274.1 9.44912 273.797 9.61325C273.572 9.73471 273.568 9.7347 273.788 9.79051C273.966 9.83646 274.126 9.90375 274.32 9.92837C274.502 9.95135 274.727 9.87749 274.926 9.95299C275.025 9.99074 275.155 10.0318 275.281 10.0383C275.48 10.0465 275.692 9.99894 275.882 10.0712C275.977 10.1073 276.12 10.145 276.241 10.1467C276.453 10.15 276.669 10.1237 276.881 10.1122C276.946 10.1089 277.02 10.1089 277.08 10.1171C277.145 10.127 277.201 10.1467 277.257 10.1631C277.43 10.2189 277.617 10.2451 277.841 10.2172C278.209 10.1713 278.538 10.1943 278.823 10.2993C278.862 10.3141 278.957 10.3157 279.018 10.3092C279.174 10.2927 279.308 10.2911 279.425 10.3223C279.472 10.3354 279.541 10.3584 279.533 10.3732C279.52 10.3978 279.468 10.4306 279.412 10.4388C279.005 10.4946 278.568 10.5012 278.149 10.5307C278.092 10.534 278.023 10.5127 277.967 10.4979C277.846 10.4683 277.742 10.4191 277.612 10.4076C277.482 10.3961 277.331 10.4175 277.188 10.4257C277.046 10.4339 276.894 10.4585 276.764 10.4487C276.635 10.4372 276.513 10.3961 276.41 10.36C276.289 10.319 276.172 10.3141 276.012 10.3305C275.804 10.3518 275.588 10.3551 275.376 10.3666C275.259 10.3354 275.142 10.3009 275.021 10.2714C274.965 10.2566 274.896 10.2386 274.835 10.2402C274.55 10.2533 274.264 10.273 273.979 10.2911C273.693 10.3091 273.693 10.3092 273.209 10.2074C273.152 10.1959 273.079 10.1828 273.018 10.1861C272.659 10.2058 272.305 10.2304 271.946 10.2501C271.807 10.2583 271.682 10.2353 271.569 10.191C271.461 10.1467 271.331 10.122 271.197 10.1302C270.626 10.1647 270.055 10.1975 269.484 10.2386C269.255 10.255 269.06 10.2402 268.905 10.1811C268.723 10.1138 268.52 10.1303 268.308 10.1434C267.828 10.1762 267.823 10.1746 267.516 10.0909C267.455 10.0744 267.395 10.0433 267.339 10.0449C266.841 10.0695 266.34 10.0925 265.846 10.1319C265.587 10.1532 265.448 10.0958 265.275 10.0531C265.215 10.0383 265.15 10.0072 265.098 10.0104C264.739 10.0285 264.38 10.0449 264.03 10.0777C263.679 10.1106 263.545 9.95792 263.281 9.95956C262.922 9.9612 262.567 9.99895 262.213 10.0219C261.927 10.04 261.642 10.058 261.356 10.0761C261.071 10.0941 260.785 10.1089 260.5 10.1302C260.348 10.1417 260.236 10.127 260.111 10.0859C259.951 10.0318 259.76 9.98911 259.587 9.93987C259.323 9.86929 259.323 9.86928 259.003 9.88898C258.934 9.8939 258.86 9.89718 258.791 9.9021C258.268 9.93821 258.268 9.93494 257.602 9.83154C257.571 9.82661 257.493 9.84467 257.463 9.8578C257.372 9.90048 257.29 9.94642 257.208 9.99074C257.091 9.96448 256.949 9.94971 256.871 9.91196C256.65 9.80527 256.304 9.95135 256.079 9.8463C255.997 9.80691 255.854 9.77244 255.724 9.7626C255.59 9.75275 255.439 9.77573 255.3 9.78558C254.941 9.8102 254.941 9.80856 254.634 9.95463C254.479 10.0269 254.254 10.0137 254.05 10.0301C253.838 10.0482 253.635 10.058 253.458 9.99074C253.298 9.93001 253.103 9.91524 252.874 9.93494C252.593 9.95956 252.303 9.97432 252.017 9.9891C251.957 9.99238 251.883 9.98418 251.823 9.97433C251.161 9.87749 251.161 9.87586 250.841 9.89719C250.698 9.90704 250.551 9.91031 250.412 9.92508C250.179 9.95134 250.002 9.91688 249.833 9.86436C249.777 9.84794 249.712 9.81677 249.655 9.81841C249.37 9.82662 249.089 9.84139 248.808 9.85616C248.591 9.86765 248.375 9.87422 248.167 9.89719C247.821 9.93494 247.653 9.82824 247.415 9.77901C247.06 9.80034 246.701 9.81512 246.346 9.84466C246.182 9.85779 246.074 9.85288 245.948 9.81349C245.788 9.76425 245.641 9.70844 245.382 9.73306C245.036 9.76589 244.672 9.77738 244.318 9.79708C244.08 9.7462 243.907 9.64278 243.565 9.68053C243.357 9.70351 243.137 9.70843 242.925 9.72156C242.639 9.73962 242.354 9.75604 242.068 9.77574C241.761 9.79543 241.765 9.79051 241.294 9.69367C241.021 9.63623 240.74 9.70024 240.463 9.71008C240.247 9.71829 240.139 9.79379 240.191 9.89062C240.243 9.98746 240.126 10.063 239.927 10.0761C239.43 10.1073 238.928 10.1401 238.43 10.168C238.37 10.1713 238.296 10.1598 238.24 10.1483C237.708 10.0449 237.708 10.0466 237.47 10.0613C237.115 10.0859 236.752 10.0991 236.402 10.1302C236.159 10.1516 235.982 10.1171 235.826 10.0613C235.705 10.0186 235.593 10.0088 235.437 10.0186C233.724 10.1286 232.011 10.2304 230.302 10.3436C230.047 10.36 229.9 10.3124 229.727 10.2681C229.667 10.2534 229.61 10.2222 229.55 10.2222C229.407 10.2222 229.264 10.2369 229.121 10.2468C228.481 10.2862 227.841 10.3338 227.197 10.3633C226.924 10.3764 226.851 10.452 226.734 10.5143C226.643 10.5619 226.539 10.5816 226.379 10.5882C226.223 10.5947 226.111 10.5865 225.99 10.5439C225.834 10.488 225.657 10.4536 225.414 10.4766C225.133 10.5028 224.848 10.5143 224.558 10.5324C224.411 10.5406 224.298 10.5701 224.251 10.6292C224.242 10.6391 224.333 10.6637 224.385 10.6785C224.558 10.7277 224.722 10.7851 224.917 10.8196C225.116 10.8541 225.332 10.8147 225.54 10.8048C225.613 10.8015 225.683 10.7917 225.752 10.7933C225.817 10.795 225.895 10.8032 225.942 10.818C226.167 10.8918 226.405 10.9427 226.716 10.8984C226.985 10.9197 227.123 11.0559 227.465 11.0198C227.672 10.9985 227.889 10.9886 228.105 10.9804C228.161 10.9788 228.222 11.0083 228.282 11.0231C228.455 11.0642 228.594 11.1298 228.853 11.1019C229.13 11.0724 229.424 11.0674 229.705 11.0445C229.861 11.0313 229.974 11.0428 230.095 11.0855C230.25 11.1397 230.428 11.1807 230.67 11.1544C230.878 11.1314 231.098 11.1265 231.31 11.1117C231.587 11.0937 231.587 11.0953 232.08 11.1971C232.137 11.2086 232.21 11.2217 232.271 11.2184C232.63 11.1987 232.984 11.1741 233.343 11.1544C233.482 11.1462 233.616 11.1675 233.711 11.2151C233.75 11.2348 233.737 11.2677 233.75 11.2956C233.036 11.3399 232.322 11.3776 231.613 11.4318C231.345 11.4531 231.224 11.3858 231.046 11.3481C230.986 11.335 230.921 11.3071 230.865 11.3103C230.363 11.3382 229.866 11.3678 229.368 11.4039C229.212 11.4154 229.096 11.4088 228.979 11.3612C228.68 11.2348 228.317 11.3038 227.98 11.3218C227.72 11.335 227.638 11.3858 227.668 11.4942C227.707 11.6222 227.863 11.6616 228.261 11.6386C228.403 11.6304 228.546 11.6189 228.689 11.6123C228.827 11.6058 228.953 11.6271 229.065 11.6714C229.173 11.7157 229.303 11.7387 229.437 11.7321C229.723 11.7174 230.013 11.7026 230.289 11.678C230.519 11.6583 230.709 11.6747 230.869 11.7354C231.046 11.8027 231.254 11.788 231.462 11.7732C231.946 11.7404 231.95 11.742 232.253 11.8241C232.314 11.8405 232.374 11.8717 232.431 11.87C232.928 11.8454 233.43 11.8241 233.919 11.7847C234.174 11.765 234.321 11.8175 234.49 11.8602C234.55 11.8749 234.611 11.9078 234.667 11.9045C235.026 11.8864 235.385 11.8684 235.735 11.8372C235.9 11.8224 235.999 11.8323 236.133 11.8717C236.453 11.9685 236.462 11.9652 236.916 11.934C237.055 11.9242 237.206 11.9061 237.336 11.9193C237.466 11.9324 237.57 11.98 237.691 12.0095C237.747 12.0227 237.816 12.0407 237.877 12.0374C238.162 12.0243 238.448 12.0046 238.733 11.9866C239.001 11.9685 239.001 11.9701 239.503 12.0719C239.706 12.1146 239.918 12.0785 240.122 12.0653C240.342 12.0506 240.541 12.0506 240.71 12.1146C240.879 12.1786 241.082 12.1753 241.298 12.1622C241.502 12.149 241.709 12.1129 241.917 12.1573C242.393 12.259 242.393 12.2606 242.687 12.2409C243.115 12.213 243.539 12.1868 243.972 12.1622C244.028 12.1589 244.101 12.1786 244.157 12.1917C244.279 12.2213 244.382 12.2705 244.512 12.282C244.642 12.2951 244.793 12.2754 244.932 12.2656C245.377 12.2344 245.408 12.2229 245.706 12.3312C245.957 12.4199 246.268 12.2918 246.502 12.3936C246.636 12.451 246.818 12.497 247.069 12.4691C247.276 12.4461 247.493 12.4395 247.709 12.4264C248.051 12.4051 248.051 12.4067 248.483 12.5052C248.539 12.5183 248.613 12.5347 248.669 12.5315C248.955 12.5183 249.245 12.5068 249.521 12.4773C249.846 12.4428 250.053 12.5052 250.296 12.5659C250.486 12.6135 250.711 12.5741 250.914 12.5577C251.135 12.5413 251.334 12.5462 251.498 12.6102C251.671 12.6759 251.874 12.6677 252.091 12.6546C252.294 12.6431 252.502 12.6053 252.709 12.6513C253.155 12.753 253.155 12.753 253.479 12.7333C253.765 12.7153 254.05 12.6956 254.336 12.6825C254.392 12.6792 254.461 12.7005 254.517 12.7153C254.639 12.7448 254.742 12.7941 254.872 12.8056C255.002 12.8171 255.153 12.7957 255.296 12.7875C255.439 12.7793 255.59 12.7547 255.72 12.7645C255.85 12.7744 255.971 12.8154 256.075 12.8515C256.196 12.8942 256.308 12.8991 256.473 12.8827C256.68 12.8614 256.897 12.8564 257.108 12.845C257.225 12.8761 257.346 12.9073 257.459 12.9418C257.576 12.9779 257.701 12.9746 257.861 12.9631C258.393 12.9237 258.398 12.9287 258.843 13.0304C259.046 13.0764 259.258 13.0386 259.462 13.0271C259.678 13.014 259.881 13.0074 260.05 13.0731C260.214 13.1355 260.418 13.1437 260.634 13.124C260.772 13.1108 260.919 13.1026 261.062 13.0977C261.127 13.0961 261.205 13.1026 261.253 13.1158C261.482 13.1847 261.707 13.2471 262.022 13.2028C262.299 13.2159 262.438 13.3505 262.771 13.3242C263.052 13.3012 263.346 13.2963 263.623 13.2668C263.878 13.2405 264.06 13.2865 264.19 13.3439C264.423 13.4457 264.752 13.3078 264.986 13.4079C265.12 13.4654 265.293 13.5113 265.552 13.4867C265.838 13.4604 265.929 13.4949 266.011 13.5983C266.058 13.6574 266.05 13.705 265.963 13.7509C265.877 13.7985 265.782 13.7903 265.643 13.7362C265.483 13.6755 265.293 13.6639 265.063 13.6771C264.839 13.6902 264.7 13.6049 264.514 13.5721C264.328 13.5376 264.108 13.595 263.913 13.5507C263.454 13.4473 263.454 13.4473 263.143 13.467C262.931 13.4801 262.71 13.4867 262.503 13.5097C262.256 13.5376 262.096 13.4867 261.927 13.4407C261.867 13.4243 261.806 13.3931 261.754 13.3948C261.257 13.4194 260.755 13.4424 260.262 13.4834C260.002 13.5048 259.864 13.4457 259.691 13.4046C259.63 13.3899 259.565 13.3603 259.514 13.3636C259.085 13.3866 258.661 13.4161 258.233 13.444C258.151 13.4883 258.06 13.531 257.982 13.5786C257.9 13.6278 257.788 13.6492 257.623 13.6475C257.351 13.6475 257.083 13.7165 256.81 13.6295C256.529 13.5409 256.507 13.5458 256.235 13.5671C255.889 13.595 255.521 13.5885 255.197 13.6525C255.14 13.664 255.08 13.6951 255.08 13.7181C255.075 13.7329 255.166 13.7542 255.223 13.7674C255.413 13.8068 255.633 13.7493 255.824 13.7903C255.949 13.8166 256.053 13.856 256.178 13.8839C256.23 13.8954 256.308 13.8937 256.377 13.8921C256.451 13.8905 256.52 13.879 256.589 13.8806C256.654 13.8823 256.724 13.8921 256.776 13.9069C257.013 13.9692 257.264 14.0267 257.476 14.1005C257.684 14.1728 257.878 14.1235 258.086 14.1202C258.917 14.2351 258.917 14.2368 259.475 14.2007C259.613 14.1925 259.756 14.1826 259.899 14.1843C259.959 14.1843 260.015 14.2138 260.076 14.2302C260.249 14.2794 260.413 14.3238 260.656 14.2975C260.863 14.2745 261.084 14.2696 261.296 14.2548C261.581 14.2368 261.581 14.2368 262.066 14.3402C262.187 14.3664 262.317 14.3632 262.472 14.35C262.606 14.3385 262.745 14.3632 262.84 14.4108C262.879 14.4304 262.866 14.4633 262.879 14.4912C262.451 14.5174 262.018 14.5355 261.603 14.5749C261.335 14.5995 261.214 14.5289 261.036 14.4912C260.976 14.478 260.911 14.4501 260.855 14.4534C260.431 14.478 260.007 14.5059 259.583 14.5388C259.531 14.542 259.466 14.5798 259.462 14.6028C259.453 14.6454 259.561 14.6865 259.717 14.6848C259.924 14.6832 260.128 14.6553 260.314 14.7226C260.47 14.7817 260.664 14.8079 260.893 14.7817C261.032 14.7669 261.179 14.7669 261.317 14.7538C261.685 14.7144 262.018 14.7226 262.295 14.8342C262.507 14.8637 262.715 14.8358 262.918 14.8211C263.069 14.8096 263.216 14.7981 263.324 14.8293C263.554 14.8949 263.779 14.9606 264.094 14.9163C264.436 14.9622 264.696 15.0591 264.981 15.1378C265.115 15.1756 265.219 15.1969 265.375 15.1723C265.44 15.1625 265.518 15.1625 265.587 15.1575C265.73 15.1493 265.881 15.1247 266.011 15.1346C266.141 15.146 266.249 15.1936 266.365 15.2232C266.422 15.238 266.487 15.2626 266.543 15.2609C266.759 15.2527 266.971 15.2363 267.183 15.2232C267.395 15.2117 267.607 15.2002 267.819 15.1887C267.996 15.2314 268.178 15.2741 268.355 15.3168C268.641 15.2987 268.926 15.2806 269.207 15.2642C269.523 15.2445 269.523 15.2462 269.977 15.3479C270.181 15.3939 270.397 15.3643 270.592 15.343C270.916 15.3085 271.132 15.3709 271.362 15.4366C271.409 15.4497 271.496 15.4579 271.552 15.4513C271.777 15.4284 271.971 15.4464 272.136 15.5071C272.253 15.5498 272.369 15.5695 272.512 15.5613C273.01 15.5301 273.507 15.4973 274.005 15.4694C274.065 15.4661 274.134 15.4809 274.191 15.494C274.632 15.5941 274.636 15.599 274.96 15.5728C275.25 15.5498 275.519 15.54 275.748 15.6302C275.795 15.6499 275.869 15.6778 275.921 15.6762C276.275 15.6598 276.635 15.6417 276.985 15.6138C277.145 15.6007 277.257 15.6056 277.383 15.6434C277.543 15.691 277.686 15.7484 277.95 15.7271C278.681 15.6663 278.685 15.6762 279.55 15.7894C279.611 15.7976 279.693 15.7845 279.762 15.7779C279.909 15.7615 280.017 15.7845 280.147 15.8223C280.437 15.9076 280.445 15.9027 280.722 15.8846C280.934 15.8699 281.155 15.8666 281.362 15.842C281.683 15.8059 281.895 15.8699 282.132 15.9306C282.323 15.9782 282.543 15.9388 282.747 15.924C282.967 15.9076 283.166 15.9125 283.331 15.9749C283.443 16.0176 283.564 16.0406 283.707 16.0324C284.204 16.0028 284.702 15.97 285.199 15.9404C285.26 15.9371 285.333 15.9503 285.39 15.9618C285.883 16.0635 285.883 16.0685 286.372 16.0307C286.527 16.0192 286.657 16.0159 286.774 16.0504C286.886 16.0832 287.008 16.1144 287.124 16.1456C287.336 16.1341 287.553 16.1308 287.76 16.1111C287.92 16.0964 288.033 16.1029 288.158 16.1374C288.322 16.1817 288.461 16.2588 288.72 16.2211C288.855 16.203 289.01 16.208 289.144 16.1916C289.304 16.1702 289.413 16.1833 289.538 16.226C289.694 16.2769 289.854 16.3294 290.105 16.3032C290.381 16.2736 290.676 16.2687 290.957 16.2457C291.112 16.2326 291.221 16.2457 291.346 16.2884C291.502 16.3425 291.679 16.377 291.921 16.3557C292.415 16.3147 292.419 16.3228 292.899 16.4262C293.02 16.4525 293.15 16.4492 293.306 16.4361C293.44 16.4246 293.578 16.4492 293.673 16.4968C293.764 16.5494 293.755 16.5822 293.764 16.6101ZM255.218 1.80724C255.075 1.81545 254.933 1.8253 254.725 1.6825C254.712 1.65788 254.721 1.62835 254.691 1.60701C254.621 1.5627 254.513 1.53151 254.383 1.52659C254.15 1.52002 253.869 1.57582 253.873 1.61849C253.877 1.6546 253.951 1.68578 254.094 1.71532C254.154 1.72681 254.202 1.74651 254.258 1.75964C254.422 1.79739 254.552 1.87126 254.79 1.83351C254.747 1.73175 254.768 1.78263 254.79 1.83351C254.768 1.89588 254.833 1.9402 254.989 1.95825C255.032 1.96317 255.097 1.95988 255.132 1.95004C255.266 1.91393 255.287 1.8647 255.188 1.73504C255.171 1.75637 255.184 1.79411 255.223 1.80396C255.261 1.81381 255.357 1.80561 255.404 1.79412C255.525 1.76294 255.586 1.7219 255.556 1.68743C255.538 1.66938 255.456 1.6464 255.404 1.6464C255.313 1.6464 255.231 1.68251 255.218 1.80724ZM290.195 20.8413C289.88 20.8725 289.516 20.861 289.201 20.925C289.144 20.9365 289.088 20.9661 289.084 20.9891C289.079 21.0038 289.166 21.0252 289.218 21.0367C289.335 21.0629 289.464 21.0547 289.616 21.0465C289.845 21.035 289.979 21.1105 290.157 21.1483C290.213 21.1597 290.286 21.1679 290.347 21.1647C290.697 21.145 291.043 21.1237 291.394 21.1007C291.454 21.0957 291.519 21.0842 291.571 21.0695C291.744 21.0219 291.727 20.9907 291.558 20.9546C291.372 20.9152 291.225 20.8495 291.035 20.8184C290.762 20.774 290.485 20.8331 290.195 20.8413ZM265.63 22.0395C265.418 22.0526 265.21 22.0657 264.998 22.0789C264.929 22.0838 264.856 22.0854 264.791 22.092C264.657 22.1035 264.557 22.138 264.492 22.1921C264.592 22.2348 264.713 22.2594 264.847 22.2545C265.059 22.2446 265.267 22.2233 265.479 22.2184C265.708 22.2118 265.842 22.2857 266.019 22.3234C266.076 22.3349 266.145 22.3366 266.21 22.3382C266.53 22.3448 266.724 22.2594 266.664 22.1396C266.621 22.0461 266.456 21.9903 266.257 22.0017C266.05 22.0132 265.838 22.0264 265.63 22.0395ZM291.675 18.4155C291.727 18.3876 291.783 18.3679 291.809 18.3433C291.887 18.2596 291.857 18.1972 291.714 18.1316C291.541 18.0511 291.329 18.1053 291.134 18.1135C291.087 18.1151 291.035 18.1496 291.009 18.1709C290.991 18.1857 290.991 18.2169 291.017 18.2251C291.229 18.2908 291.454 18.3515 291.675 18.4155ZM254.15 13.5671C253.942 13.5803 253.73 13.5901 253.523 13.6082C253.471 13.6131 253.423 13.6443 253.393 13.6656C253.337 13.705 253.397 13.7591 253.574 13.7641C253.778 13.7706 253.99 13.7427 254.202 13.7296C254.47 13.7132 254.63 13.6525 254.53 13.5999C254.435 13.5491 254.306 13.5392 254.15 13.5671ZM26.4514 10.0597C26.5898 10.0515 26.7325 10.0449 26.8709 10.0334C27.0007 10.0219 27.1003 9.98582 27.1652 9.93165C27.057 9.88898 26.9359 9.866 26.8018 9.87093C26.5898 9.88077 26.3822 9.8939 26.1746 9.91032C26.0448 9.92016 25.9194 9.95627 25.8891 10.0121C25.8588 10.0547 26.1486 10.0794 26.4514 10.0597ZM235.857 9.80691C235.913 9.82169 235.969 9.85123 236.025 9.85123C236.164 9.85123 236.306 9.84138 236.436 9.82497C236.492 9.8184 236.536 9.78886 236.562 9.76588C236.579 9.75111 236.575 9.72486 236.549 9.71173C236.423 9.63294 235.921 9.66084 235.839 9.75112C235.831 9.76753 235.852 9.78886 235.857 9.80691ZM222.209 0.819181C222.222 0.845442 222.226 0.871699 222.244 0.89796C222.278 0.947199 222.373 0.983315 222.512 1.00793C222.62 0.966902 222.676 0.920953 222.672 0.871714C222.668 0.845453 222.655 0.819176 222.637 0.792915C222.603 0.743676 222.508 0.70758 222.369 0.682961C222.261 0.722352 222.209 0.768301 222.209 0.819181ZM301.671 22.3251C301.633 22.3464 301.594 22.3677 301.55 22.3874C301.667 22.435 301.775 22.4498 301.858 22.4235C301.909 22.4071 301.94 22.3825 301.979 22.3612C301.862 22.3136 301.758 22.3005 301.671 22.3251ZM298.981 22.5483C299.037 22.5631 299.089 22.5828 299.15 22.5926C299.249 22.609 299.34 22.5811 299.409 22.522C299.353 22.5072 299.301 22.4876 299.24 22.4777C299.141 22.4613 299.05 22.4892 298.981 22.5483ZM300.685 22.2479C300.655 22.2873 300.716 22.3202 300.876 22.3481C300.915 22.3267 300.966 22.307 300.992 22.284C301.036 22.2463 300.962 22.2118 300.806 22.1856C300.763 22.2053 300.724 22.2266 300.685 22.2479ZM291.554 20.4786C291.523 20.518 291.584 20.5508 291.744 20.5787C291.783 20.5574 291.835 20.5377 291.861 20.5147C291.904 20.477 291.831 20.4425 291.675 20.4162C291.632 20.4359 291.593 20.4573 291.554 20.4786ZM279.113 8.86481C279.074 8.88615 279.035 8.90749 278.992 8.92718C279.109 8.97478 279.217 8.98955 279.299 8.96329C279.351 8.94687 279.381 8.92225 279.42 8.90092C279.303 8.85332 279.2 8.84019 279.113 8.86481ZM267.196 2.70338C267.3 2.71487 267.386 2.69191 267.46 2.63118C267.404 2.61641 267.352 2.59671 267.291 2.58686C267.192 2.57045 267.101 2.59836 267.032 2.65744C267.088 2.67386 267.144 2.68861 267.196 2.70338ZM260.868 2.31768C260.829 2.33902 260.79 2.36036 260.746 2.38005C260.863 2.42765 260.971 2.44242 261.054 2.41616C261.105 2.39974 261.136 2.37512 261.175 2.35379C261.058 2.30619 260.954 2.29471 260.868 2.31768ZM217.953 0.817538C217.914 0.838875 217.875 0.860213 217.832 0.879908C217.948 0.927506 218.057 0.942273 218.139 0.916012C218.191 0.899599 218.221 0.874979 218.26 0.853642C218.143 0.806044 218.039 0.79456 217.953 0.817538ZM4.26937 14.1711C4.21314 14.1563 4.15695 14.1416 4.10505 14.1252C3.9796 14.1695 3.94068 14.2105 4.00989 14.2417C4.05315 14.2614 4.11799 14.2729 4.17422 14.2877C4.30399 14.2433 4.33426 14.2039 4.26937 14.1711Z" fill="#4F9CF9"/>
</svg>
