<svg width="219" height="832" viewBox="0 0 219 832" fill="none" xmlns="http://www.w3.org/2000/svg">
<g opacity="0.2">
<path d="M122.51 323.167C124.194 328.936 124.177 336.328 122.259 346.636C116.903 374.059 86.7594 408.245 54.8694 444.354C37.3682 464.224 19.2572 484.741 5.22676 504.338C-21.6462 534.523 -33.7037 577.457 -45.4075 619.017C-53.9436 649.381 -62.0396 678.059 -75.3766 702.009L-75.4068 702.058C-85.9214 720.167 -98.188 730.448 -112.88 733.481C-141.55 739.414 -175.25 716.702 -214.269 690.36L-218.023 687.839C-247.058 668.338 -285.317 644.299 -342.024 609.816L-346.704 606.858C-396.1 575.682 -457.581 536.853 -504.975 478.622C-608.805 364.177 -591.274 237.347 -546.652 187.687C-493.164 134.187 -423.768 120.6 -281.299 135.685C-132.719 151.632 2.75363 234.595 54.0887 269.528C72.0593 284.572 86.6031 293.195 97.2201 299.465C110.646 307.451 119.437 312.634 122.51 323.167ZM-80.3462 699.579C-67.2989 676.157 -59.3008 647.752 -50.8097 617.69C-38.9818 575.643 -26.7401 532.124 0.742634 501.291C14.7618 481.655 32.9745 461.03 50.5472 441.101C81.9592 405.483 111.636 371.827 116.762 345.747C121.471 320.061 114.6 315.982 94.198 303.861C83.4116 297.467 68.6042 288.7 50.5169 273.561C-0.245892 239.068 -134.706 156.687 -281.96 140.87C-422.374 125.985 -490.562 139.15 -542.533 191.156C-585.804 239.362 -602.583 363.144 -500.718 475.417C-453.764 533.051 -392.716 571.612 -343.69 602.589L-339.021 605.508C-282.261 640.019 -243.95 664.086 -214.85 683.655L-211.097 686.177C-173.176 711.793 -140.417 733.865 -114.214 728.456C-101.118 725.732 -90.0706 716.29 -80.3462 699.579Z" fill="#A7CEFC"/>
<path d="M87.4886 340.172C89.8161 348.147 89.5468 357.26 88.0925 370.066L88.0774 370.319C82.6207 395.563 58.9167 420.318 33.8505 446.486C16.7019 464.357 -0.973611 482.856 -15.0956 503.343C-38.9944 533.208 -54.4614 567.181 -69.4243 599.993C-79.451 622.046 -88.9434 642.888 -100.612 661.901L-100.864 662.253C-136.586 703.907 -162.711 686.765 -210.159 655.697C-215.316 652.318 -220.748 648.758 -226.526 645.076C-236.671 637.529 -247.867 629.578 -259.739 621.129C-312.53 583.616 -384.824 532.186 -454.797 451.761C-532.873 351.626 -525.024 257.491 -482.641 208.555C-438.044 158.991 -367.642 156.651 -245.048 169.853C-120.081 186.621 -23.9337 249.694 27.7124 283.588L33.4717 287.358C68.5742 313.371 82.9692 324.685 87.4886 340.172ZM82.5595 369.353C86.4713 334.405 81.7544 329.798 30.1941 291.484L24.5929 287.799C-26.6617 254.183 -122.09 191.597 -245.638 174.978C-366.177 161.975 -435.315 164.088 -478.266 211.836C-519.291 259.192 -526.595 350.787 -450.352 448.592C-380.903 528.441 -308.906 579.612 -256.368 617.021C-244.495 625.47 -233.3 633.422 -223.219 640.901C-217.599 644.497 -212.167 648.058 -206.968 651.426C-159.467 682.522 -137.739 696.763 -105.328 659.119C-93.882 640.41 -84.51 619.763 -74.551 597.934C-59.5016 564.811 -43.8841 530.593 -19.6918 500.366C-5.44938 479.683 12.3992 461.017 29.6795 442.989C54.1662 417.42 77.3208 393.216 82.5595 369.353Z" fill="#A7CEFC"/>
<path d="M58.3722 354.58C61.3434 364.762 60.2087 375.165 57.0197 388.563C50.0914 411.346 28.4967 433.588 5.6829 457.126C-7.90079 471.09 -21.9097 485.573 -34.0818 501.181C-53.7871 523.664 -69.0399 548.329 -83.8336 572.134C-95.9674 591.674 -107.398 610.129 -120.228 625.609L-120.432 625.825C-155.607 659.457 -182.214 640.195 -230.54 605.198L-231.101 604.797L-239.382 598.162C-286.398 560.353 -350.805 508.566 -409.356 430.319C-473.951 336.837 -457.431 263.148 -423.728 228.425C-387.789 191.327 -327.326 183.381 -215.039 200.982C-136.399 214.58 -59.1242 249.342 14.6276 304.266C41.4464 325.924 54.1244 340.024 58.3722 354.58ZM-124.602 622.328C-112.046 607.123 -100.695 588.854 -88.7229 569.519C-73.8501 545.529 -58.4243 520.697 -38.5571 498.009C-26.3362 482.264 -12.1729 467.701 1.51237 453.629C23.9311 430.562 45.078 408.762 51.6188 387.237C58.9521 356.72 54.7648 343.435 11.0869 308.249C-61.9121 253.928 -138.325 219.535 -215.983 206.11C-326.129 188.854 -385.135 196.317 -419.64 231.942C-454.604 267.971 -463.593 342.379 -404.81 427.499C-346.711 505.111 -282.643 556.65 -235.818 594.257L-227.199 601.14C-178.534 636.385 -156.255 652.522 -124.602 622.328Z" fill="#A7CEFC"/>
<path d="M31.1039 365.121C34.4249 376.501 33.3621 388.213 28.6458 402.151L28.627 402.239C20.7059 423.438 0.178535 444.005 -21.5076 465.769C-31.5681 475.836 -41.9221 486.266 -51.5158 497.173C-65.8766 512.115 -78.574 527.893 -90.8048 543.141C-105.839 561.858 -120.052 579.585 -135.072 592.574C-167.7 616.823 -193.533 599.448 -232.301 567.996C-269.877 535.007 -324.815 483.263 -368.531 414.031C-405.015 346.628 -408.009 290.153 -377.049 254.864C-343.708 216.79 -275.915 207.538 -191.036 229.47C-92.6486 250.112 -22.8048 303.831 -3.7686 319.808C15.7947 336.983 26.9244 350.798 31.1039 365.121ZM23.3434 400.552C32.1103 374.498 29.7364 356.33 -7.53089 323.638C-26.2698 307.919 -95.2028 254.889 -192.356 234.524C-275.12 213.15 -340.836 221.768 -372.706 258.193C-402.195 291.834 -398.945 346.296 -363.602 411.615C-320.319 480.124 -265.795 531.513 -228.528 564.205C-188.645 596.586 -166.753 609.579 -138.647 588.682C-124.169 576.118 -110.118 558.596 -95.2156 540.036C-82.8832 524.68 -70.1671 508.815 -55.6934 493.803C-46.111 482.858 -35.6329 472.397 -25.5422 462.281C-4.3264 440.881 15.7834 420.708 23.3434 400.552Z" fill="#A7CEFC"/>
<path d="M5.81697 373.481C9.34117 385.558 8.15427 397.756 2.66294 411.47L2.46359 411.851C-32.4533 467.777 -126.691 546.927 -145.206 562.226L-145.657 562.503C-174.087 577.878 -197.283 564.668 -230.131 534.955C-259.772 506.653 -301.402 460.682 -331.632 402.24C-357.665 347.992 -357.203 302.452 -330.345 273.939C-300.5 242.286 -243.057 235.579 -172.745 255.493C-105.793 271.795 -50.8826 306.575 -21.851 333.7C-6.95501 347.957 2.07816 360.669 5.81697 373.481ZM-2.46246 409.412C7.93339 383.166 1.60455 363.607 -25.7938 337.366C-54.2834 310.73 -108.253 276.59 -174.211 260.5C-241.476 241.454 -298.23 247.784 -326.145 277.386C-351.521 304.29 -351.705 347.895 -326.582 400.085C-296.691 457.822 -255.48 503.274 -226.188 531.289C-194.774 559.736 -174.114 571.703 -148.661 558.14C-95.4768 514.189 -29.2126 452.127 -2.46246 409.412Z" fill="#A7CEFC"/>
<path d="M-17.4718 381.386C-13.6992 394.314 -15.029 406.63 -21.4539 417.296C-46.6982 459.848 -110.524 513.385 -152.061 534.763C-161.87 539.002 -172.639 539.038 -184.116 534.975C-219.492 522.439 -262.163 470.005 -298.254 394.67C-315.781 351.482 -312.721 315.301 -289.64 292.697C-263.486 267.096 -215.96 262.29 -159.301 279.505C-87.3001 302.321 -35.1908 337.997 -19.8059 374.908C-18.861 377.082 -18.093 379.257 -17.4718 381.386ZM-298.863 376.318C-297.304 381.659 -295.399 387.123 -293.107 392.698C-257.694 466.623 -216.2 518.061 -182.179 530.06C-172.086 533.633 -162.815 533.634 -154.583 530.074C-113.9 509.113 -51.0937 456.49 -26.3008 414.672C-19.6766 403.625 -19.2085 390.484 -24.9567 376.715C-39.747 341.233 -90.5918 306.699 -160.978 284.398C-214.713 268.081 -261.292 272.489 -285.584 296.262C-304.176 314.485 -308.724 342.527 -298.863 376.318Z" fill="#A7CEFC"/>
</g>
</svg>
