<svg width="326" height="45" viewBox="0 0 326 45" fill="none" xmlns="http://www.w3.org/2000/svg">
<path d="M305.988 23.808C305.543 23.845 305.093 23.8705 304.656 23.926C304.373 23.9607 304.251 23.8589 304.062 23.8057C303.999 23.7872 303.932 23.7502 303.873 23.7548C303.432 23.7918 302.991 23.8334 302.55 23.8751C302.415 23.9653 302.33 24.0856 302.123 24.1296C301.92 24.1712 301.682 24.1712 301.457 24.192C301.16 24.2175 300.863 24.2429 300.566 24.2661C300.417 24.2776 300.296 24.3216 300.246 24.4049C300.237 24.4188 300.336 24.4534 300.39 24.4743C300.57 24.5437 300.746 24.6223 300.944 24.6755C301.133 24.7264 301.367 24.6431 301.569 24.7079C302.024 24.8537 302.028 24.8514 302.375 24.8236C302.672 24.7981 302.969 24.7704 303.266 24.7519C303.324 24.7473 303.392 24.782 303.455 24.8005C303.644 24.8514 303.765 24.967 304.044 24.9231C304.256 24.8884 304.49 24.8814 304.71 24.8629C304.895 24.93 305.066 25.0064 305.264 25.0596C305.449 25.1105 305.503 25.1498 305.404 25.2169C305.314 25.2794 305.187 25.3048 305.021 25.3094C304.872 25.3118 304.724 25.3325 304.575 25.3441C304.499 25.3511 304.427 25.3557 304.355 25.3626C304.071 25.3881 304.071 25.3881 303.554 25.24C303.351 25.1822 303.122 25.2632 302.928 25.2076C302.798 25.1706 302.685 25.1151 302.559 25.0758C302.505 25.0596 302.42 25.0573 302.352 25.0619C302.127 25.0781 301.902 25.0896 301.686 25.1197C301.533 25.1405 301.443 25.2053 301.461 25.2701C301.466 25.2955 301.574 25.3326 301.637 25.3349C301.781 25.3395 301.934 25.3071 302.073 25.3233C302.208 25.3395 302.348 25.3858 302.447 25.4367C302.649 25.5431 302.879 25.4482 303.072 25.476C303.275 25.5061 303.441 25.5986 303.635 25.6541C303.684 25.668 303.779 25.6449 303.855 25.6379C304.076 25.6217 304.296 25.6079 304.517 25.5917C304.702 25.6588 304.9 25.7189 305.066 25.7953C305.368 25.9341 305.692 25.9872 306.083 25.9202C306.304 25.8831 306.52 25.897 306.695 25.9873C306.875 26.0798 307.082 26.0705 307.312 26.052C307.523 26.0335 307.739 25.9826 307.955 26.0474C308.423 26.1908 308.428 26.1978 308.981 26.1423C309.148 26.1261 309.274 26.1214 309.4 26.1747C309.517 26.2232 309.643 26.2649 309.764 26.3111C309.985 26.2949 310.21 26.2788 310.43 26.2603C310.714 26.2348 310.871 26.2672 310.939 26.3967C310.979 26.4754 310.997 26.5471 311.096 26.6003C311.213 26.6651 311.339 26.6628 311.51 26.6443C311.672 26.6281 311.789 26.6026 311.857 26.5194C311.884 26.4847 311.938 26.4523 311.987 26.4245C312.028 26.4037 312.091 26.3713 312.127 26.3759C312.194 26.3852 312.284 26.4106 312.307 26.4407C312.527 26.7206 312.527 26.7229 312.752 26.8039C313 26.8941 313.257 26.9751 313.482 27.0769C313.684 27.1671 313.887 27.1278 314.107 27.1278C314.274 27.1278 314.382 27.1879 314.368 27.2481C314.359 27.2828 314.296 27.3337 314.242 27.3383C313.801 27.3846 313.356 27.4239 312.91 27.4563C312.856 27.4609 312.789 27.4193 312.726 27.3984C312.6 27.3568 312.487 27.292 312.352 27.2781C312.217 27.2643 312.059 27.299 311.911 27.3105C311.762 27.3221 311.605 27.3522 311.47 27.3337C311.335 27.3152 311.227 27.2481 311.101 27.2041C311.042 27.1833 310.961 27.1532 310.912 27.1602C310.583 27.2157 310.34 27.1394 310.106 27.0376C310.057 27.0167 309.971 27.0029 309.908 27.0075C309.386 27.0468 308.869 27.0931 308.347 27.137C308.135 27.1555 307.964 27.0746 307.919 26.9381C307.897 26.8617 307.852 26.7854 307.852 26.709C307.852 26.5702 307.604 26.4939 307.424 26.5101C307.127 26.5332 306.826 26.5517 306.533 26.5864C306.295 26.6142 306.092 26.5864 305.93 26.5031C305.741 26.4083 305.525 26.4268 305.309 26.4523C305.147 26.4708 305.102 26.5471 305.111 26.7391C305.12 26.8941 305.043 26.9427 304.751 26.9681C304.382 27.0005 304.008 27.0329 303.635 27.0584C303.576 27.063 303.509 27.0237 303.45 27.0029C303.324 26.9612 303.212 26.8941 303.077 26.8802C302.942 26.864 302.784 26.8987 302.636 26.9126C302.487 26.9242 302.33 26.9566 302.195 26.9404C302.06 26.9242 301.947 26.8548 301.826 26.8109C301.767 26.79 301.695 26.7599 301.637 26.7646C301.34 26.7831 301.043 26.8108 300.746 26.8363C300.413 26.8641 300.413 26.8641 299.94 26.7206C299.724 26.6558 299.508 26.7067 299.297 26.7253C299.072 26.7438 298.86 26.753 298.684 26.6605C298.567 26.6003 298.437 26.5633 298.298 26.5749C297.924 26.6026 297.555 26.6373 297.181 26.6651C297.118 26.6697 297.033 26.6582 296.983 26.6373C296.745 26.5402 296.511 26.4638 296.178 26.5124C295.89 26.5541 295.579 26.5564 295.291 26.5957C295.134 26.6165 295.062 26.6905 295.093 26.7484C295.111 26.7785 295.206 26.8132 295.269 26.8132C295.413 26.8155 295.57 26.7808 295.705 26.7946C295.984 26.8224 296.124 27.0167 296.488 26.9635C296.704 26.9311 296.929 26.9196 297.154 26.9103C297.213 26.908 297.276 26.952 297.339 26.9751C297.519 27.0376 297.676 27.1185 297.937 27.0769C298.154 27.0445 298.383 27.0353 298.604 27.0168C298.955 26.9867 298.955 26.989 299.409 27.1301C299.625 27.1972 299.841 27.144 300.053 27.1278C300.21 27.1162 300.359 27.0931 300.485 27.1255C300.678 27.1741 300.818 27.2851 301.056 27.2781C301.281 27.2712 301.502 27.2388 301.727 27.2273C301.866 27.2203 301.997 27.2573 302.109 27.3198C302.226 27.3823 302.352 27.41 302.505 27.3961C302.726 27.3776 302.951 27.3545 303.176 27.3429C303.239 27.3406 303.311 27.3614 303.369 27.3799C303.495 27.4216 303.617 27.4702 303.738 27.5141C303.959 27.5002 304.184 27.4956 304.4 27.4679C304.566 27.447 304.683 27.4563 304.818 27.5026C304.989 27.565 305.129 27.6761 305.408 27.6229C305.548 27.5974 305.71 27.6043 305.849 27.5812C306.02 27.5511 306.137 27.5627 306.259 27.6321C306.488 27.764 306.776 27.7663 307.073 27.7154C307.397 27.6599 307.64 27.7247 307.883 27.8265C308.14 27.9329 308.14 27.9305 308.338 28.1873C308.396 28.2614 308.563 28.2961 308.702 28.2822C308.936 28.2591 309.139 28.2706 309.31 28.3585C309.49 28.4534 309.706 28.4418 309.926 28.4164C310.219 28.3817 310.511 28.3516 310.75 28.4858C310.867 28.5506 310.993 28.5667 311.15 28.5505C311.596 28.5089 312.046 28.4835 312.483 28.4326C312.748 28.4002 312.901 28.4742 313.081 28.5367C313.324 28.6223 313.59 28.6986 313.59 28.8814C313.59 28.9114 313.653 28.9461 313.707 28.9693C313.824 29.0179 313.95 29.0595 314.071 29.1058C314.251 29.1752 314.427 29.233 314.674 29.196C314.89 29.1659 315.12 29.1567 315.34 29.1358C315.561 29.115 315.763 29.1034 315.961 29.1914C316.191 29.2908 316.434 29.3857 316.695 29.4597C316.879 29.5129 317.122 29.4227 317.32 29.4944C317.442 29.5384 317.559 29.5893 317.689 29.6263C317.743 29.6425 317.829 29.6309 317.901 29.6263C318.049 29.617 318.202 29.6101 318.346 29.587C318.513 29.5615 318.639 29.5662 318.765 29.6194C318.882 29.6679 318.999 29.735 319.134 29.7489C319.337 29.7697 319.561 29.6772 319.764 29.7836C319.867 29.8368 319.998 29.8877 320.133 29.9039C320.268 29.9201 320.426 29.8854 320.57 29.8877C320.633 29.8877 320.709 29.9247 320.745 29.9548C320.768 29.971 320.736 30.0149 320.705 30.0381C320.664 30.0658 320.606 30.1029 320.547 30.1075C320.102 30.1491 319.656 30.1838 319.21 30.2232C318.945 30.2463 318.945 30.2463 318.409 30.1005C318.283 30.0658 318.144 30.0728 317.986 30.089C317.775 30.1098 317.559 30.1491 317.338 30.1075C317.05 29.9502 316.695 29.9363 316.317 29.9964C316.159 30.0219 316.015 30.0219 315.898 29.9779C315.651 29.89 315.39 29.8091 315.169 29.705C314.998 29.624 314.917 29.617 314.845 29.7281C314.823 29.7628 314.8 29.7998 314.805 29.8322C314.832 29.9479 314.881 30.0612 314.908 30.1769C314.917 30.2093 314.881 30.2463 314.859 30.281C314.787 30.3782 314.692 30.3712 314.535 30.2902C314.377 30.2093 314.188 30.1561 313.936 30.1931C313.72 30.2255 313.486 30.2209 313.27 30.2556C312.937 30.3065 312.703 30.2324 312.465 30.1329C312.415 30.1121 312.33 30.1005 312.267 30.1052C311.596 30.1584 310.93 30.2185 310.259 30.2717C310.115 30.2833 309.985 30.2486 309.872 30.1861C309.755 30.1237 309.625 30.0913 309.481 30.1029C308.887 30.1514 308.293 30.1954 307.699 30.2556C307.456 30.281 307.262 30.2509 307.096 30.1699C306.97 30.1098 306.853 30.0913 306.695 30.0982C306.524 30.1052 306.403 30.1283 306.317 30.1954C306.236 30.2602 306.295 30.2995 306.475 30.3504C306.668 30.4059 306.848 30.4776 307.033 30.5424C307.181 30.5332 307.33 30.5146 307.474 30.5169C307.537 30.5169 307.595 30.5586 307.658 30.5817C307.838 30.6488 308.005 30.7159 308.261 30.6789C308.477 30.6465 308.707 30.6396 308.927 30.6188C309.233 30.5933 309.233 30.5933 309.728 30.7391C309.854 30.7761 309.989 30.7737 310.151 30.7529C310.291 30.7367 310.435 30.7691 310.534 30.8385C310.574 30.8663 310.561 30.9126 310.475 31.0653C310.475 31.1786 310.57 31.1277 310.601 31.0537C310.651 30.9473 310.556 30.9126 310.376 30.9704C310.25 31.012 310.187 31.0722 310.219 31.1208C310.237 31.1462 310.322 31.1786 310.475 31.0653C310.871 30.9265 311.173 30.9102 311.461 30.8732C311.632 30.8524 311.74 30.8616 311.875 30.9218C312.037 30.9935 312.199 31.0699 312.465 31.0329C312.753 30.9912 313.059 30.9866 313.351 30.9519C313.621 30.9195 313.761 31.0213 313.932 31.0814C314.139 31.1532 314.368 31.0722 314.557 31.1138C314.755 31.1555 314.895 31.2573 315.124 31.2758C315.457 31.2133 315.669 31.329 315.921 31.4053C316.119 31.4632 316.353 31.4122 316.564 31.3868C316.803 31.359 317.001 31.3845 317.167 31.4678C317.356 31.5626 317.568 31.5418 317.784 31.521C318.288 31.4747 318.306 31.4678 318.598 31.595C318.81 31.6876 319.012 31.6459 319.224 31.6344C319.408 31.6968 319.589 31.7639 319.782 31.8194C319.832 31.8333 319.926 31.8102 320.003 31.8032C320.223 31.7847 320.448 31.7662 320.669 31.7477C320.817 31.7361 320.975 31.7014 321.11 31.7153C321.245 31.7315 321.357 31.7986 321.479 31.8426C321.6 31.8865 321.726 31.9305 321.843 31.9767C322.023 32.0461 322.194 32.104 322.446 32.0693C322.662 32.0392 322.887 32.0299 323.112 32.0091C323.396 31.9837 323.387 31.9906 323.913 32.1294C324.197 32.2058 324.489 32.1132 324.777 32.104C324.921 32.0994 325.061 32.1248 325.16 32.1919C325.2 32.2197 325.187 32.2659 325.2 32.3053C324.458 32.3677 323.711 32.4209 322.977 32.4973C322.694 32.5273 322.545 32.444 322.392 32.3746C322.14 32.2636 321.807 32.4255 321.569 32.2821C321.425 32.1965 321.218 32.1479 320.97 32.1896C320.826 32.2127 320.673 32.2104 320.525 32.2312C320.146 32.2821 319.8 32.2844 319.498 32.1248C319.395 32.0693 319.247 32.0392 319.138 31.986C319.012 31.9282 318.891 31.8958 318.742 31.9073C318.072 31.9628 317.406 32.0184 316.74 32.0785C316.681 32.0831 316.623 32.1178 316.573 32.1433C316.447 32.2081 316.488 32.259 316.69 32.3006C316.758 32.3145 316.812 32.3446 316.875 32.3677C316.996 32.4116 317.109 32.4811 317.244 32.4973C317.379 32.5135 317.536 32.4811 317.685 32.4695C317.833 32.4579 317.991 32.4232 318.126 32.4371C318.261 32.4533 318.373 32.5204 318.499 32.562C318.558 32.5829 318.63 32.6176 318.688 32.6152C318.985 32.6014 319.278 32.5759 319.575 32.5551C319.76 32.6176 319.917 32.7078 320.138 32.7286C320.277 32.7425 320.426 32.717 320.57 32.7217C320.633 32.724 320.714 32.7587 320.745 32.7888C320.763 32.8073 320.705 32.8535 320.66 32.8767C320.489 32.9646 320.255 32.9484 320.043 32.9761C319.814 33.0062 319.606 32.997 319.431 32.9067C319.314 32.8466 319.183 32.8142 319.039 32.8258C318.666 32.8559 318.297 32.8906 317.923 32.916C317.86 32.9206 317.784 32.8998 317.725 32.8836C317.253 32.7425 317.253 32.7379 316.92 32.7679C316.429 32.8119 316.429 32.8119 316.101 32.6893C316.038 32.6661 315.97 32.6222 315.916 32.6245C315.394 32.6615 314.877 32.6985 314.359 32.7517C314.188 32.7679 314.071 32.7679 313.945 32.7078C313.837 32.6569 313.711 32.5991 313.576 32.5852C313.437 32.5713 313.284 32.606 313.135 32.6176C312.987 32.6291 312.829 32.6592 312.699 32.6407C312.564 32.6222 312.446 32.5574 312.329 32.5112C312.208 32.4626 312.077 32.4649 311.911 32.4834C311.398 32.5366 311.393 32.5297 310.885 32.3862C310.826 32.37 310.75 32.3515 310.687 32.3561C310.313 32.3839 309.944 32.4186 309.571 32.4464C309.427 32.4579 309.287 32.4279 309.188 32.3608C309.148 32.333 309.161 32.2867 309.134 32.1965C309.103 32.1757 309.139 32.2127 309.148 32.2474C309.215 32.2428 309.296 32.2474 309.346 32.2289C309.472 32.1849 309.535 32.1271 309.503 32.0785C309.485 32.0531 309.4 32.0207 309.346 32.0207C309.247 32.0207 309.161 32.0716 309.134 32.1965C308.851 32.2728 308.549 32.2891 308.257 32.3261C308.086 32.3492 307.978 32.3376 307.843 32.2775C307.681 32.2035 307.514 32.1317 307.249 32.1687C306.961 32.2104 306.655 32.2173 306.358 32.2497C306.016 32.2867 305.867 32.0785 305.579 32.0831C305.282 32.0878 304.985 32.1271 304.688 32.1549C304.427 32.178 304.427 32.178 303.887 32.0276C303.689 31.9721 303.455 32.0531 303.261 31.9952C303.131 31.9582 303.018 31.9027 302.892 31.8634C302.838 31.8472 302.753 31.8472 302.685 31.8518C302.312 31.8796 301.934 31.8981 301.574 31.949C301.164 32.0091 300.854 31.9444 300.561 31.8079C300.192 31.8333 299.819 31.8472 299.454 31.8911C299.189 31.9235 299.036 31.8472 298.856 31.7847C298.793 31.7639 298.739 31.7292 298.671 31.7199C298.604 31.7107 298.522 31.7292 298.45 31.7361C298.153 31.7616 297.847 31.7732 297.559 31.8148C297.204 31.868 297.069 31.6783 296.794 31.6552C296.61 31.7685 296.511 31.9235 296.146 31.9351C295.849 31.9443 295.552 31.9814 295.255 32.0068C295.107 32.0184 294.958 32.0323 294.81 32.0438C294.571 32.0647 294.459 32.1549 294.508 32.2937C294.535 32.37 294.558 32.4464 294.58 32.5227C294.625 32.6592 294.513 32.7749 294.324 32.7911C293.802 32.835 293.284 32.8813 292.762 32.9206C292.623 32.9322 292.488 32.8928 292.375 32.8304C292.258 32.7679 292.128 32.7402 291.984 32.7517C291.462 32.7957 290.944 32.842 290.422 32.8813C290.363 32.8859 290.287 32.8628 290.228 32.8443C290.102 32.8026 289.981 32.7541 289.859 32.7101C289.562 32.7309 289.27 32.7448 288.977 32.7725C288.505 32.8142 288.505 32.8165 288.158 32.6893C288.095 32.6661 288.032 32.6222 287.974 32.6245C287.749 32.6338 287.528 32.6569 287.303 32.6777C286.642 32.7379 286.642 32.7379 286.448 32.6684C286.273 32.6037 286.115 32.525 285.85 32.562C285.562 32.6037 285.256 32.6176 284.959 32.6407C284.738 32.6569 284.518 32.6754 284.297 32.68C284.238 32.6823 284.176 32.6384 284.113 32.6152C283.933 32.5435 283.757 32.4857 283.509 32.525C283.365 32.5482 283.212 32.5528 283.064 32.5644C282.677 32.5967 282.677 32.5967 282.042 32.4579C281.979 32.444 281.903 32.4279 281.84 32.4348C281.318 32.4764 280.8 32.5227 280.278 32.562C280.215 32.5667 280.139 32.5528 280.076 32.5412C279.365 32.407 279.365 32.407 278.609 32.4718C278.321 32.4949 278.312 32.5042 278.01 32.3816C277.875 32.3284 277.763 32.3029 277.605 32.3191C277.011 32.3746 276.413 32.4117 275.823 32.4764C275.557 32.5042 275.404 32.4348 275.224 32.3723C275.161 32.3515 275.094 32.3053 275.04 32.3076C274.446 32.3515 273.852 32.4047 273.258 32.4487C273.204 32.4533 273.136 32.407 273.073 32.3862C272.952 32.3446 272.835 32.2821 272.7 32.2682C272.56 32.2544 272.407 32.2891 272.254 32.3006C271.881 32.3307 271.881 32.3284 271.449 32.1919C271.39 32.1734 271.314 32.1479 271.255 32.1526C270.661 32.1988 270.063 32.2382 269.473 32.3053C269.135 32.3423 268.906 32.2752 268.667 32.178C268.618 32.1572 268.532 32.1479 268.469 32.1526C267.799 32.2058 267.133 32.2659 266.462 32.3191C266.323 32.3307 266.188 32.2914 266.075 32.2312C265.895 32.1364 265.684 32.1479 265.459 32.1687C264.941 32.2173 264.937 32.215 264.631 32.104C264.568 32.0809 264.514 32.0508 264.446 32.0392C264.383 32.0276 264.302 32.0346 264.235 32.0392C263.938 32.0623 263.641 32.0878 263.344 32.1132C263.047 32.1387 262.745 32.1526 262.452 32.1919C262.092 32.2405 261.921 32.0901 261.669 32.0207C261.3 32.0508 260.922 32.0693 260.558 32.1179C260.279 32.1549 260.148 32.0531 259.964 31.9999C259.901 31.9814 259.833 31.942 259.775 31.9467C259.104 31.9976 258.434 32.0531 257.768 32.1155C257.606 32.1294 257.498 32.1109 257.363 32.0554C257.061 31.9305 257.048 31.9351 256.544 31.9814C256.323 32.0022 256.112 32.0207 255.923 31.9258C255.756 31.8403 255.554 31.8194 255.315 31.8472C255.023 31.8819 254.721 31.9004 254.424 31.9235C254.127 31.949 253.83 31.9837 253.533 31.9952C253.294 32.0068 253.15 31.8981 252.961 31.8426C252.903 31.8264 252.822 31.824 252.754 31.8287C252.457 31.8495 252.151 31.8657 251.863 31.905C251.512 31.9536 251.319 31.8264 251.071 31.7523C251.017 31.7361 250.927 31.7454 250.86 31.7523C250.338 31.794 249.82 31.8402 249.298 31.8842C249.114 31.8217 248.925 31.7616 248.74 31.6991C248.443 31.7223 248.146 31.7477 247.849 31.7708C247.624 31.7893 247.394 31.7963 247.183 31.831C246.908 31.8773 246.773 31.7685 246.589 31.7153C246.526 31.6968 246.458 31.6575 246.4 31.6621C246.026 31.6876 245.653 31.7153 245.284 31.7547C244.933 31.794 244.793 31.5858 244.505 31.5881C244.208 31.5904 243.902 31.6205 243.614 31.6621C243.281 31.7107 243.047 31.6367 242.809 31.5372C242.759 31.5164 242.674 31.5048 242.611 31.5094C242.237 31.5372 241.868 31.5719 241.495 31.5996C241.432 31.6043 241.355 31.5927 241.292 31.5788C240.581 31.4423 240.581 31.44 240.271 31.4678C240.05 31.4863 239.825 31.5094 239.6 31.521C239.537 31.5256 239.46 31.5048 239.402 31.4863C238.934 31.3452 238.934 31.3429 238.596 31.3706C238.299 31.3961 238.002 31.4215 237.705 31.447C237.521 31.3845 237.332 31.3244 237.147 31.2619C236.778 31.292 236.4 31.3151 236.036 31.3567C235.865 31.3752 235.752 31.3683 235.622 31.3105C235.46 31.2411 235.298 31.1601 235.028 31.1994C234.74 31.2411 234.434 31.2457 234.141 31.2804C233.79 31.322 233.646 31.1115 233.362 31.1138C233.065 31.1161 232.759 31.1462 232.471 31.1878C232.138 31.2364 231.904 31.1624 231.666 31.0629C231.616 31.0421 231.531 31.0306 231.468 31.0352C230.649 31.1023 229.834 31.1693 229.015 31.2411C228.511 31.285 228.511 31.2873 227.553 31.1601C227.485 31.1508 227.413 31.1416 227.346 31.1462C227.048 31.167 226.742 31.1832 226.454 31.2226C226.103 31.2711 225.91 31.1462 225.662 31.0699C225.608 31.0537 225.523 31.0629 225.451 31.0675C225.226 31.0837 225.005 31.1046 224.78 31.1231C224.483 31.1485 224.186 31.174 223.889 31.1994C223.705 31.1393 223.516 31.0768 223.331 31.0167C222.962 31.0467 222.584 31.0629 222.22 31.1115C221.941 31.1485 221.81 31.0514 221.626 30.9958C221.563 30.9773 221.495 30.938 221.437 30.9403C220.766 30.9912 220.096 31.0444 219.43 31.1092C219.155 31.137 219.029 31.0328 218.844 30.9796C218.781 30.9634 218.709 30.9334 218.651 30.938C218.205 30.9704 217.76 31.0097 217.314 31.049C217.062 31.0722 217.062 31.0722 216.513 30.9287C216.45 30.9125 216.378 30.8964 216.315 30.901C214.902 31.0167 213.494 31.1393 212.08 31.2549C211.936 31.2665 211.806 31.2318 211.694 31.1694C211.577 31.1069 211.446 31.0745 211.302 31.0861C210.708 31.1347 210.109 31.1786 209.52 31.2388C209.277 31.2642 209.083 31.2341 208.917 31.1531C208.791 31.093 208.674 31.0699 208.516 31.0838C208.219 31.1115 207.922 31.1346 207.625 31.1601C207.328 31.1855 207.031 31.211 206.734 31.2365C206.437 31.2619 206.136 31.2758 205.843 31.3151C205.483 31.3637 205.308 31.2203 205.06 31.1485C204.615 31.1832 204.169 31.2179 203.728 31.2549C203.134 31.3035 202.54 31.3567 201.946 31.403C201.892 31.4076 201.824 31.366 201.761 31.3452C201.577 31.2873 201.442 31.2064 201.167 31.2318C199.835 31.3544 198.494 31.4585 197.157 31.5788C196.878 31.6043 196.757 31.5048 196.568 31.4516C196.505 31.4354 196.433 31.403 196.374 31.4076C195.632 31.4655 194.889 31.5302 194.147 31.5927C193.845 31.6181 193.845 31.6181 193.341 31.4747C193.283 31.4585 193.206 31.4377 193.143 31.4423C192.176 31.521 191.213 31.6043 190.245 31.6852C190.101 31.6968 189.971 31.6644 189.853 31.602C189.741 31.5395 189.606 31.5048 189.466 31.5164C188.575 31.5904 187.68 31.6621 186.793 31.7431C186.555 31.7662 186.357 31.7454 186.186 31.6621C186.064 31.602 185.943 31.5765 185.79 31.5904C184.453 31.7037 183.116 31.8125 181.78 31.9328C181.523 31.9559 181.343 31.912 181.181 31.8356C181.051 31.7755 180.938 31.7639 180.776 31.7732C180.605 31.7847 180.502 31.8102 180.407 31.8796C180.286 31.9698 180.209 32.0832 179.921 32.0901C179.624 32.097 179.323 32.1248 179.03 32.1641C178.751 32.2035 178.621 32.0993 178.445 32.0369C178.315 31.9929 178.193 31.986 178.027 32.0068C177.874 32.0253 177.779 32.0646 177.689 32.1387C177.491 32.296 177.473 32.296 177.23 32.1965C177.1 32.1433 176.983 32.1017 176.839 32.1109C176.244 32.1572 175.65 32.2081 175.056 32.2613C174.714 32.2914 174.71 32.296 174.453 32.1803C174.327 32.1225 174.206 32.0947 174.057 32.1086C172.424 32.2474 170.79 32.3816 169.157 32.5273C168.905 32.5505 168.733 32.5019 168.553 32.4325C168.495 32.4093 168.437 32.3769 168.369 32.3677C168.301 32.3584 168.225 32.3677 168.153 32.3723C166.965 32.4718 165.772 32.5667 164.589 32.6777C164.319 32.7032 164.175 32.6291 163.99 32.569C163.927 32.5482 163.873 32.5158 163.806 32.5065C163.738 32.4996 163.657 32.5158 163.585 32.5227C162.397 32.6222 161.204 32.717 160.021 32.8281C159.737 32.8535 159.616 32.7564 159.431 32.7055C159.368 32.687 159.301 32.6522 159.242 32.6569C158.869 32.6823 158.5 32.717 158.126 32.7471C157.235 32.8234 156.344 32.8952 155.453 32.9738C155.111 33.0039 154.962 32.798 154.674 32.8073C154.301 32.8188 153.932 32.8651 153.558 32.8975C153.261 32.9229 152.964 32.9461 152.667 32.9738C152.375 32.9993 152.375 32.9993 151.646 32.8651C151.583 32.8535 151.506 32.8373 151.443 32.842C150.404 32.9276 149.36 33.0132 148.325 33.1057C148.086 33.1265 147.888 33.115 147.717 33.0294C147.595 32.9692 147.47 32.9391 147.321 32.953C145.759 33.0849 144.202 33.2167 142.641 33.3463C142.582 33.3509 142.506 33.3278 142.447 33.3093C142.321 33.2676 142.2 33.2191 142.078 33.1751C141.988 33.2283 141.871 33.2769 141.813 33.337C141.732 33.418 141.624 33.4411 141.453 33.455C141.282 33.4689 141.174 33.4643 141.039 33.4041C140.877 33.3301 140.71 33.2722 140.445 33.2954C138.811 33.4411 137.177 33.573 135.544 33.7164C135.274 33.7396 135.148 33.6378 134.959 33.5846C134.896 33.5684 134.824 33.5429 134.765 33.5476C134.095 33.6008 133.429 33.6586 132.758 33.7141C130.899 33.8714 129.041 34.0218 127.187 34.1884C126.849 34.2185 126.62 34.1606 126.381 34.0611C126.332 34.0403 126.246 34.0288 126.183 34.0334C123.582 34.2508 120.981 34.4706 118.384 34.6904C118.244 34.702 118.109 34.6649 117.997 34.6048C117.88 34.5423 117.749 34.5123 117.605 34.5238C116.417 34.6233 115.229 34.7228 114.041 34.8246C113.744 34.85 113.74 34.8523 113.434 34.7413C113.371 34.7181 113.303 34.6742 113.254 34.6788C113.15 34.6904 113.051 34.7482 112.979 34.8269C112.907 34.9102 112.795 34.9333 112.628 34.9495C112.457 34.9657 112.345 34.9588 112.214 34.9032C112.048 34.8338 111.895 34.7667 111.625 34.7899C108.209 35.086 104.793 35.3705 101.377 35.6643C101.103 35.6875 100.977 35.5903 100.788 35.5371C100.725 35.5209 100.662 35.4978 100.594 35.4931C100.522 35.4885 100.446 35.5024 100.374 35.5094C94.8023 35.979 89.231 36.4509 83.6596 36.9205C83.3266 36.9483 83.3311 36.9483 82.9666 37.1611C82.9215 37.1866 82.863 37.2213 82.8 37.2259C81.0944 37.374 79.3843 37.5174 77.6742 37.6608C76.9316 37.7233 76.1891 37.7881 75.4465 37.8482C75.181 37.869 75.181 37.8691 74.5465 38.1189C74.4925 38.1397 74.4294 38.1675 74.3664 38.1721C71.3962 38.4243 68.426 38.6764 65.4513 38.924C65.2172 38.9425 65.0283 38.9841 64.9202 39.0952C64.8437 39.1738 64.7448 39.2201 64.5962 39.234C62.5171 39.4098 60.438 39.5879 58.3544 39.7591C58.1068 39.7799 57.9583 39.8447 57.8368 39.9419C57.7963 39.9743 57.7602 40.0113 57.7017 40.0344C57.6477 40.0552 57.5667 40.0622 57.4992 40.0691C55.7171 40.2195 53.935 40.3745 52.1484 40.5179C51.8829 40.5388 51.7748 40.6244 51.6443 40.7146C51.5993 40.7447 51.5678 40.7863 51.5093 40.8071C51.4508 40.8256 51.3653 40.8256 51.2933 40.8302C49.8082 40.9552 48.3231 41.0824 46.838 41.2073C46.55 41.1958 46.487 41.33 46.3475 41.4109C46.2979 41.4387 46.262 41.4757 46.2035 41.4942C46.1405 41.5127 46.0594 41.5104 45.9829 41.515C44.7948 41.6145 43.6068 41.7209 42.4142 41.8135C42.1397 41.8343 42.0856 41.9523 41.9371 42.0332C41.8876 42.0587 41.8382 42.098 41.7797 42.1049C41.0371 42.172 40.2946 42.2345 39.552 42.2946C39.3045 42.3155 39.3045 42.3132 38.868 42.5422C38.8185 42.5676 38.7599 42.5954 38.6969 42.6023C37.5853 42.6995 36.4693 42.792 35.3532 42.8869C35.2092 42.8985 35.1102 42.954 35.0382 43.0326C34.9662 43.1113 34.8627 43.1622 34.7187 43.1738C33.8276 43.2501 32.9365 43.3288 32.0454 43.3982C31.7979 43.4167 31.636 43.4745 31.528 43.5786C31.4469 43.6573 31.3479 43.6966 31.1904 43.7105C30.2994 43.7845 29.4083 43.8655 28.5128 43.9303C28.2517 43.9488 28.1167 44.0274 28.0087 44.1246C27.9232 44.2032 27.8241 44.231 27.6576 44.2449C26.024 44.3791 24.386 44.5132 22.7568 44.6613C22.4823 44.6867 22.3428 44.6058 22.1628 44.5479C21.9063 44.4669 21.6678 44.379 21.6678 44.1986C21.6678 44.1708 21.5913 44.1384 21.5373 44.1153C21.1367 43.9418 21.1367 43.9418 21.0737 43.7567C21.0377 43.6434 20.9972 43.5277 20.9657 43.412C20.9072 43.2223 20.7632 43.1738 20.3491 43.2085C20.2006 43.22 20.0521 43.2362 19.9036 43.2455C19.6831 43.2617 19.5166 43.1853 19.4761 43.0465C19.4536 42.9702 19.4266 42.8938 19.4041 42.8175C19.6291 42.799 19.6246 42.7967 20.0206 42.5168C20.1871 42.3988 20.1872 42.3988 19.8677 42.2808C19.7462 42.2368 19.6291 42.1882 19.4986 42.1466C19.4401 42.1281 19.3636 42.1165 19.3006 42.1211C18.9271 42.1489 18.5581 42.1813 18.1891 42.2137C17.595 42.2646 17.595 42.2646 16.9919 42.0286C16.9424 42.0101 16.8659 41.9754 16.8749 41.9569C16.9244 41.8713 17.0459 41.8343 17.1989 41.825C17.4239 41.8111 17.6444 41.788 17.865 41.7695C18.0135 41.7579 18.162 41.7441 18.3105 41.7325C18.45 41.6446 18.5941 41.559 18.7246 41.4688C18.9316 41.33 18.9315 41.3253 18.648 41.2281C18.468 41.1634 18.2745 41.1055 18.09 41.0454C17.8695 41.0639 17.6444 41.0847 17.4239 41.1009C17.1449 41.1217 17.0324 41.0778 16.9604 40.9274C16.8974 40.7955 16.9739 40.6822 17.1899 40.6544C17.4104 40.6267 17.6175 40.6082 17.73 40.4902C17.838 40.3768 18.027 40.3328 18.261 40.3236C18.4095 40.3167 18.5581 40.3005 18.7066 40.2866C18.9001 40.2681 19.0036 40.1501 18.9631 40.0182C18.9406 39.9326 18.8956 39.8609 18.7201 39.8424C17.9415 39.7614 17.9325 39.7637 17.5454 39.6064C17.5094 39.5926 17.4825 39.5509 17.496 39.5301C17.5185 39.4954 17.568 39.4445 17.622 39.4376C18.1396 39.3867 18.6571 39.3404 19.1746 39.3057C19.3456 39.2941 19.4717 39.2779 19.5302 39.1923C19.6112 39.0743 19.5752 38.9656 19.4176 38.8846C19.3681 38.8592 19.2871 38.8268 19.2331 38.8291C18.639 38.8708 18.0495 38.924 17.4555 38.9656C17.4015 38.9702 17.3025 38.9309 17.28 38.9009C17.235 38.8453 17.3025 38.7713 17.46 38.7458C17.667 38.7111 17.8785 38.7088 18.018 38.5931C18.2115 38.4289 18.45 38.2785 18.666 38.1212C18.702 38.0935 18.7606 38.0402 18.7471 38.0356C18.6346 37.9847 18.5041 37.9454 18.3871 37.8968C18.189 37.8158 18.189 37.7025 18.234 37.5938C18.27 37.5058 18.405 37.4711 18.5715 37.4711C18.6435 37.4711 18.7335 37.4711 18.792 37.4503C18.9451 37.3994 18.9946 37.3346 18.9181 37.2861C18.8731 37.2583 18.7921 37.219 18.7381 37.2236C17.775 37.3 16.8074 37.374 15.8488 37.4688C15.5653 37.4966 15.4349 37.4087 15.2639 37.3462C15.1334 37.2976 15.0118 37.2791 14.8498 37.3138C14.6968 37.3462 14.5483 37.3277 14.4538 37.2514C14.3773 37.1889 14.5123 37.1357 14.8768 37.0756C14.9443 37.064 15.0208 37.057 15.0703 37.0339C15.5923 36.784 15.5923 36.7817 15.9523 36.7493C16.3033 36.7193 16.3034 36.717 16.4879 36.5828C16.5734 36.5203 16.6679 36.4578 16.7489 36.3931C16.7804 36.3676 16.8345 36.3214 16.8165 36.3075C16.7174 36.2358 16.5824 36.2196 16.4249 36.2358C16.0738 36.2751 15.6599 36.2427 15.4754 36.4625C15.4034 36.5458 15.2908 36.5689 15.1288 36.5828C13.4997 36.717 11.8706 36.8604 10.2369 36.99C9.97142 37.0108 9.84999 37.0964 9.74648 37.1912C9.65647 37.2699 9.55744 37.293 9.38643 37.3069C9.21542 37.3208 9.08034 37.3277 8.98134 37.2514C8.92283 37.2051 8.97235 37.1403 9.10736 37.0756C9.30087 36.983 9.26485 36.8673 9.20185 36.7586C9.15685 36.6869 9.01734 36.636 8.86883 36.6406C8.64831 36.6499 8.43686 36.6753 8.25234 36.5828C8.14434 36.5296 8.0093 36.4925 7.88779 36.4463C7.65378 36.3514 7.41975 36.2543 7.09123 36.3167C6.86621 36.2936 6.7087 36.2103 6.52869 36.1455C6.22717 36.0391 6.20017 36.0229 6.41618 35.9096C6.6592 35.7823 6.47015 35.6158 6.60516 35.4908C6.74917 35.3566 6.94725 35.2387 7.12276 35.1138C7.16776 35.0814 7.20828 35.0513 7.25329 35.0189C7.14978 34.9726 7.05529 34.9148 6.93378 34.8824C6.77627 34.8408 6.69526 34.7899 6.70426 34.6464C6.67276 34.6256 6.68617 34.6788 6.72217 34.6927C6.76267 34.7066 6.86176 34.695 6.91126 34.6788C7.03727 34.6349 7.10021 34.577 7.0687 34.5285C7.0507 34.503 6.96526 34.4706 6.91126 34.4706C6.81225 34.4706 6.72676 34.5215 6.69976 34.6464C6.19572 34.7413 5.6736 34.7876 5.15157 34.8246C5.09756 34.8292 5.0301 34.7829 4.96709 34.7598C4.76008 34.6811 4.76005 34.6834 4.15251 34.6603C4.08951 34.658 4.00404 34.6256 3.97254 34.5932C3.84203 34.4521 3.84657 34.2971 3.78356 34.1467C3.90057 34.0496 4.01749 33.9547 4.139 33.8599C4.38201 33.6679 4.6971 33.499 4.88612 33.2885C4.84561 33.1751 4.7916 33.0617 4.98962 32.9692C5.55216 32.8535 5.54769 32.8535 5.7007 32.7425C6.13723 32.4279 6.56923 32.1109 7.02377 31.8009C7.14528 31.7199 7.14529 31.676 6.92928 31.6413C6.86177 31.632 6.78967 31.6297 6.71767 31.6344C6.49265 31.6505 6.26764 31.6922 6.04712 31.6829C5.82661 31.676 5.6646 31.5742 5.48458 31.5117C5.30007 31.447 5.11557 31.3799 4.93106 31.3128C4.71954 31.3197 4.50807 31.3845 4.29655 31.2804C4.13454 31.1994 3.93204 31.1416 3.74753 31.0745C3.88704 30.8987 4.14809 30.7645 4.35061 30.6095C4.53512 30.4684 4.53952 30.4707 5.03455 30.362C5.26857 30.3111 5.34958 30.0496 5.15157 29.9733C4.91305 29.8808 4.66108 29.7952 4.41807 29.7072C4.20655 29.7142 3.99058 29.7767 3.78807 29.6726C3.63056 29.5939 3.45051 29.5407 3.18949 29.5708C2.74846 29.6217 2.29844 29.6471 1.85291 29.6887C1.6999 29.7026 1.53334 29.6934 1.46584 29.6147C1.42083 29.5592 1.55135 29.4829 1.69986 29.4667C1.92488 29.4435 2.12737 29.4158 2.23988 29.3001C2.34788 29.1844 2.54588 29.1497 2.77989 29.1335C2.8429 29.1289 2.91495 29.1011 2.94646 29.0734C3.10847 28.9392 3.28849 28.8235 3.63502 28.8282C3.77903 28.7819 3.85548 28.724 3.81048 28.6685C3.78348 28.6384 3.68902 28.5991 3.63502 28.6038C3.26149 28.6269 2.88798 28.65 2.52345 28.6917C2.35244 28.7102 2.22186 28.7148 2.11385 28.6454C2.03735 28.5991 2.07785 28.5367 2.22186 28.4696C2.34787 28.4117 2.38391 28.3446 2.37491 28.266C2.35241 28.0832 2.21737 28.03 1.78534 28.0416C1.47482 28.0508 1.39831 28.0208 1.3308 27.8634C1.3128 27.8264 1.26788 27.7755 1.29938 27.7501C1.4929 27.5928 1.61891 27.3985 1.98344 27.3244C2.12745 27.2967 2.2804 27.2967 2.3704 27.2365C2.46041 27.1764 2.54145 27.1069 2.63596 27.0491C2.75297 26.9797 2.8339 26.915 2.77989 26.871C2.68989 26.7923 2.54592 26.7854 2.37941 26.8132C2.2354 26.8363 2.0824 26.8386 1.93389 26.8525C1.66837 26.8779 1.4524 26.8178 1.4209 26.716C1.33539 26.4476 1.24536 26.1816 1.16885 25.9132C1.15985 25.8808 1.18229 25.8392 1.2183 25.8114C1.34431 25.7143 1.47937 25.6217 1.60988 25.5269C1.76289 25.4182 2.00594 25.439 2.21296 25.4182C2.50548 25.3881 2.50538 25.3904 2.8969 25.1683C3.04992 25.0804 3.31545 25.1151 3.47296 25.0364C3.52246 25.011 3.59897 24.9693 3.58547 24.9462C3.56746 24.9161 3.47751 24.893 3.41 24.8791C3.347 24.8652 3.27051 24.8583 3.20301 24.8652C2.38395 24.9323 1.56941 25.0041 0.750357 25.0688C0.610847 25.0804 0.457832 25.0295 0.408328 24.9578C0.358825 24.8907 0.372282 24.8097 0.363281 24.7334C0.49379 24.6385 0.642244 24.5506 0.754751 24.4488C0.840257 24.3702 0.939282 24.3355 1.11029 24.3308C1.33531 24.3239 1.55585 24.2961 1.80786 24.2753C2.2759 23.9375 2.7349 23.5836 3.23893 23.2458C3.44145 23.1094 3.39202 22.9705 3.43253 22.8248C3.47303 22.6906 3.77453 22.7114 3.97705 22.6721C4.13906 22.6397 4.19299 22.5657 4.12999 22.5148C4.09398 22.4847 4.01302 22.45 3.95002 22.45C3.80151 22.45 3.653 22.4708 3.50449 22.4824C3.35598 22.494 3.18498 22.487 3.06347 22.5264C2.94646 22.5634 2.86991 22.642 2.79341 22.7091C2.7079 22.7831 2.59547 22.8086 2.42446 22.8132C2.20394 22.8179 1.98344 22.8387 1.76293 22.8549C1.51991 22.7646 1.26784 22.6767 1.03382 22.5819C0.98882 22.5634 0.979771 22.5102 0.984272 22.4755C0.993272 22.3853 0.925785 22.3297 0.777275 22.2858C0.651266 22.2487 0.54775 22.1955 0.430742 22.1493C0.520748 22.0868 0.61979 22.0267 0.691795 21.9596C0.849306 21.8184 1.04734 21.7167 1.38937 21.7213C1.52438 21.6311 1.63235 21.52 1.80786 21.4576C1.97438 21.3974 2.25791 21.4575 2.38392 21.3211C2.44692 21.254 2.54148 21.1776 2.66299 21.1499C2.8565 21.1059 3.10852 21.1291 3.22102 20.9995C3.28853 20.9255 3.3875 20.8584 3.51801 20.8399C3.66652 20.819 3.81949 20.8144 3.92749 20.7705C3.986 20.7473 4.04901 20.7103 4.04901 20.6779C4.04901 20.6571 3.95908 20.6247 3.89607 20.6108C3.83757 20.5946 3.76097 20.5831 3.69347 20.5877C3.46845 20.6016 3.24794 20.627 3.02293 20.6409C2.95992 20.6455 2.88794 20.6294 2.82043 20.6155C2.62242 20.5785 2.6359 20.5322 2.79341 20.4489C2.95092 20.3679 3.06349 20.2638 3.194 20.169C3.33801 20.1528 3.51799 20.1597 3.617 20.1158C3.78351 20.044 3.90049 19.9399 4.0355 19.8497C4.18401 19.8358 4.33701 19.8312 4.47652 19.8058C4.53502 19.7965 4.56205 19.7456 4.61155 19.7155C4.70156 19.6577 4.77812 19.5744 4.89963 19.5467C5.09765 19.505 5.34066 19.5212 5.45767 19.394C5.52517 19.3199 5.62864 19.2413 5.75465 19.2367C6.10567 19.2274 6.25419 19.1002 6.4342 18.9799C6.56921 18.8896 6.85724 18.9359 7.00575 18.8457C7.10475 18.7879 7.1768 18.7161 7.27581 18.6606C7.31631 18.6375 7.40179 18.6259 7.46929 18.619C7.83832 18.5843 8.21183 18.5588 8.58086 18.5218C8.63936 18.5149 8.69341 18.4802 8.73841 18.4524C8.83292 18.3923 8.89136 18.309 9.00836 18.2696C9.12537 18.2303 9.29186 18.2303 9.43587 18.2188C9.89941 18.1841 9.93544 18.1933 10.147 17.9967C10.318 17.837 10.7366 17.9504 10.8761 17.7746C10.9571 17.6728 11.1055 17.5895 11.371 17.5779C11.7446 17.5617 12.1136 17.5178 12.4871 17.4877C12.8201 17.4599 12.8156 17.4599 13.1757 17.2448C13.3377 17.1476 13.5762 17.1615 13.7878 17.143C14.0128 17.1245 14.2198 17.0968 14.3278 16.9811C14.4358 16.8677 14.6338 16.8307 14.8633 16.8145C15.0748 16.7983 15.3134 16.8099 15.4799 16.7173C15.8849 16.4953 15.8804 16.4929 16.1639 16.4698C16.6095 16.4328 17.055 16.3958 17.5005 16.3564C17.7975 16.331 18.108 16.3264 18.3871 16.2755C18.5896 16.2385 18.6796 16.1089 18.8101 16.0187C19.1791 15.984 19.5481 15.9493 19.9171 15.9169C20.4347 15.8706 20.9567 15.829 21.4787 15.785C21.7037 15.6971 21.7353 15.5028 22.1133 15.4935C22.3383 15.4889 22.5589 15.4588 22.7839 15.4403C23.1574 15.4079 23.5264 15.3663 23.8999 15.3501C24.1835 15.3385 24.2329 15.2136 24.3814 15.1349C24.4309 15.1072 24.4759 15.0679 24.5344 15.0609C25.1195 14.9961 25.7225 14.9823 26.294 14.8874C26.3525 14.8782 26.4065 14.8296 26.42 14.7949C26.4291 14.7764 26.3525 14.7417 26.303 14.7255C26.2445 14.707 26.1681 14.6885 26.1051 14.6931C24.2464 14.8481 22.3878 15.0054 20.5292 15.1604C20.2682 15.1835 20.2682 15.1812 19.6337 15.4357C19.5796 15.4565 19.5166 15.4796 19.4491 15.4866C19.152 15.5143 18.8505 15.5306 18.558 15.5653C18.3195 15.593 18.1216 15.5652 17.9505 15.482C17.829 15.4218 17.703 15.4033 17.55 15.4079C17.3789 15.4149 17.2665 15.4403 17.1675 15.5028C17.037 15.5884 16.9695 15.6994 16.6949 15.7226C15.4303 15.822 14.1657 15.9331 12.9056 16.0395C12.7301 16.0071 12.6446 15.9585 12.6896 15.9007C12.7166 15.866 12.7706 15.8197 12.8246 15.8151C13.3422 15.7665 13.8642 15.7249 14.3817 15.6786C14.4537 15.6717 14.5527 15.6763 14.5932 15.6531C14.7912 15.549 14.8633 15.3802 15.2368 15.3686C15.4529 15.3617 15.6733 15.327 15.8804 15.2946C15.9389 15.2853 15.9929 15.2367 16.0064 15.202C16.0109 15.1835 15.9389 15.1488 15.8849 15.1326C15.6868 15.0655 15.4574 15.1465 15.2594 15.1003C15.1919 15.0841 15.0973 15.0609 15.0838 15.0332C15.0748 15.0077 15.1513 14.9661 15.2053 14.9406C15.2548 14.9175 15.3223 14.8967 15.3898 14.8897C15.9838 14.8365 16.578 14.781 17.172 14.7393C17.415 14.7232 17.586 14.6653 17.694 14.5589C17.775 14.4802 17.874 14.4386 18.027 14.427C19.0666 14.3414 20.1061 14.2466 21.1502 14.1679C21.4112 14.1494 21.5463 14.0731 21.6543 13.9736C21.7398 13.895 21.8388 13.8672 22.0053 13.8533C23.4949 13.733 24.9755 13.5988 26.4651 13.4832C26.7396 13.4623 26.8207 13.3629 26.9602 13.2773C27.0097 13.2472 27.0411 13.2102 27.1041 13.1917C27.1671 13.1732 27.2481 13.1755 27.3246 13.1708C28.5127 13.0714 29.7009 12.965 30.8934 12.8724C31.1725 12.8516 31.2264 12.7359 31.3704 12.6549C31.4199 12.6295 31.4649 12.5879 31.5234 12.5809C32.4145 12.5023 33.3055 12.4282 34.1966 12.3519C34.7906 12.301 35.3847 12.2501 35.9787 12.2015C36.2712 12.1784 36.2712 12.1761 36.6673 11.9563C36.7123 11.9308 36.7753 11.9008 36.8338 11.8938C38.544 11.7458 40.2495 11.6047 41.9596 11.4589C42.1037 11.4474 42.2071 11.3941 42.2791 11.3155C42.3512 11.2368 42.4548 11.1836 42.5943 11.172C43.9309 11.0564 45.2674 10.943 46.6085 10.8343C46.8515 10.8158 47.0225 10.7602 47.1305 10.6561C47.2115 10.5775 47.3105 10.5358 47.4635 10.5243C48.8001 10.4132 50.1368 10.2952 51.4779 10.1888C51.7344 10.168 51.8603 10.0893 51.9864 9.99681C52.0314 9.96442 52.0674 9.91121 52.1214 9.90658C52.7874 9.84181 53.449 9.77472 54.1195 9.73076C54.3985 9.71225 54.4931 9.61508 54.6056 9.52255C54.6956 9.44852 54.7991 9.42308 54.9701 9.41382C55.3436 9.393 55.7127 9.35369 56.0772 9.31436C56.1312 9.30742 56.1987 9.25652 56.2032 9.22413C56.2122 9.16398 56.1087 9.12234 55.9376 9.10151C54.1555 9.25189 52.3689 9.40225 50.5868 9.55262C50.2943 9.57807 50.2943 9.57808 49.8983 9.79786C49.8533 9.82331 49.7902 9.85339 49.7272 9.86033C48.0171 10.0061 46.3115 10.1495 44.6014 10.2953C44.4574 10.3068 44.3539 10.36 44.2819 10.4387C44.2099 10.5173 44.1063 10.5706 43.9668 10.5821C42.3332 10.7209 40.6996 10.8621 39.0615 10.9939C38.8185 11.0124 38.6475 11.0656 38.5395 11.172C38.4585 11.2507 38.3595 11.2923 38.2065 11.3039C36.6448 11.4335 35.0877 11.5699 33.5216 11.6949C33.364 11.7064 33.2471 11.6393 33.2561 11.5769C33.2606 11.5445 33.328 11.4913 33.382 11.4867C34.1966 11.4103 35.0067 11.3317 35.8258 11.2738C36.1003 11.2553 36.1812 11.1535 36.3207 11.0679C36.3657 11.0379 36.4018 10.9985 36.4603 10.9823C36.5233 10.9638 36.6043 10.9662 36.6808 10.9615C38.6114 10.7973 40.5421 10.6307 42.4772 10.4757C42.7563 10.4526 42.8102 10.3392 42.9542 10.2582C43.0037 10.2305 43.0487 10.1888 43.1072 10.1842C43.7013 10.1287 44.2953 10.0801 44.8894 10.0315C45.9289 9.94361 46.9685 9.8557 48.0125 9.76779C48.3141 9.74234 48.3141 9.74233 48.7011 9.52486C48.7461 9.49942 48.8092 9.46705 48.8677 9.46242C51.6174 9.22877 54.3671 8.99511 57.1168 8.76376C57.2608 8.7522 57.3643 8.69899 57.4363 8.62033C57.5083 8.54399 57.6118 8.48846 57.7513 8.47458C61.4685 8.15996 65.1813 7.84532 68.8986 7.53532C69.1416 7.5145 69.3126 7.46591 69.4206 7.35718C69.4971 7.27852 69.6006 7.23689 69.7536 7.22301C73.8399 6.87831 77.9261 6.53361 82.0169 6.1866C84.7666 5.95525 87.5163 5.71928 90.266 5.49257C90.5181 5.47175 90.653 5.40002 90.779 5.30516C90.8195 5.27278 90.8601 5.21956 90.9141 5.21494C91.5036 5.1571 92.0931 5.1039 92.6827 5.05069C92.8672 5.11316 93.0517 5.17332 93.2362 5.23578C93.3757 5.14787 93.5108 5.05764 93.6503 4.96973C94.5414 4.90264 95.4189 4.79853 96.3189 4.76614C96.3774 4.76383 96.4404 4.80779 96.5034 4.83093C96.9219 4.97667 97.1605 4.9651 97.426 4.77078C97.5205 4.70137 97.6015 4.63891 97.7455 4.62734C98.191 4.5857 98.6412 4.55794 99.0822 4.50936C99.3207 4.48391 99.5187 4.50704 99.6897 4.59032C99.8112 4.65047 99.9372 4.67593 100.086 4.66205C100.905 4.59265 101.719 4.52555 102.538 4.45152C102.597 4.44689 102.651 4.40755 102.696 4.37979C102.79 4.31964 102.871 4.25488 102.961 4.19242C103.083 4.23175 103.218 4.26183 103.317 4.31272C103.443 4.37287 103.56 4.37286 103.731 4.35666C106.998 4.07674 110.27 3.80376 113.537 3.52152C113.816 3.49838 113.938 3.59556 114.127 3.64645C114.19 3.66496 114.253 3.68808 114.32 3.69271C114.392 3.69734 114.469 3.68347 114.541 3.67653C116.993 3.46832 119.446 3.26241 121.899 3.0542C122.223 3.02644 122.223 3.02644 122.704 3.16987C122.763 3.18838 122.839 3.2092 122.902 3.20226C124.018 3.11204 125.134 3.01488 126.246 2.92235C126.39 2.91078 126.512 2.94779 126.642 3.00099C126.899 3.1051 126.917 3.10511 127.106 2.95242C127.196 2.88071 127.29 2.83673 127.439 2.81591C127.601 2.79277 127.731 2.79974 127.857 2.84138C128.037 2.89922 128.168 2.99637 128.442 2.97092C129.63 2.86219 130.823 2.77197 132.006 2.66093C132.276 2.63548 132.421 2.71413 132.601 2.77197C132.664 2.79279 132.722 2.82518 132.79 2.83212C132.857 2.83906 132.938 2.82285 133.01 2.81591C134.495 2.69098 135.985 2.56839 137.465 2.43422C137.744 2.40877 137.866 2.50823 138.055 2.55912C138.118 2.57763 138.19 2.61003 138.248 2.60541C139.139 2.53369 140.035 2.45733 140.926 2.38098C141.246 2.35322 141.246 2.35553 141.732 2.49665C141.79 2.51516 141.867 2.53367 141.93 2.52905C142.969 2.44345 144.013 2.35554 145.053 2.26763C145.372 2.23987 145.372 2.23987 146.295 2.36017C146.362 2.36942 146.434 2.38332 146.502 2.37869C147.69 2.27922 148.883 2.18204 150.071 2.07562C150.309 2.0548 150.507 2.0733 150.678 2.15659C150.8 2.21674 150.926 2.2422 151.074 2.22832C152.411 2.11496 153.752 2.00623 155.084 1.88593C155.341 1.8628 155.507 1.91367 155.687 1.98076C155.746 2.0039 155.804 2.03629 155.872 2.04555C155.939 2.0548 156.016 2.04554 156.088 2.0386C157.424 1.92524 158.765 1.81883 160.097 1.69622C160.367 1.67077 160.511 1.74942 160.691 1.80726C160.754 1.82808 160.822 1.86972 160.876 1.86741C161.398 1.82808 161.92 1.79339 162.438 1.73555C162.717 1.70317 162.838 1.80956 163.027 1.86046C163.09 1.87665 163.162 1.91137 163.221 1.90675C164.337 1.81652 165.453 1.72168 166.564 1.62451C166.722 1.61063 166.839 1.63143 166.965 1.69158C167.131 1.77255 167.325 1.80494 167.568 1.7795C168.085 1.72629 168.607 1.68928 169.13 1.64533C169.436 1.61988 169.436 1.61989 170.372 1.74019C170.439 1.74944 170.511 1.76331 170.579 1.75868C171.47 1.68465 172.365 1.61294 173.252 1.53197C173.49 1.50884 173.688 1.52965 173.859 1.61294C173.981 1.67308 174.102 1.69855 174.255 1.68467C175.074 1.61526 175.889 1.54585 176.708 1.47645C177.005 1.451 177.302 1.40704 177.599 1.40704C177.815 1.40935 177.973 1.52039 178.166 1.57591C178.22 1.59211 178.31 1.57362 178.382 1.56899C179.422 1.48108 180.466 1.4001 181.501 1.30063C181.771 1.27518 181.915 1.35383 182.095 1.41167C182.158 1.43249 182.225 1.47413 182.279 1.47182C182.653 1.44637 183.022 1.41167 183.395 1.38159C183.841 1.34458 184.291 1.31682 184.732 1.26592C185.092 1.22428 185.227 1.42554 185.515 1.43248C185.736 1.43942 185.961 1.4001 186.181 1.38159C186.627 1.34458 187.072 1.30294 187.518 1.27055C187.675 1.25898 187.797 1.22195 187.846 1.13867C187.855 1.12248 187.779 1.08779 187.729 1.06697C187.131 0.830998 187.131 0.830987 186.528 0.881882C186.154 0.914271 185.785 0.946664 185.412 0.974425C185.349 0.979052 185.277 0.960546 185.214 0.946665C185.034 0.907337 185.052 0.861073 185.205 0.777789C185.358 0.694506 185.475 0.592724 185.605 0.497873C185.79 0.558022 185.97 0.61815 186.154 0.678299C186.303 0.666732 186.451 0.652872 186.6 0.641305C187.342 0.581155 188.085 0.518688 188.827 0.463166C188.881 0.458539 188.949 0.504814 189.012 0.527949C189.192 0.595038 189.354 0.652858 189.615 0.627411C190.281 0.560321 190.952 0.511739 191.618 0.453903C191.91 0.428455 191.91 0.428458 192.423 0.57189C192.482 0.588084 192.558 0.606593 192.621 0.601966C193.292 0.548757 193.958 0.490928 194.628 0.435406C194.772 0.423839 194.912 0.453912 195.015 0.521002C195.056 0.548763 195.047 0.595022 195.218 0.974425C195.749 1.28211 196.113 1.24974 196.482 1.22198C196.64 1.21041 196.779 1.19883 196.883 1.15256C196.937 1.12712 197.004 1.0901 197.004 1.06002C197.004 1.03689 196.906 0.999865 196.842 0.995238C196.397 0.94897 195.974 1.04615 195.537 1.06697C195.335 1.07622 195.159 0.995251 195.123 0.863385C195.114 0.82637 195.101 0.787044 195.087 0.750029C195.074 0.713014 195.065 0.673688 195.051 0.636673C194.876 0.625106 194.772 0.666741 194.696 0.745398C194.633 0.810174 194.543 0.884204 194.421 0.918905C194.3 0.95592 194.133 0.948992 193.985 0.96056C193.841 0.972127 193.683 1.0022 193.548 0.986004C193.413 0.967496 193.305 0.900396 193.179 0.858754C193.121 0.837933 193.049 0.80787 192.99 0.812496C192.473 0.851825 191.96 0.891138 191.447 0.942034C191.177 0.969795 191.042 0.872646 190.871 0.812496C190.736 0.766228 190.6 0.77778 190.578 0.884198C190.519 1.13868 190.727 1.24509 191.186 1.19651C191.564 1.15486 191.906 1.14795 192.203 1.30526C192.243 1.32608 192.338 1.33533 192.396 1.3307C192.765 1.30294 193.13 1.26824 193.499 1.24048C193.566 1.23585 193.638 1.24509 193.701 1.25434C194.619 1.37927 194.619 1.38159 194.93 1.35383C195.078 1.33995 195.222 1.32838 195.209 0.976741C195.492 0.599652 195.942 0.574208 196.379 0.518686C196.662 0.483985 196.784 0.58578 196.968 0.638989C197.031 0.657496 197.099 0.694505 197.157 0.689878C198.125 0.613534 199.088 0.532553 200.051 0.446956C200.213 0.433075 200.33 0.446958 200.456 0.507108C200.618 0.583451 200.798 0.632043 201.055 0.604282C201.568 0.54876 202.09 0.514066 202.612 0.467797C202.877 0.444663 202.877 0.444639 203.413 0.588072C203.471 0.604266 203.548 0.622775 203.611 0.618148C204.133 0.578819 204.651 0.530252 205.168 0.48861C205.312 0.477043 205.443 0.509428 205.555 0.57189C205.668 0.634353 205.803 0.666738 205.942 0.655171C206.464 0.613529 206.982 0.567275 207.499 0.525633C207.562 0.521006 207.639 0.537199 207.697 0.553393C208.246 0.696826 208.246 0.696802 208.498 0.673668C208.867 0.638966 209.245 0.62279 209.61 0.576522C209.965 0.530253 210.15 0.664421 210.393 0.738451C211.059 0.685242 211.729 0.641298 212.391 0.576522C212.661 0.548761 212.805 0.625097 212.985 0.685246C213.048 0.706067 213.111 0.750027 213.17 0.747714C213.395 0.73846 213.615 0.713017 213.836 0.694509C214.056 0.676002 214.281 0.657496 214.502 0.638989C214.754 0.706079 214.92 0.86339 215.28 0.810181C215.496 0.777793 215.726 0.770852 215.946 0.752345C216.167 0.733837 216.392 0.715332 216.612 0.696825C216.761 0.685258 216.914 0.678307 217.058 0.657486C217.323 0.622785 217.454 0.736157 217.643 0.787052C217.706 0.803246 217.778 0.830989 217.836 0.826362C218.282 0.793974 218.732 0.766215 219.168 0.713006C219.506 0.671365 219.736 0.740777 219.974 0.837941C220.024 0.858762 220.109 0.870328 220.172 0.865701C220.694 0.826373 221.212 0.777777 221.729 0.736135C221.869 0.724568 222.004 0.761582 222.116 0.821731C222.233 0.884194 222.364 0.914291 222.508 0.902724C223.025 0.861082 223.547 0.8148 224.065 0.773158C224.128 0.768531 224.204 0.787042 224.263 0.805549C224.767 0.948982 224.767 0.951298 225.064 0.923537C225.136 0.916596 225.212 0.911951 225.284 0.905011C225.653 0.872623 226.036 0.861072 226.396 0.805549C226.81 0.743087 227.112 0.821747 227.404 0.953612C227.773 0.925851 228.151 0.909654 228.511 0.863385C228.781 0.828684 228.925 0.91659 229.105 0.974425C229.168 0.995246 229.236 1.03689 229.29 1.03226C229.812 0.992933 230.334 0.958244 230.847 0.900408C231.126 0.86802 231.247 0.972105 231.436 1.02531C231.499 1.04382 231.567 1.07623 231.625 1.0716C231.922 1.05309 232.219 1.02532 232.516 0.99987C232.863 0.969795 232.863 0.972106 233.322 1.11323C233.538 1.18032 233.754 1.1271 233.966 1.11091C234.191 1.0924 234.402 1.07853 234.582 1.17338C234.695 1.23353 234.83 1.27054 234.969 1.26129C235.266 1.24047 235.568 1.21966 235.86 1.18496C236.094 1.15719 236.297 1.17569 236.468 1.26129C236.589 1.32144 236.715 1.35153 236.864 1.33765C237.53 1.28213 238.2 1.22427 238.866 1.17106C238.925 1.16643 239.006 1.18726 239.06 1.20808C239.186 1.24973 239.307 1.29598 239.429 1.34225C239.721 1.32143 240.023 1.3122 240.311 1.27981C240.617 1.24743 240.896 1.23586 241.135 1.36309C241.184 1.39086 241.256 1.43016 241.314 1.42785C241.54 1.4186 241.76 1.39547 241.981 1.37696C242.201 1.35845 242.426 1.33995 242.647 1.32144C242.903 1.37928 243.065 1.54584 243.425 1.49263C243.641 1.46024 243.871 1.4533 244.091 1.4348C244.312 1.41629 244.537 1.39547 244.757 1.37928C244.829 1.37465 244.91 1.36308 244.973 1.37233C245.041 1.38158 245.099 1.41398 245.158 1.43711C245.338 1.5042 245.504 1.5713 245.761 1.53197C245.977 1.49958 246.206 1.49264 246.427 1.47182C246.728 1.44637 246.728 1.44638 247.228 1.59212C247.43 1.65227 247.66 1.57362 247.853 1.62451C247.984 1.65922 248.097 1.71704 248.223 1.75637C248.277 1.77256 248.362 1.77949 248.425 1.77486C248.722 1.75404 249.024 1.73323 249.316 1.69853C249.555 1.67077 249.753 1.69853 249.919 1.78181C250.041 1.84196 250.162 1.86742 250.315 1.85354C251.058 1.78877 251.8 1.73322 252.538 1.66151C252.79 1.63606 252.993 1.6754 253.132 1.75868C253.371 1.90212 253.708 1.73324 253.956 1.84891C254.109 1.92063 254.262 2.00391 254.541 1.96921C255.054 1.90906 255.576 1.87666 256.094 1.83502C256.278 1.89748 256.463 1.95995 256.652 2.02242C256.949 1.99697 257.246 1.97151 257.543 1.94837C257.763 1.92986 257.988 1.90905 258.209 1.89285C258.281 1.88822 258.357 1.87897 258.425 1.89054C258.492 1.9021 258.546 1.93218 258.609 1.95532C258.92 2.06868 258.92 2.071 259.433 2.02473C259.653 2.00391 259.865 1.99003 260.049 2.08257C260.22 2.16817 260.423 2.18435 260.657 2.1589C261.098 2.11263 261.543 2.07793 261.994 2.04555C262.133 2.03398 262.263 2.07331 262.38 2.13346C262.556 2.22831 262.772 2.21906 262.993 2.19361C263.285 2.16122 263.573 2.12884 263.821 2.25839C263.87 2.28615 263.947 2.32546 264.001 2.32315C264.37 2.30464 264.743 2.29077 265.103 2.24681C265.463 2.20286 265.639 2.34629 265.886 2.41569C266.255 2.38561 266.629 2.35554 266.998 2.32546C267.07 2.31852 267.155 2.29771 267.218 2.30928C267.484 2.35786 267.637 2.53137 268.001 2.47816C268.213 2.44808 268.442 2.43884 268.663 2.4319C268.721 2.42959 268.798 2.46889 268.839 2.49897C268.861 2.51516 268.838 2.55912 268.811 2.58225C268.73 2.64703 268.631 2.70719 268.559 2.77428C268.55 2.78354 268.636 2.82516 268.685 2.84367C268.807 2.88531 268.946 2.87839 269.108 2.85988C269.248 2.84368 269.392 2.87607 269.491 2.94547C269.532 2.97324 269.518 3.0195 269.432 3.17219C269.432 3.28554 269.527 3.23464 269.558 3.16061C269.608 3.05419 269.513 3.01949 269.333 3.07733C269.207 3.11897 269.145 3.17912 269.176 3.22771C269.194 3.25315 269.279 3.28554 269.432 3.17219C269.828 3.03338 270.126 3.00795 270.423 2.9825C270.499 2.97556 270.589 2.95241 270.643 2.96629C270.837 3.02181 271.017 3.08891 271.206 3.15137C271.422 3.13749 271.624 3.10278 271.836 3.193C272.133 3.32024 272.146 3.30867 272.434 3.28323C272.583 3.26935 272.731 3.2578 272.88 3.24623C273.028 3.23466 273.145 3.26936 273.276 3.32257C273.541 3.4313 273.564 3.43129 273.739 3.28323C273.843 3.193 273.915 3.16294 274.045 3.20458C274.477 3.3457 274.482 3.35494 274.851 3.3133C275.157 3.2786 275.445 3.26935 275.67 3.40121C275.823 3.49375 275.872 3.47293 275.994 3.37577C276.318 3.11898 276.466 3.1236 277.074 3.30867C277.357 3.39658 277.65 3.30174 277.938 3.29017C278.181 3.28092 278.352 3.33643 278.37 3.48218C278.384 3.5724 278.424 3.63719 278.586 3.66726C278.649 3.67883 278.726 3.69502 278.789 3.69039C279.162 3.66263 279.531 3.63024 279.905 3.59785C280.094 3.58166 280.197 3.47294 280.161 3.32951C280.121 3.17683 280.193 3.12128 280.463 3.07733C280.625 3.05188 280.755 3.05653 280.886 3.09817C281.03 3.14444 280.989 3.18608 280.863 3.26936C280.562 3.47294 280.598 3.59785 280.985 3.73897C281.12 3.78755 281.228 3.83152 281.259 3.90324C281.277 3.94025 281.259 3.98883 281.3 4.01659C281.52 4.17159 281.826 4.27108 282.168 4.34511C282.497 4.28265 282.722 4.38674 282.974 4.47002C283.172 4.53479 283.406 4.47929 283.617 4.45615C283.856 4.43071 284.054 4.4492 284.225 4.5348C284.347 4.59495 284.473 4.6227 284.621 4.61113C284.918 4.58569 285.22 4.5695 285.512 4.53249C285.764 4.5001 285.953 4.54637 286.111 4.62503C286.309 4.72451 286.529 4.65741 286.736 4.67129C287.015 4.68748 287.155 4.89337 287.519 4.83785C287.735 4.80546 287.96 4.7939 288.185 4.78464C288.244 4.78233 288.316 4.82166 288.365 4.84942C288.604 4.97666 288.883 4.96972 289.189 4.93271C289.4 4.90726 289.607 4.88413 289.814 4.97204C290.156 5.1201 290.535 5.24966 290.895 5.38616C290.944 5.49258 290.908 5.61748 291.164 5.67994C291.299 5.71233 291.426 5.76093 291.529 5.81414C291.655 5.8766 291.772 5.8928 291.934 5.8766C292.227 5.84422 292.533 5.83725 292.821 5.79561C293.086 5.7586 293.253 5.83496 293.415 5.90668C293.545 5.96452 293.667 5.99226 293.824 5.95062C293.986 5.91129 294.103 5.93673 294.234 5.99919C294.418 6.08479 294.432 6.07555 295.044 6.101C295.107 6.10331 295.183 6.138 295.219 6.16807C295.237 6.18426 295.197 6.23056 295.165 6.25369C295.125 6.28146 295.062 6.31382 295.003 6.32076C294.337 6.38091 293.667 6.43412 293.001 6.49427C292.933 6.50121 292.861 6.51742 292.812 6.54056C292.758 6.56601 292.69 6.60068 292.69 6.63307C292.69 6.65621 292.78 6.68398 292.843 6.70017C293.041 6.75338 293.275 6.67241 293.469 6.73256C293.599 6.77189 293.707 6.8274 293.838 6.86442C293.892 6.88061 293.977 6.87831 294.045 6.87368C294.27 6.85748 294.49 6.83435 294.715 6.82047C294.778 6.81816 294.85 6.84131 294.909 6.85981C295.341 6.99862 295.341 6.99861 295.714 6.96854C295.863 6.95697 296.02 6.92227 296.16 6.93615C296.295 6.95003 296.412 7.01249 296.533 7.05182C296.785 7.1351 297.024 7.21607 297.042 7.39652C297.051 7.46592 297.199 7.52606 297.348 7.53069C297.492 7.53531 297.645 7.50989 297.793 7.49601C298.144 7.46825 298.144 7.46824 298.599 7.60936C298.725 7.64869 298.86 7.65331 299.022 7.63018C299.085 7.62092 299.162 7.63019 299.229 7.64175C299.45 7.67646 299.45 7.7204 299.306 7.80368C299.103 7.92629 299.121 7.93787 299.688 8.04197C299.904 8.0813 300.071 8.15534 300.251 8.22011C300.543 8.32422 300.539 8.3242 300.345 8.46069C300.3 8.49076 300.26 8.52316 300.215 8.55555C300.084 8.64577 299.981 8.74293 299.711 8.75218C299.414 8.76144 299.117 8.79847 298.82 8.82391C298.531 8.84936 298.455 8.90486 298.482 9.06218C298.513 9.25188 298.572 9.27271 299.09 9.27039C299.238 9.27039 299.369 9.28889 299.481 9.35136C299.427 9.42539 299.328 9.48322 299.184 9.4971C298.815 9.53181 298.442 9.56189 298.073 9.59196C297.775 9.61741 297.478 9.64285 297.181 9.66829C296.997 9.68449 296.88 9.8048 296.929 9.93898C296.956 10.0153 296.979 10.0917 297.001 10.168C297.051 10.3207 297.145 10.36 297.447 10.3531C297.523 10.3508 297.595 10.3323 297.667 10.3369C297.96 10.3531 298.099 10.5451 298.45 10.5058C298.743 10.4734 299.049 10.4664 299.337 10.4248C299.603 10.3878 299.751 10.4711 299.936 10.5335C299.999 10.5544 300.066 10.5983 300.12 10.596C300.494 10.5705 300.867 10.5451 301.232 10.5012C301.403 10.4826 301.506 10.4965 301.641 10.552C301.965 10.6862 301.974 10.6793 302.456 10.6376C302.807 10.6052 302.811 10.6099 303.261 10.751C303.387 10.7903 303.522 10.7903 303.684 10.7718C303.896 10.7487 304.116 10.7117 304.337 10.7464C304.404 10.7556 304.49 10.7834 304.512 10.8135C304.526 10.8343 304.463 10.8852 304.409 10.9014C304.013 11.0217 303.549 11.0009 303.117 11.0494C302.982 11.0633 302.847 11.0194 302.735 10.9569C302.618 10.8944 302.492 10.869 302.339 10.8806C302.042 10.906 301.74 10.9222 301.448 10.9592C301.196 10.9916 301.02 10.9384 300.845 10.8667C300.786 10.8435 300.719 10.7996 300.66 10.8019C299.994 10.8482 299.324 10.8944 298.662 10.9592C298.397 10.987 298.243 10.9129 298.064 10.8505C298 10.8297 297.938 10.7857 297.879 10.788C297.654 10.7973 297.434 10.8227 297.208 10.8412C296.389 10.9106 295.575 10.98 294.756 11.0448C294.702 11.0494 294.634 11.0008 294.571 10.98C294.45 10.9384 294.324 10.899 294.198 10.8597C293.973 10.8782 293.752 10.9014 293.527 10.9152C293.365 10.9245 293.221 10.9569 293.199 11.0448C293.185 11.1026 293.334 11.1558 293.491 11.1512C293.644 11.1466 293.797 11.1188 293.923 11.1489C294.549 11.297 294.549 11.2993 294.94 11.2692C295.282 11.2414 295.246 11.2183 295.548 11.3455C295.678 11.4011 295.795 11.4335 295.944 11.4196C296.313 11.3872 296.686 11.3548 297.06 11.327C297.118 11.3224 297.195 11.3456 297.253 11.3641C297.694 11.5029 297.694 11.5075 298.059 11.4728C298.536 11.4311 298.554 11.4196 298.874 11.5607C299.094 11.6579 299.297 11.5908 299.508 11.5861C299.751 11.6764 300.017 11.7573 300.237 11.8591C300.498 11.9794 300.773 11.9586 301.07 11.9239C301.29 11.8984 301.506 11.8892 301.686 11.984C301.857 12.072 302.064 12.0812 302.298 12.0581C302.51 12.0373 302.726 11.9933 302.946 12.0442C303.005 12.0581 303.095 12.0928 303.09 12.1136C303.086 12.146 303.027 12.1923 302.969 12.2062C302.555 12.301 302.1 12.2987 301.664 12.3426C301.605 12.3496 301.529 12.3241 301.47 12.3056C301.344 12.264 301.223 12.2154 301.101 12.1714C300.881 12.1853 300.656 12.1899 300.44 12.2177C300.273 12.2385 300.147 12.2362 300.026 12.1807C299.913 12.1298 299.792 12.0673 299.657 12.0511C299.522 12.0349 299.364 12.0697 299.216 12.0835C299.067 12.0974 298.896 12.0905 298.779 12.1275C298.662 12.1645 298.59 12.2455 298.514 12.3102C298.428 12.382 298.311 12.4051 298.14 12.4121C297.982 12.419 297.857 12.4097 297.74 12.345C297.69 12.3172 297.622 12.2964 297.555 12.2779C297.492 12.2617 297.42 12.2362 297.361 12.2408C296.691 12.294 296.025 12.3519 295.354 12.4074C295.021 12.4352 295.026 12.4352 294.333 12.2987C294.27 12.2871 294.193 12.2709 294.13 12.2755C293.757 12.3033 293.388 12.3357 293.014 12.3681C292.636 12.4005 292.641 12.3958 291.997 12.2501C291.88 12.2223 291.709 12.2594 291.57 12.2547C291.277 12.2432 291.133 12.0488 290.791 12.0858C290.499 12.1182 290.192 12.1252 289.9 12.1668C289.634 12.2038 289.481 12.1229 289.301 12.0604C289.238 12.0396 289.171 11.9933 289.117 11.9979C288.446 12.0488 287.78 12.1067 286.889 12.1136C286.669 12.1136 286.768 12.1622 286.912 12.1784C287.119 12.2038 287.186 12.1553 287.074 12.0627C286.993 11.9979 286.876 11.9655 286.781 11.9817C286.732 11.991 286.669 12.035 286.889 12.1136C287.123 12.2015 287.11 12.2501 287.15 12.2779C287.249 12.3449 287.389 12.3727 287.533 12.3634C287.758 12.3473 287.978 12.3241 288.203 12.3102C288.266 12.3056 288.343 12.3218 288.401 12.3403C288.896 12.4838 288.901 12.493 289.427 12.4375C289.594 12.4213 289.715 12.4213 289.846 12.4653C290.026 12.5254 290.156 12.6272 290.431 12.5948C290.796 12.5508 291.169 12.5254 291.543 12.5C291.601 12.4953 291.664 12.537 291.732 12.5555C291.916 12.611 292.051 12.7151 292.326 12.6712C292.537 12.6365 292.767 12.6272 292.992 12.6202C293.05 12.6179 293.14 12.6549 293.167 12.685C293.221 12.7382 293.154 12.8007 293.001 12.8447C292.938 12.8632 292.852 12.8585 292.78 12.8655C292.483 12.8909 292.186 12.9187 291.889 12.9395C291.732 12.9511 291.583 12.9858 291.565 13.0714C291.552 13.1292 291.714 13.1801 291.867 13.1755C292.092 13.1685 292.317 13.15 292.533 13.1199C292.915 13.0691 293.248 13.0829 293.559 13.2287C293.779 13.3305 293.766 13.2935 294 13.5942C294.058 13.6706 294.234 13.6775 294.387 13.6729C294.756 13.6613 294.927 13.696 294.895 13.7677C294.855 13.8556 294.724 13.8834 294.558 13.8949C294.261 13.9134 293.964 13.9435 293.667 13.969C293.595 13.9759 293.514 13.9898 293.446 13.9852C293.379 13.9805 293.316 13.9528 293.257 13.932C293.131 13.888 293.023 13.8209 292.888 13.8047C292.753 13.7885 292.596 13.8232 292.447 13.8371C292.299 13.8487 292.141 13.8834 292.006 13.8672C291.871 13.851 291.759 13.7816 291.637 13.74C291.579 13.7191 291.507 13.6867 291.448 13.689C291.151 13.7075 290.854 13.7376 290.557 13.7608C290.192 13.7908 290.192 13.7908 289.751 13.6474C289.625 13.6058 289.495 13.6081 289.328 13.6266C288.968 13.6636 288.964 13.6567 288.307 13.5225C288.244 13.5086 288.167 13.4924 288.104 13.4994C287.434 13.5526 286.768 13.6104 286.102 13.6659C285.53 13.7145 285.53 13.7145 285.215 13.9459C284.981 14.1171 284.977 14.117 285.206 14.1957C285.391 14.2605 285.557 14.3553 285.76 14.39C285.949 14.4224 286.183 14.3183 286.39 14.4247C286.493 14.4779 286.628 14.5358 286.759 14.545C286.966 14.5566 287.186 14.4895 287.384 14.5913C287.483 14.6422 287.632 14.6954 287.758 14.6977C287.978 14.7023 288.203 14.6653 288.424 14.6491C288.491 14.6445 288.568 14.6445 288.631 14.6561C288.698 14.6699 288.757 14.6977 288.815 14.7209C288.995 14.7995 289.189 14.8365 289.423 14.7972C289.805 14.7324 290.147 14.7648 290.444 14.9129C290.485 14.9337 290.584 14.936 290.647 14.9268C290.809 14.9036 290.948 14.9013 291.07 14.9452C291.12 14.9638 291.191 14.9961 291.182 15.0169C291.169 15.0517 291.115 15.0979 291.056 15.1095C290.633 15.1881 290.179 15.1974 289.742 15.2391C289.684 15.2437 289.612 15.2136 289.553 15.1928C289.427 15.1511 289.319 15.0817 289.184 15.0656C289.049 15.0494 288.892 15.0794 288.743 15.091C288.595 15.1026 288.437 15.1373 288.302 15.1234C288.167 15.1072 288.041 15.0493 287.933 14.9985C287.807 14.9406 287.686 14.9337 287.519 14.9568C287.303 14.9869 287.078 14.9915 286.858 15.0077C286.736 14.9638 286.615 14.9152 286.489 14.8735C286.43 14.8527 286.358 14.8273 286.295 14.8296C285.998 14.8481 285.701 14.8758 285.404 14.9013C285.107 14.9267 285.107 14.9268 284.603 14.7833C284.545 14.7671 284.468 14.7486 284.405 14.7532C284.031 14.781 283.662 14.8157 283.289 14.8434C283.145 14.855 283.014 14.8226 282.897 14.7602C282.785 14.6977 282.65 14.663 282.51 14.6746C281.916 14.7231 281.322 14.7694 280.728 14.8273C280.49 14.8504 280.287 14.8296 280.125 14.7463C279.936 14.6514 279.725 14.6746 279.504 14.6931C279.005 14.7394 279 14.737 278.681 14.619C278.618 14.5959 278.555 14.5519 278.496 14.5543C277.979 14.589 277.457 14.6214 276.944 14.6769C276.674 14.707 276.53 14.626 276.349 14.5658C276.286 14.545 276.219 14.5011 276.165 14.5057C275.791 14.5311 275.418 14.5543 275.053 14.6005C274.689 14.6468 274.549 14.4317 274.275 14.434C273.901 14.4363 273.532 14.4895 273.163 14.5219C272.866 14.5473 272.569 14.5728 272.272 14.5982C271.975 14.6237 271.678 14.6445 271.381 14.6746C271.224 14.6908 271.107 14.6699 270.976 14.6121C270.81 14.5358 270.612 14.4756 270.432 14.4062C270.157 14.3068 270.157 14.3067 269.824 14.3345C269.752 14.3414 269.676 14.3461 269.604 14.353C269.059 14.4039 269.059 14.3993 268.366 14.2535C268.334 14.2466 268.253 14.272 268.222 14.2906C268.127 14.3507 268.042 14.4155 267.956 14.4779C267.835 14.4409 267.686 14.4201 267.605 14.3669C267.376 14.2165 267.016 14.4224 266.782 14.2743C266.696 14.2188 266.548 14.1702 266.413 14.1564C266.273 14.1425 266.116 14.1749 265.972 14.1888C265.598 14.2235 265.598 14.2211 265.279 14.427C265.117 14.5288 264.883 14.5103 264.671 14.5335C264.451 14.5589 264.239 14.5728 264.055 14.4779C263.888 14.3923 263.686 14.3715 263.447 14.3993C263.155 14.434 262.853 14.4548 262.556 14.4756C262.493 14.4802 262.416 14.4687 262.353 14.4548C261.665 14.3183 261.665 14.316 261.332 14.3461C261.183 14.36 261.03 14.3646 260.886 14.3854C260.643 14.4224 260.459 14.3738 260.283 14.2998C260.225 14.2767 260.157 14.2327 260.099 14.235C259.802 14.2466 259.509 14.2674 259.217 14.2882C258.992 14.3044 258.767 14.3137 258.551 14.3461C258.191 14.3993 258.015 14.2489 257.768 14.1795C257.399 14.2096 257.025 14.2304 256.656 14.272C256.485 14.2905 256.373 14.2836 256.242 14.2281C256.076 14.1587 255.923 14.08 255.653 14.1147C255.293 14.161 254.915 14.1772 254.545 14.205C254.298 14.1332 254.118 13.9875 253.762 14.0407C253.546 14.0731 253.317 14.08 253.096 14.0985C252.799 14.124 252.502 14.1471 252.205 14.1749C251.886 14.2026 251.89 14.1957 251.4 14.0592C251.116 13.9782 250.824 14.0685 250.536 14.0823C250.311 14.0939 250.198 14.2003 250.252 14.3368C250.306 14.4733 250.185 14.5797 249.978 14.5982C249.46 14.6422 248.938 14.6884 248.421 14.7278C248.358 14.7324 248.281 14.7162 248.223 14.7C247.669 14.5543 247.669 14.5566 247.421 14.5774C247.052 14.6121 246.674 14.6306 246.31 14.6746C246.058 14.7046 245.873 14.6561 245.711 14.5774C245.585 14.5173 245.468 14.5034 245.306 14.5173C243.524 14.6723 241.742 14.8157 239.964 14.9753C239.699 14.9985 239.546 14.9314 239.366 14.8689C239.303 14.8481 239.244 14.8041 239.181 14.8041C239.033 14.8041 238.884 14.825 238.736 14.8388C238.07 14.8944 237.404 14.9614 236.733 15.0031C236.45 15.0216 236.373 15.128 236.252 15.2159C236.157 15.283 236.049 15.3108 235.883 15.32C235.721 15.3293 235.604 15.3177 235.478 15.2576C235.316 15.1789 235.131 15.1303 234.879 15.1627C234.587 15.1997 234.29 15.2159 233.988 15.2414C233.835 15.2529 233.718 15.2946 233.668 15.3779C233.659 15.3917 233.754 15.4265 233.808 15.4473C233.988 15.5167 234.159 15.5976 234.362 15.6462C234.569 15.6948 234.794 15.6393 235.01 15.6254C235.086 15.6208 235.158 15.6069 235.23 15.6092C235.298 15.6115 235.379 15.6231 235.428 15.6439C235.662 15.748 235.91 15.8197 236.234 15.7573C236.513 15.7873 236.657 15.9794 237.012 15.9285C237.228 15.8984 237.453 15.8845 237.678 15.8729C237.737 15.8706 237.8 15.9123 237.863 15.9331C238.043 15.9909 238.187 16.0835 238.457 16.0441C238.745 16.0025 239.051 15.9956 239.343 15.9632C239.505 15.9447 239.622 15.9608 239.748 16.021C239.91 16.0973 240.095 16.1552 240.347 16.1181C240.563 16.0858 240.793 16.0788 241.013 16.058C241.301 16.0325 241.301 16.0349 241.814 16.1783C241.873 16.1945 241.949 16.213 242.012 16.2084C242.386 16.1806 242.755 16.1459 243.128 16.1181C243.272 16.1066 243.412 16.1367 243.511 16.2037C243.551 16.2315 243.538 16.2778 243.551 16.3171C242.809 16.3796 242.066 16.4328 241.328 16.5091C241.049 16.5392 240.923 16.4444 240.738 16.3911C240.675 16.3726 240.608 16.3333 240.549 16.3379C240.027 16.3773 239.51 16.4189 238.992 16.4698C238.83 16.486 238.709 16.4767 238.587 16.4096C238.277 16.2315 237.899 16.3287 237.548 16.3541C237.278 16.3726 237.192 16.4444 237.224 16.597C237.264 16.7775 237.426 16.833 237.84 16.8006C237.989 16.7891 238.137 16.7729 238.286 16.7636C238.43 16.7543 238.56 16.7844 238.677 16.8469C238.79 16.9093 238.925 16.9417 239.064 16.9325C239.361 16.9117 239.663 16.8908 239.951 16.8561C240.189 16.8284 240.387 16.8515 240.554 16.9371C240.738 17.032 240.955 17.0111 241.171 16.9903C241.675 16.944 241.679 16.9464 241.994 17.062C242.057 17.0852 242.12 17.1291 242.179 17.1268C242.696 17.0921 243.218 17.062 243.727 17.0065C243.992 16.9788 244.145 17.0528 244.321 17.1129C244.384 17.1338 244.447 17.18 244.505 17.1754C244.879 17.15 245.252 17.1245 245.617 17.0805C245.788 17.0597 245.891 17.0736 246.031 17.1291C246.364 17.2656 246.373 17.261 246.845 17.217C246.989 17.2031 247.147 17.1777 247.282 17.1962C247.417 17.2147 247.525 17.2818 247.651 17.3235C247.709 17.342 247.781 17.3674 247.844 17.3628C248.141 17.3443 248.438 17.3165 248.736 17.2911C249.015 17.2656 249.015 17.2679 249.537 17.4114C249.748 17.4715 249.969 17.4206 250.18 17.4021C250.41 17.3813 250.617 17.3813 250.792 17.4715C250.968 17.5618 251.179 17.5571 251.404 17.5386C251.616 17.5201 251.832 17.4692 252.048 17.5317C252.543 17.6751 252.543 17.6774 252.849 17.6496C253.294 17.6103 253.735 17.5733 254.185 17.5386C254.244 17.534 254.32 17.5617 254.379 17.5802C254.505 17.6219 254.613 17.6913 254.748 17.7075C254.883 17.726 255.04 17.6982 255.184 17.6843C255.648 17.6404 255.68 17.6242 255.99 17.7769C256.251 17.9018 256.575 17.7214 256.818 17.8648C256.958 17.9458 257.147 18.0105 257.408 17.9712C257.624 17.9388 257.849 17.9296 258.074 17.9111C258.429 17.881 258.429 17.8833 258.879 18.0221C258.938 18.0406 259.014 18.0637 259.073 18.0591C259.37 18.0406 259.671 18.0244 259.959 17.9828C260.297 17.9342 260.513 18.0221 260.765 18.1077C260.963 18.1748 261.197 18.1193 261.408 18.0961C261.638 18.073 261.845 18.0799 262.016 18.1702C262.196 18.2627 262.408 18.2511 262.633 18.2326C262.844 18.2164 263.06 18.1632 263.276 18.228C263.74 18.3714 263.74 18.3714 264.077 18.3437C264.374 18.3182 264.671 18.2905 264.968 18.272C265.027 18.2673 265.099 18.2974 265.157 18.3182C265.283 18.3599 265.391 18.4293 265.526 18.4455C265.661 18.4617 265.819 18.4316 265.967 18.42C266.116 18.4085 266.273 18.3738 266.408 18.3876C266.543 18.4015 266.669 18.4594 266.777 18.5103C266.903 18.5704 267.02 18.5773 267.191 18.5542C267.407 18.5241 267.632 18.5172 267.853 18.501C267.974 18.5449 268.1 18.5889 268.217 18.6375C268.339 18.6884 268.469 18.6837 268.636 18.6676C269.189 18.612 269.194 18.619 269.657 18.7624C269.869 18.8272 270.09 18.774 270.301 18.7578C270.526 18.7393 270.738 18.73 270.913 18.8226C271.084 18.9105 271.296 18.922 271.521 18.8943C271.665 18.8758 271.818 18.8642 271.966 18.8573C272.034 18.855 272.115 18.8642 272.164 18.8827C272.403 18.9799 272.637 19.0678 272.965 19.0053C273.253 19.0238 273.397 19.2135 273.744 19.1765C274.036 19.1441 274.342 19.1372 274.63 19.0955C274.896 19.0585 275.085 19.1233 275.22 19.2043C275.463 19.3477 275.805 19.1534 276.048 19.2945C276.188 19.3755 276.367 19.4403 276.637 19.4056C276.934 19.3685 277.029 19.4171 277.115 19.5628C277.164 19.6461 277.155 19.7132 277.065 19.778C276.975 19.8451 276.876 19.8335 276.732 19.7572C276.566 19.6716 276.367 19.6554 276.129 19.6739C275.895 19.6924 275.751 19.5721 275.557 19.5259C275.364 19.4773 275.134 19.5582 274.932 19.4958C274.455 19.35 274.455 19.35 274.131 19.3778C273.91 19.3963 273.681 19.4056 273.465 19.4379C273.208 19.4773 273.042 19.4055 272.866 19.3408C272.803 19.3176 272.74 19.2737 272.686 19.276C272.169 19.3107 271.647 19.3431 271.134 19.4009C270.864 19.431 270.72 19.3477 270.54 19.2899C270.477 19.2691 270.409 19.2274 270.355 19.232C269.91 19.2644 269.469 19.3061 269.023 19.3454C268.937 19.4079 268.843 19.468 268.762 19.5351C268.676 19.6045 268.559 19.6346 268.388 19.6323C268.105 19.6323 267.826 19.7294 267.542 19.6068C267.25 19.4819 267.227 19.4888 266.944 19.5189C266.584 19.5582 266.201 19.549 265.864 19.6392C265.805 19.6554 265.742 19.6993 265.742 19.7317C265.738 19.7525 265.832 19.7826 265.891 19.8011C266.089 19.8567 266.318 19.7757 266.516 19.8335C266.647 19.8705 266.755 19.9261 266.885 19.9654C266.939 19.9816 267.02 19.9793 267.092 19.977C267.169 19.9746 267.241 19.9585 267.313 19.9608C267.38 19.9631 267.452 19.977 267.506 19.9978C267.754 20.0857 268.015 20.1667 268.235 20.2708C268.451 20.3726 268.654 20.3032 268.87 20.2985C269.734 20.4605 269.734 20.4628 270.315 20.4119C270.459 20.4003 270.607 20.3864 270.756 20.3888C270.819 20.3888 270.877 20.4304 270.94 20.4535C271.12 20.5229 271.291 20.5854 271.543 20.5484C271.759 20.516 271.989 20.509 272.209 20.4882C272.506 20.4628 272.506 20.4628 273.01 20.6085C273.136 20.6455 273.271 20.6409 273.433 20.6224C273.573 20.6062 273.717 20.6409 273.816 20.708C273.856 20.7358 273.843 20.782 273.856 20.8214C273.411 20.8584 272.961 20.8838 272.529 20.9394C272.25 20.9741 272.124 20.8746 271.939 20.8214C271.876 20.8029 271.809 20.7635 271.75 20.7682C271.309 20.8029 270.868 20.8422 270.427 20.8884C270.373 20.8931 270.306 20.9463 270.301 20.9787C270.292 21.0388 270.405 21.0967 270.567 21.0943C270.783 21.092 270.994 21.0527 271.188 21.1475C271.35 21.2308 271.552 21.2679 271.791 21.2309C271.935 21.21 272.088 21.21 272.232 21.1915C272.614 21.136 272.961 21.1476 273.249 21.3049C273.469 21.3465 273.685 21.3072 273.897 21.2864C274.054 21.2702 274.207 21.254 274.32 21.2979C274.558 21.3905 274.792 21.483 275.121 21.4205C275.476 21.4853 275.746 21.6218 276.043 21.7329C276.183 21.7861 276.291 21.8162 276.453 21.7815C276.52 21.7676 276.602 21.7676 276.673 21.7606C276.822 21.749 276.98 21.7143 277.115 21.7282C277.25 21.7444 277.362 21.8115 277.484 21.8532C277.542 21.874 277.61 21.9087 277.668 21.9064C277.893 21.8948 278.114 21.8717 278.334 21.8532C278.555 21.837 278.775 21.8208 278.996 21.8046C279.18 21.8647 279.369 21.9249 279.554 21.985C279.851 21.9596 280.148 21.9341 280.44 21.911C280.769 21.8832 280.769 21.8855 281.241 22.029C281.453 22.0938 281.678 22.0521 281.88 22.022C282.218 21.9734 282.443 22.0614 282.681 22.1539C282.731 22.1724 282.821 22.184 282.879 22.1747C283.113 22.1423 283.316 22.1678 283.487 22.2534C283.608 22.3135 283.73 22.3413 283.879 22.3297C284.396 22.2858 284.914 22.2395 285.431 22.2002C285.494 22.1955 285.566 22.2164 285.625 22.2349C286.084 22.376 286.088 22.3829 286.426 22.3459C286.727 22.3135 287.006 22.2996 287.245 22.4269C287.294 22.4546 287.371 22.494 287.425 22.4917C287.794 22.4685 288.167 22.4431 288.532 22.4038C288.698 22.3852 288.815 22.3922 288.946 22.4454C289.112 22.5125 289.261 22.5935 289.535 22.5634C290.296 22.4778 290.3 22.4916 291.201 22.6513C291.264 22.6628 291.349 22.6443 291.421 22.6351C291.574 22.612 291.686 22.6444 291.822 22.6976C292.123 22.8179 292.132 22.8109 292.42 22.7855C292.641 22.7647 292.87 22.76 293.086 22.7253C293.419 22.6744 293.64 22.7647 293.887 22.8503C294.085 22.9173 294.315 22.8618 294.526 22.841C294.756 22.8179 294.963 22.8248 295.134 22.9127C295.251 22.9728 295.377 23.0053 295.525 22.9937C296.043 22.952 296.56 22.9058 297.078 22.8641C297.141 22.8595 297.217 22.878 297.276 22.8942C297.789 23.0376 297.789 23.0446 298.298 22.9914C298.46 22.9752 298.595 22.9706 298.716 23.0191C298.833 23.0654 298.959 23.1093 299.081 23.1533C299.301 23.1371 299.526 23.1325 299.742 23.1047C299.909 23.0839 300.026 23.0932 300.156 23.1418C300.327 23.2042 300.471 23.3129 300.741 23.2597C300.881 23.2343 301.043 23.2412 301.182 23.2181C301.349 23.188 301.461 23.2065 301.592 23.2667C301.754 23.3384 301.92 23.4124 302.181 23.3754C302.469 23.3337 302.775 23.3268 303.068 23.2944C303.23 23.2759 303.342 23.2944 303.473 23.3546C303.635 23.4309 303.819 23.4795 304.071 23.4494C304.585 23.3916 304.589 23.4031 305.088 23.5489C305.214 23.5859 305.35 23.5813 305.512 23.5628C305.651 23.5466 305.795 23.5813 305.894 23.6484C305.988 23.7224 305.979 23.7687 305.988 23.808ZM265.886 2.94316C265.738 2.95473 265.589 2.9686 265.373 2.76734C265.36 2.73263 265.369 2.691 265.337 2.66093C265.265 2.59846 265.153 2.55451 265.018 2.54757C264.775 2.53832 264.482 2.61696 264.487 2.67711C264.491 2.728 264.568 2.77195 264.716 2.81359C264.779 2.82979 264.829 2.85755 264.887 2.87606C265.058 2.92927 265.193 3.03339 265.441 2.98018C265.396 2.83675 265.418 2.90847 265.441 2.98018C265.418 3.06809 265.486 3.13056 265.648 3.156C265.693 3.16295 265.76 3.15831 265.796 3.14443C265.936 3.09353 265.958 3.02414 265.855 2.84138C265.837 2.87146 265.85 2.92465 265.891 2.93853C265.931 2.95241 266.03 2.94086 266.08 2.92466C266.206 2.88071 266.269 2.82286 266.237 2.77428C266.219 2.74884 266.134 2.71645 266.08 2.71645C265.985 2.71645 265.9 2.76734 265.886 2.94316ZM302.276 29.772C301.947 29.816 301.569 29.7998 301.241 29.89C301.182 29.9062 301.124 29.9479 301.119 29.9802C301.115 30.0011 301.205 30.0311 301.259 30.0473C301.38 30.0844 301.515 30.0728 301.673 30.0612C301.911 30.045 302.051 30.1514 302.235 30.2046C302.294 30.2208 302.37 30.2324 302.433 30.2278C302.798 30.2 303.158 30.17 303.522 30.1376C303.585 30.1306 303.653 30.1144 303.707 30.0936C303.887 30.0265 303.869 29.9826 303.693 29.9317C303.5 29.8761 303.347 29.7836 303.149 29.7396C302.865 29.6772 302.577 29.7605 302.276 29.772ZM276.719 31.4608C276.498 31.4794 276.282 31.4979 276.061 31.5164C275.989 31.5233 275.913 31.5256 275.845 31.5349C275.706 31.5511 275.602 31.5996 275.535 31.676C275.638 31.7361 275.764 31.7708 275.904 31.7639C276.124 31.75 276.34 31.7199 276.561 31.713C276.799 31.7037 276.939 31.8079 277.124 31.8611C277.182 31.8773 277.254 31.8796 277.322 31.8819C277.655 31.8911 277.857 31.7708 277.794 31.602C277.749 31.4701 277.578 31.3914 277.371 31.4076C277.155 31.4238 276.935 31.4423 276.719 31.4608ZM303.815 26.3528C303.869 26.3134 303.927 26.2857 303.954 26.251C304.035 26.133 304.004 26.0451 303.855 25.9525C303.675 25.8392 303.455 25.9155 303.252 25.9271C303.203 25.9294 303.149 25.978 303.122 26.0081C303.104 26.0289 303.104 26.0729 303.131 26.0844C303.351 26.177 303.585 26.2625 303.815 26.3528ZM264.775 19.5189C264.559 19.5374 264.338 19.5513 264.122 19.5767C264.068 19.5837 264.019 19.6276 263.987 19.6577C263.929 19.7132 263.992 19.7896 264.176 19.7965C264.388 19.8058 264.608 19.7664 264.829 19.7479C265.108 19.7248 265.274 19.6392 265.171 19.5652C265.072 19.4934 264.937 19.4796 264.775 19.5189ZM27.8827 14.5751C28.0267 14.5635 28.1752 14.5543 28.3192 14.5381C28.4542 14.5219 28.5578 14.471 28.6253 14.3946C28.5128 14.3345 28.3867 14.3021 28.2472 14.3091C28.0267 14.3229 27.8107 14.3414 27.5947 14.3646C27.4597 14.3785 27.3292 14.4293 27.2977 14.508C27.2662 14.5682 27.5676 14.6029 27.8827 14.5751ZM245.743 14.2188C245.801 14.2396 245.86 14.2813 245.918 14.2813C246.062 14.2813 246.211 14.2674 246.346 14.2443C246.404 14.235 246.449 14.1934 246.476 14.161C246.494 14.1402 246.49 14.1032 246.463 14.0847C246.332 13.9736 245.81 14.0129 245.725 14.1402C245.716 14.1633 245.738 14.1934 245.743 14.2188ZM231.544 1.55047C231.558 1.58748 231.562 1.62449 231.58 1.66151C231.616 1.73091 231.715 1.78182 231.859 1.81652C231.972 1.75868 232.03 1.69392 232.026 1.62451C232.021 1.5875 232.008 1.55046 231.99 1.51345C231.954 1.44404 231.855 1.39316 231.711 1.35846C231.598 1.41399 231.544 1.47875 231.544 1.55047ZM314.215 31.8634C314.175 31.8935 314.134 31.9235 314.089 31.9513C314.211 32.0184 314.323 32.0392 314.409 32.0022C314.463 31.979 314.494 31.9443 314.535 31.9143C314.413 31.8472 314.305 31.8287 314.215 31.8634ZM311.416 32.178C311.474 32.1988 311.528 32.2266 311.591 32.2405C311.695 32.2636 311.789 32.2243 311.861 32.141C311.803 32.1202 311.749 32.0924 311.686 32.0785C311.582 32.0554 311.488 32.0947 311.416 32.178ZM313.189 31.7547C313.158 31.8102 313.221 31.8564 313.387 31.8958C313.428 31.8657 313.482 31.8379 313.509 31.8055C313.554 31.7523 313.477 31.7038 313.315 31.6667C313.27 31.6945 313.229 31.7246 313.189 31.7547ZM303.689 29.2608C303.657 29.3163 303.72 29.3626 303.887 29.4019C303.927 29.3718 303.981 29.344 304.008 29.3117C304.053 29.2584 303.977 29.2099 303.815 29.1729C303.77 29.2006 303.729 29.2307 303.689 29.2608ZM290.746 12.8909C290.705 12.921 290.665 12.9511 290.62 12.9788C290.741 13.0459 290.854 13.0667 290.939 13.0297C290.993 13.0066 291.025 12.9719 291.065 12.9418C290.944 12.8747 290.836 12.8562 290.746 12.8909ZM278.348 4.20628C278.456 4.22248 278.546 4.1901 278.622 4.10451C278.564 4.08369 278.51 4.05592 278.447 4.04204C278.343 4.0189 278.249 4.05825 278.177 4.14153C278.235 4.16466 278.294 4.18546 278.348 4.20628ZM271.764 3.66263C271.723 3.69271 271.683 3.72278 271.638 3.75054C271.759 3.81763 271.872 3.83845 271.957 3.80143C272.011 3.7783 272.043 3.7436 272.083 3.71352C271.962 3.64643 271.854 3.63024 271.764 3.66263ZM227.116 1.54815C227.076 1.57823 227.035 1.6083 226.99 1.63606C227.112 1.70315 227.224 1.72397 227.31 1.68695C227.364 1.66382 227.395 1.62912 227.436 1.59904C227.314 1.53195 227.206 1.51576 227.116 1.54815ZM4.80503 20.3702C4.74653 20.3494 4.68808 20.3286 4.63407 20.3055C4.50356 20.3679 4.46308 20.4258 4.53508 20.4697C4.58008 20.4975 4.64754 20.5137 4.70604 20.5345C4.84105 20.472 4.87254 20.4165 4.80503 20.3702Z" fill="#FFE492"/>
</svg>
    