<svg width="30" height="30" viewBox="0 0 30 30" fill="none" xmlns="http://www.w3.org/2000/svg">
<path d="M14.9824 0.874023C22.7815 0.874023 29.126 7.21846 29.126 15.0176C29.126 22.8166 22.7815 29.1611 14.9824 29.1611C7.18341 29.1611 0.838868 22.8167 0.838867 15.0176C0.838867 7.21856 7.1833 0.874023 14.9824 0.874023ZM14.9824 2.31543C7.9786 2.31543 2.28027 8.01386 2.28027 15.0176C2.28027 22.0214 7.97871 27.7197 14.9824 27.7197C21.9861 27.7197 27.6846 22.0213 27.6846 15.0176C27.6846 8.01376 21.9861 2.31543 14.9824 2.31543Z" fill="#4C95EB" stroke="#F9FFF9" stroke-width="0.322847"/>
<path d="M15.2373 9.42969C15.5524 9.42969 15.8084 9.68489 15.8086 10V20.6465C15.8086 20.9621 15.5525 21.2178 15.2373 21.2178C14.9222 21.2176 14.667 20.9616 14.667 20.6465V10C14.6671 9.685 14.9223 9.42984 15.2373 9.42969Z" fill="#4C95EB" stroke="#4C95EB" stroke-width="0.322847"/>
<path d="M14.9238 9.52441C15.1454 9.37806 15.4466 9.40262 15.6416 9.59766L18.917 12.873C19.1399 13.096 19.1397 13.4566 18.917 13.6797C18.8054 13.7917 18.6592 13.8476 18.5137 13.8477C18.368 13.8477 18.2217 13.7919 18.1104 13.6807L15.2383 10.8086L12.3662 13.6807C12.1434 13.9039 11.7816 13.9036 11.5586 13.6807C11.3356 13.4576 11.3356 13.0961 11.5586 12.873L14.834 9.59766L14.9238 9.52441Z" fill="#4C95EB" stroke="#4C95EB" stroke-width="0.322847"/>
</svg>
